<svg width="1766" height="757" viewBox="0 0 1766 757" fill="none" xmlns="http://www.w3.org/2000/svg">
<rect x="0.5" y="0.5" width="62.0714" height="62.0714" stroke="#464646"/>
<rect x="883.5" y="0.5" width="62.0714" height="62.0714" stroke="#464646"/>
<rect x="0.5" y="378.929" width="62.0714" height="62.0714" stroke="#464646"/>
<rect x="883.5" y="378.929" width="62.0714" height="62.0714" stroke="#464646"/>
<rect x="442" y="0.5" width="62.0714" height="62.0714" stroke="#464646"/>
<rect x="1325" y="0.5" width="62.0714" height="62.0714" stroke="#464646"/>
<rect x="442" y="378.929" width="62.0714" height="62.0714" stroke="#464646"/>
<rect x="1325" y="378.929" width="62.0714" height="62.0714" stroke="#464646"/>
<rect x="0.5" y="63.5713" width="62.0714" height="62.0714" stroke="#464646"/>
<rect x="883.5" y="63.5713" width="62.0714" height="62.0714" stroke="#464646"/>
<rect x="0.5" y="442" width="62.0714" height="62.0714" stroke="#464646"/>
<rect x="883.5" y="442" width="62.0714" height="62.0714" stroke="#464646"/>
<rect x="442" y="63.5713" width="62.0714" height="62.0714" stroke="#464646"/>
<rect x="1325" y="63.5713" width="62.0714" height="62.0714" stroke="#464646"/>
<rect x="442" y="442" width="62.0714" height="62.0714" stroke="#464646"/>
<rect x="1325" y="442" width="62.0714" height="62.0714" stroke="#464646"/>
<rect x="0.5" y="126.643" width="62.0714" height="62.0714" stroke="#464646"/>
<rect x="883.5" y="126.643" width="62.0714" height="62.0714" stroke="#464646"/>
<rect x="0.5" y="505.071" width="62.0714" height="62.0714" stroke="#464646"/>
<rect x="883.5" y="505.071" width="62.0714" height="62.0714" stroke="#464646"/>
<rect x="442" y="126.643" width="62.0714" height="62.0714" stroke="#464646"/>
<rect x="1325" y="126.643" width="62.0714" height="62.0714" stroke="#464646"/>
<rect x="442" y="505.071" width="62.0714" height="62.0714" stroke="#464646"/>
<rect x="1325" y="505.071" width="62.0714" height="62.0714" stroke="#464646"/>
<rect x="0.5" y="189.714" width="62.0714" height="62.0714" stroke="#464646"/>
<rect x="883.5" y="189.714" width="62.0714" height="62.0714" stroke="#464646"/>
<rect x="0.5" y="568.143" width="62.0714" height="62.0714" stroke="#464646"/>
<rect x="883.5" y="568.143" width="62.0714" height="62.0714" stroke="#464646"/>
<rect x="442" y="189.714" width="62.0714" height="62.0714" stroke="#464646"/>
<rect x="1325" y="189.714" width="62.0714" height="62.0714" stroke="#464646"/>
<rect x="442" y="568.143" width="62.0714" height="62.0714" stroke="#464646"/>
<rect x="1325" y="568.143" width="62.0714" height="62.0714" stroke="#464646"/>
<rect x="0.5" y="252.786" width="62.0714" height="62.0714" stroke="#464646"/>
<rect x="883.5" y="252.786" width="62.0714" height="62.0714" stroke="#464646"/>
<rect x="0.5" y="631.214" width="62.0714" height="62.0714" stroke="#464646"/>
<rect x="883.5" y="631.214" width="62.0714" height="62.0714" stroke="#464646"/>
<rect x="442" y="252.786" width="62.0714" height="62.0714" stroke="#464646"/>
<rect x="1325" y="252.786" width="62.0714" height="62.0714" stroke="#464646"/>
<rect x="442" y="631.214" width="62.0714" height="62.0714" stroke="#464646"/>
<rect x="1325" y="631.214" width="62.0714" height="62.0714" stroke="#464646"/>
<rect x="0.5" y="315.857" width="62.0714" height="62.0714" stroke="#464646"/>
<rect x="883.5" y="315.857" width="62.0714" height="62.0714" stroke="#464646"/>
<rect x="0.5" y="694.286" width="62.0714" height="62.0714" stroke="#464646"/>
<rect x="883.5" y="694.286" width="62.0714" height="62.0714" stroke="#464646"/>
<rect x="442" y="315.857" width="62.0714" height="62.0714" stroke="#464646"/>
<rect x="1325" y="315.857" width="62.0714" height="62.0714" stroke="#464646"/>
<rect x="442" y="694.286" width="62.0714" height="62.0714" stroke="#464646"/>
<rect x="1325" y="694.286" width="62.0714" height="62.0714" stroke="#464646"/>
<rect x="63.5723" y="0.5" width="62.0714" height="62.0714" stroke="#464646"/>
<rect x="946.572" y="0.5" width="62.0714" height="62.0714" stroke="#464646"/>
<rect x="63.5723" y="378.929" width="62.0714" height="62.0714" stroke="#464646"/>
<rect x="946.572" y="378.929" width="62.0714" height="62.0714" stroke="#464646"/>
<rect x="505.072" y="0.5" width="62.0714" height="62.0714" stroke="#464646"/>
<rect x="1388.07" y="0.5" width="62.0714" height="62.0714" stroke="#464646"/>
<rect x="505.072" y="378.929" width="62.0714" height="62.0714" stroke="#464646"/>
<rect x="1388.07" y="378.929" width="62.0714" height="62.0714" stroke="#464646"/>
<rect x="63.5723" y="63.5713" width="62.0714" height="62.0714" stroke="#464646"/>
<rect x="946.572" y="63.5713" width="62.0714" height="62.0714" stroke="#464646"/>
<rect x="63.5723" y="442" width="62.0714" height="62.0714" stroke="#464646"/>
<rect x="946.572" y="442" width="62.0714" height="62.0714" stroke="#464646"/>
<rect x="505.072" y="63.5713" width="62.0714" height="62.0714" stroke="#464646"/>
<rect x="1388.07" y="63.5713" width="62.0714" height="62.0714" stroke="#464646"/>
<rect x="505.072" y="442" width="62.0714" height="62.0714" stroke="#464646"/>
<rect x="1388.07" y="442" width="62.0714" height="62.0714" stroke="#464646"/>
<rect x="63.5723" y="126.643" width="62.0714" height="62.0714" stroke="#464646"/>
<rect x="946.572" y="126.643" width="62.0714" height="62.0714" stroke="#464646"/>
<rect x="63.5723" y="505.071" width="62.0714" height="62.0714" stroke="#464646"/>
<rect x="946.572" y="505.071" width="62.0714" height="62.0714" stroke="#464646"/>
<rect x="505.072" y="126.643" width="62.0714" height="62.0714" stroke="#464646"/>
<rect x="1388.07" y="126.643" width="62.0714" height="62.0714" stroke="#464646"/>
<rect x="505.072" y="505.071" width="62.0714" height="62.0714" stroke="#464646"/>
<rect x="1388.07" y="505.071" width="62.0714" height="62.0714" stroke="#464646"/>
<rect x="63.5723" y="189.714" width="62.0714" height="62.0714" stroke="#464646"/>
<rect x="946.572" y="189.714" width="62.0714" height="62.0714" stroke="#464646"/>
<rect x="63.5723" y="568.143" width="62.0714" height="62.0714" stroke="#464646"/>
<rect x="946.572" y="568.143" width="62.0714" height="62.0714" stroke="#464646"/>
<rect x="505.072" y="189.714" width="62.0714" height="62.0714" stroke="#464646"/>
<rect x="1388.07" y="189.714" width="62.0714" height="62.0714" stroke="#464646"/>
<rect x="505.072" y="568.143" width="62.0714" height="62.0714" stroke="#464646"/>
<rect x="1388.07" y="568.143" width="62.0714" height="62.0714" stroke="#464646"/>
<rect x="63.5723" y="252.786" width="62.0714" height="62.0714" stroke="#464646"/>
<rect x="946.572" y="252.786" width="62.0714" height="62.0714" stroke="#464646"/>
<rect x="63.5723" y="631.214" width="62.0714" height="62.0714" stroke="#464646"/>
<rect x="946.572" y="631.214" width="62.0714" height="62.0714" stroke="#464646"/>
<rect x="505.072" y="252.786" width="62.0714" height="62.0714" stroke="#464646"/>
<rect x="1388.07" y="252.786" width="62.0714" height="62.0714" stroke="#464646"/>
<rect x="505.072" y="631.214" width="62.0714" height="62.0714" stroke="#464646"/>
<rect x="1388.07" y="631.214" width="62.0714" height="62.0714" stroke="#464646"/>
<rect x="63.5723" y="315.857" width="62.0714" height="62.0714" stroke="#464646"/>
<rect x="946.572" y="315.857" width="62.0714" height="62.0714" stroke="#464646"/>
<rect x="63.5723" y="694.286" width="62.0714" height="62.0714" stroke="#464646"/>
<rect x="946.572" y="694.286" width="62.0714" height="62.0714" stroke="#464646"/>
<rect x="505.072" y="315.857" width="62.0714" height="62.0714" stroke="#464646"/>
<rect x="1388.07" y="315.857" width="62.0714" height="62.0714" stroke="#464646"/>
<rect x="505.072" y="694.286" width="62.0714" height="62.0714" stroke="#464646"/>
<rect x="1388.07" y="694.286" width="62.0714" height="62.0714" stroke="#464646"/>
<rect x="126.643" y="0.5" width="62.0714" height="62.0714" stroke="#464646"/>
<rect x="1009.64" y="0.5" width="62.0714" height="62.0714" stroke="#464646"/>
<rect x="126.643" y="378.929" width="62.0714" height="62.0714" stroke="#464646"/>
<rect x="1009.64" y="378.929" width="62.0714" height="62.0714" stroke="#464646"/>
<rect x="568.143" y="0.5" width="62.0714" height="62.0714" stroke="#464646"/>
<rect x="1451.14" y="0.5" width="62.0714" height="62.0714" stroke="#464646"/>
<rect x="568.143" y="378.929" width="62.0714" height="62.0714" stroke="#464646"/>
<rect x="1451.14" y="378.929" width="62.0714" height="62.0714" stroke="#464646"/>
<rect x="126.643" y="63.5713" width="62.0714" height="62.0714" stroke="#464646"/>
<rect x="1009.64" y="63.5713" width="62.0714" height="62.0714" stroke="#464646"/>
<rect x="126.643" y="442" width="62.0714" height="62.0714" stroke="#464646"/>
<rect x="1009.64" y="442" width="62.0714" height="62.0714" stroke="#464646"/>
<rect x="568.143" y="63.5713" width="62.0714" height="62.0714" stroke="#464646"/>
<rect x="1451.14" y="63.5713" width="62.0714" height="62.0714" stroke="#464646"/>
<rect x="568.143" y="442" width="62.0714" height="62.0714" stroke="#464646"/>
<rect x="1451.14" y="442" width="62.0714" height="62.0714" stroke="#464646"/>
<rect x="126.643" y="126.643" width="62.0714" height="62.0714" stroke="#464646"/>
<rect x="1009.64" y="126.643" width="62.0714" height="62.0714" stroke="#464646"/>
<rect x="126.643" y="505.071" width="62.0714" height="62.0714" stroke="#464646"/>
<rect x="1009.64" y="505.071" width="62.0714" height="62.0714" stroke="#464646"/>
<rect x="568.143" y="126.643" width="62.0714" height="62.0714" stroke="#464646"/>
<rect x="1451.14" y="126.643" width="62.0714" height="62.0714" stroke="#464646"/>
<rect x="568.143" y="505.071" width="62.0714" height="62.0714" stroke="#464646"/>
<rect x="1451.14" y="505.071" width="62.0714" height="62.0714" stroke="#464646"/>
<rect x="126.643" y="189.714" width="62.0714" height="62.0714" stroke="#464646"/>
<rect x="1009.64" y="189.714" width="62.0714" height="62.0714" stroke="#464646"/>
<rect x="126.643" y="568.143" width="62.0714" height="62.0714" stroke="#464646"/>
<rect x="1009.64" y="568.143" width="62.0714" height="62.0714" stroke="#464646"/>
<rect x="568.143" y="189.714" width="62.0714" height="62.0714" stroke="#464646"/>
<rect x="1451.14" y="189.714" width="62.0714" height="62.0714" stroke="#464646"/>
<rect x="568.143" y="568.143" width="62.0714" height="62.0714" stroke="#464646"/>
<rect x="1451.14" y="568.143" width="62.0714" height="62.0714" stroke="#464646"/>
<rect x="126.643" y="252.786" width="62.0714" height="62.0714" stroke="#464646"/>
<rect x="1009.64" y="252.786" width="62.0714" height="62.0714" stroke="#464646"/>
<rect x="126.643" y="631.214" width="62.0714" height="62.0714" stroke="#464646"/>
<rect x="1009.64" y="631.214" width="62.0714" height="62.0714" stroke="#464646"/>
<rect x="568.143" y="252.786" width="62.0714" height="62.0714" stroke="#464646"/>
<rect x="1451.14" y="252.786" width="62.0714" height="62.0714" stroke="#464646"/>
<rect x="568.143" y="631.214" width="62.0714" height="62.0714" stroke="#464646"/>
<rect x="1451.14" y="631.214" width="62.0714" height="62.0714" stroke="#464646"/>
<rect x="126.643" y="315.857" width="62.0714" height="62.0714" stroke="#464646"/>
<rect x="1009.64" y="315.857" width="62.0714" height="62.0714" stroke="#464646"/>
<rect x="126.643" y="694.286" width="62.0714" height="62.0714" stroke="#464646"/>
<rect x="1009.64" y="694.286" width="62.0714" height="62.0714" stroke="#464646"/>
<rect x="568.143" y="315.857" width="62.0714" height="62.0714" stroke="#464646"/>
<rect x="1451.14" y="315.857" width="62.0714" height="62.0714" stroke="#464646"/>
<rect x="568.143" y="694.286" width="62.0714" height="62.0714" stroke="#464646"/>
<rect x="1451.14" y="694.286" width="62.0714" height="62.0714" stroke="#464646"/>
<rect x="189.715" y="0.5" width="62.0714" height="62.0714" stroke="#464646"/>
<rect x="1072.71" y="0.5" width="62.0714" height="62.0714" stroke="#464646"/>
<rect x="189.715" y="378.929" width="62.0714" height="62.0714" stroke="#464646"/>
<rect x="1072.71" y="378.929" width="62.0714" height="62.0714" stroke="#464646"/>
<rect x="631.215" y="0.5" width="62.0714" height="62.0714" stroke="#464646"/>
<rect x="1514.21" y="0.5" width="62.0714" height="62.0714" stroke="#464646"/>
<rect x="631.215" y="378.929" width="62.0714" height="62.0714" stroke="#464646"/>
<rect x="1514.21" y="378.929" width="62.0714" height="62.0714" stroke="#464646"/>
<rect x="189.715" y="63.5713" width="62.0714" height="62.0714" stroke="#464646"/>
<rect x="1072.71" y="63.5713" width="62.0714" height="62.0714" stroke="#464646"/>
<rect x="189.715" y="442" width="62.0714" height="62.0714" stroke="#464646"/>
<rect x="1072.71" y="442" width="62.0714" height="62.0714" stroke="#464646"/>
<rect x="631.215" y="63.5713" width="62.0714" height="62.0714" stroke="#464646"/>
<rect x="1514.21" y="63.5713" width="62.0714" height="62.0714" stroke="#464646"/>
<rect x="631.215" y="442" width="62.0714" height="62.0714" stroke="#464646"/>
<rect x="1514.21" y="442" width="62.0714" height="62.0714" stroke="#464646"/>
<rect x="189.715" y="126.643" width="62.0714" height="62.0714" stroke="#464646"/>
<rect x="1072.71" y="126.643" width="62.0714" height="62.0714" stroke="#464646"/>
<rect x="189.715" y="505.071" width="62.0714" height="62.0714" stroke="#464646"/>
<rect x="1072.71" y="505.071" width="62.0714" height="62.0714" stroke="#464646"/>
<rect x="631.215" y="126.643" width="62.0714" height="62.0714" stroke="#464646"/>
<rect x="1514.21" y="126.643" width="62.0714" height="62.0714" stroke="#464646"/>
<rect x="631.215" y="505.071" width="62.0714" height="62.0714" stroke="#464646"/>
<rect x="1514.21" y="505.071" width="62.0714" height="62.0714" stroke="#464646"/>
<rect x="189.715" y="189.714" width="62.0714" height="62.0714" stroke="#464646"/>
<rect x="1072.71" y="189.714" width="62.0714" height="62.0714" stroke="#464646"/>
<rect x="189.715" y="568.143" width="62.0714" height="62.0714" stroke="#464646"/>
<rect x="1072.71" y="568.143" width="62.0714" height="62.0714" stroke="#464646"/>
<rect x="631.215" y="189.714" width="62.0714" height="62.0714" stroke="#464646"/>
<rect x="1514.21" y="189.714" width="62.0714" height="62.0714" stroke="#464646"/>
<rect x="631.215" y="568.143" width="62.0714" height="62.0714" stroke="#464646"/>
<rect x="1514.21" y="568.143" width="62.0714" height="62.0714" stroke="#464646"/>
<rect x="189.715" y="252.786" width="62.0714" height="62.0714" stroke="#464646"/>
<rect x="1072.71" y="252.786" width="62.0714" height="62.0714" stroke="#464646"/>
<rect x="189.715" y="631.214" width="62.0714" height="62.0714" stroke="#464646"/>
<rect x="1072.71" y="631.214" width="62.0714" height="62.0714" stroke="#464646"/>
<rect x="631.215" y="252.786" width="62.0714" height="62.0714" stroke="#464646"/>
<rect x="1514.21" y="252.786" width="62.0714" height="62.0714" stroke="#464646"/>
<rect x="631.215" y="631.214" width="62.0714" height="62.0714" stroke="#464646"/>
<rect x="1514.21" y="631.214" width="62.0714" height="62.0714" stroke="#464646"/>
<rect x="189.715" y="315.857" width="62.0714" height="62.0714" stroke="#464646"/>
<rect x="1072.71" y="315.857" width="62.0714" height="62.0714" stroke="#464646"/>
<rect x="189.715" y="694.286" width="62.0714" height="62.0714" stroke="#464646"/>
<rect x="1072.71" y="694.286" width="62.0714" height="62.0714" stroke="#464646"/>
<rect x="631.215" y="315.857" width="62.0714" height="62.0714" stroke="#464646"/>
<rect x="1514.21" y="315.857" width="62.0714" height="62.0714" stroke="#464646"/>
<rect x="631.215" y="694.286" width="62.0714" height="62.0714" stroke="#464646"/>
<rect x="1514.21" y="694.286" width="62.0714" height="62.0714" stroke="#464646"/>
<rect x="252.785" y="0.5" width="62.0714" height="62.0714" stroke="#464646"/>
<rect x="1135.79" y="0.5" width="62.0714" height="62.0714" stroke="#464646"/>
<rect x="252.785" y="378.929" width="62.0714" height="62.0714" stroke="#464646"/>
<rect x="1135.79" y="378.929" width="62.0714" height="62.0714" stroke="#464646"/>
<rect x="694.285" y="0.5" width="62.0714" height="62.0714" stroke="#464646"/>
<rect x="1577.29" y="0.5" width="62.0714" height="62.0714" stroke="#464646"/>
<rect x="694.285" y="378.929" width="62.0714" height="62.0714" stroke="#464646"/>
<rect x="1577.29" y="378.929" width="62.0714" height="62.0714" stroke="#464646"/>
<rect x="252.785" y="63.5713" width="62.0714" height="62.0714" stroke="#464646"/>
<rect x="1135.79" y="63.5713" width="62.0714" height="62.0714" stroke="#464646"/>
<rect x="252.785" y="442" width="62.0714" height="62.0714" stroke="#464646"/>
<rect x="1135.79" y="442" width="62.0714" height="62.0714" stroke="#464646"/>
<rect x="694.285" y="63.5713" width="62.0714" height="62.0714" stroke="#464646"/>
<rect x="1577.29" y="63.5713" width="62.0714" height="62.0714" stroke="#464646"/>
<rect x="694.285" y="442" width="62.0714" height="62.0714" stroke="#464646"/>
<rect x="1577.29" y="442" width="62.0714" height="62.0714" stroke="#464646"/>
<rect x="252.785" y="126.643" width="62.0714" height="62.0714" stroke="#464646"/>
<rect x="1135.79" y="126.643" width="62.0714" height="62.0714" stroke="#464646"/>
<rect x="252.785" y="505.071" width="62.0714" height="62.0714" stroke="#464646"/>
<rect x="1135.79" y="505.071" width="62.0714" height="62.0714" stroke="#464646"/>
<rect x="694.285" y="126.643" width="62.0714" height="62.0714" stroke="#464646"/>
<rect x="1577.29" y="126.643" width="62.0714" height="62.0714" stroke="#464646"/>
<rect x="694.285" y="505.071" width="62.0714" height="62.0714" stroke="#464646"/>
<rect x="1577.29" y="505.071" width="62.0714" height="62.0714" stroke="#464646"/>
<rect x="252.785" y="189.714" width="62.0714" height="62.0714" stroke="#464646"/>
<rect x="1135.79" y="189.714" width="62.0714" height="62.0714" stroke="#464646"/>
<rect x="252.785" y="568.143" width="62.0714" height="62.0714" stroke="#464646"/>
<rect x="1135.79" y="568.143" width="62.0714" height="62.0714" stroke="#464646"/>
<rect x="694.285" y="189.714" width="62.0714" height="62.0714" stroke="#464646"/>
<rect x="1577.29" y="189.714" width="62.0714" height="62.0714" stroke="#464646"/>
<rect x="694.285" y="568.143" width="62.0714" height="62.0714" stroke="#464646"/>
<rect x="1577.29" y="568.143" width="62.0714" height="62.0714" stroke="#464646"/>
<rect x="252.785" y="252.786" width="62.0714" height="62.0714" stroke="#464646"/>
<rect x="1135.79" y="252.786" width="62.0714" height="62.0714" stroke="#464646"/>
<rect x="252.785" y="631.214" width="62.0714" height="62.0714" stroke="#464646"/>
<rect x="1135.79" y="631.214" width="62.0714" height="62.0714" stroke="#464646"/>
<rect x="694.285" y="252.786" width="62.0714" height="62.0714" stroke="#464646"/>
<rect x="1577.29" y="252.786" width="62.0714" height="62.0714" stroke="#464646"/>
<rect x="694.285" y="631.214" width="62.0714" height="62.0714" stroke="#464646"/>
<rect x="1577.29" y="631.214" width="62.0714" height="62.0714" stroke="#464646"/>
<rect x="252.785" y="315.857" width="62.0714" height="62.0714" stroke="#464646"/>
<rect x="1135.79" y="315.857" width="62.0714" height="62.0714" stroke="#464646"/>
<rect x="252.785" y="694.286" width="62.0714" height="62.0714" stroke="#464646"/>
<rect x="1135.79" y="694.286" width="62.0714" height="62.0714" stroke="#464646"/>
<rect x="694.285" y="315.857" width="62.0714" height="62.0714" stroke="#464646"/>
<rect x="1577.29" y="315.857" width="62.0714" height="62.0714" stroke="#464646"/>
<rect x="694.285" y="694.286" width="62.0714" height="62.0714" stroke="#464646"/>
<rect x="1577.29" y="694.286" width="62.0714" height="62.0714" stroke="#464646"/>
<rect x="315.857" y="0.5" width="62.0714" height="62.0714" stroke="#464646"/>
<rect x="1198.86" y="0.5" width="62.0714" height="62.0714" stroke="#464646"/>
<rect x="315.857" y="378.929" width="62.0714" height="62.0714" stroke="#464646"/>
<rect x="1198.86" y="378.929" width="62.0714" height="62.0714" stroke="#464646"/>
<rect x="757.357" y="0.5" width="62.0714" height="62.0714" stroke="#464646"/>
<rect x="1640.36" y="0.5" width="62.0714" height="62.0714" stroke="#464646"/>
<rect x="757.357" y="378.929" width="62.0714" height="62.0714" stroke="#464646"/>
<rect x="1640.36" y="378.929" width="62.0714" height="62.0714" stroke="#464646"/>
<rect x="378.928" y="0.5" width="62.0714" height="62.0714" stroke="#464646"/>
<rect x="1261.93" y="0.5" width="62.0714" height="62.0714" stroke="#464646"/>
<rect x="378.928" y="378.929" width="62.0714" height="62.0714" stroke="#464646"/>
<rect x="1261.93" y="378.929" width="62.0714" height="62.0714" stroke="#464646"/>
<rect x="820.428" y="0.5" width="62.0714" height="62.0714" stroke="#464646"/>
<rect x="1703.43" y="0.5" width="62.0714" height="62.0714" stroke="#464646"/>
<rect x="820.428" y="378.929" width="62.0714" height="62.0714" stroke="#464646"/>
<rect x="1703.43" y="378.929" width="62.0714" height="62.0714" stroke="#464646"/>
<rect x="315.857" y="63.5713" width="62.0714" height="62.0714" stroke="#464646"/>
<rect x="1198.86" y="63.5713" width="62.0714" height="62.0714" stroke="#464646"/>
<rect x="315.857" y="442" width="62.0714" height="62.0714" stroke="#464646"/>
<rect x="1198.86" y="442" width="62.0714" height="62.0714" stroke="#464646"/>
<rect x="757.357" y="63.5713" width="62.0714" height="62.0714" stroke="#464646"/>
<rect x="1640.36" y="63.5713" width="62.0714" height="62.0714" stroke="#464646"/>
<rect x="757.357" y="442" width="62.0714" height="62.0714" stroke="#464646"/>
<rect x="1640.36" y="442" width="62.0714" height="62.0714" stroke="#464646"/>
<rect x="378.928" y="63.5713" width="62.0714" height="62.0714" stroke="#464646"/>
<rect x="1261.93" y="63.5713" width="62.0714" height="62.0714" stroke="#464646"/>
<rect x="378.928" y="442" width="62.0714" height="62.0714" stroke="#464646"/>
<rect x="1261.93" y="442" width="62.0714" height="62.0714" stroke="#464646"/>
<rect x="820.428" y="63.5713" width="62.0714" height="62.0714" stroke="#464646"/>
<rect x="1703.43" y="63.5713" width="62.0714" height="62.0714" stroke="#464646"/>
<rect x="820.428" y="442" width="62.0714" height="62.0714" stroke="#464646"/>
<rect x="1703.43" y="442" width="62.0714" height="62.0714" stroke="#464646"/>
<rect x="315.857" y="126.643" width="62.0714" height="62.0714" stroke="#464646"/>
<rect x="1198.86" y="126.643" width="62.0714" height="62.0714" stroke="#464646"/>
<rect x="315.857" y="505.071" width="62.0714" height="62.0714" stroke="#464646"/>
<rect x="1198.86" y="505.071" width="62.0714" height="62.0714" stroke="#464646"/>
<rect x="757.357" y="126.643" width="62.0714" height="62.0714" stroke="#464646"/>
<rect x="1640.36" y="126.643" width="62.0714" height="62.0714" stroke="#464646"/>
<rect x="757.357" y="505.071" width="62.0714" height="62.0714" stroke="#464646"/>
<rect x="1640.36" y="505.071" width="62.0714" height="62.0714" stroke="#464646"/>
<rect x="378.928" y="126.643" width="62.0714" height="62.0714" stroke="#464646"/>
<rect x="1261.93" y="126.643" width="62.0714" height="62.0714" stroke="#464646"/>
<rect x="378.928" y="505.071" width="62.0714" height="62.0714" stroke="#464646"/>
<rect x="1261.93" y="505.071" width="62.0714" height="62.0714" stroke="#464646"/>
<rect x="820.428" y="126.643" width="62.0714" height="62.0714" stroke="#464646"/>
<rect x="1703.43" y="126.643" width="62.0714" height="62.0714" stroke="#464646"/>
<rect x="820.428" y="505.071" width="62.0714" height="62.0714" stroke="#464646"/>
<rect x="1703.43" y="505.071" width="62.0714" height="62.0714" stroke="#464646"/>
<rect x="315.857" y="189.714" width="62.0714" height="62.0714" stroke="#464646"/>
<rect x="1198.86" y="189.714" width="62.0714" height="62.0714" stroke="#464646"/>
<rect x="315.857" y="568.143" width="62.0714" height="62.0714" stroke="#464646"/>
<rect x="1198.86" y="568.143" width="62.0714" height="62.0714" stroke="#464646"/>
<rect x="757.357" y="189.714" width="62.0714" height="62.0714" stroke="#464646"/>
<rect x="1640.36" y="189.714" width="62.0714" height="62.0714" stroke="#464646"/>
<rect x="757.357" y="568.143" width="62.0714" height="62.0714" stroke="#464646"/>
<rect x="1640.36" y="568.143" width="62.0714" height="62.0714" stroke="#464646"/>
<rect x="378.928" y="189.714" width="62.0714" height="62.0714" stroke="#464646"/>
<rect x="1261.93" y="189.714" width="62.0714" height="62.0714" stroke="#464646"/>
<rect x="378.928" y="568.143" width="62.0714" height="62.0714" stroke="#464646"/>
<rect x="1261.93" y="568.143" width="62.0714" height="62.0714" stroke="#464646"/>
<rect x="820.428" y="189.714" width="62.0714" height="62.0714" stroke="#464646"/>
<rect x="1703.43" y="189.714" width="62.0714" height="62.0714" stroke="#464646"/>
<rect x="820.428" y="568.143" width="62.0714" height="62.0714" stroke="#464646"/>
<rect x="1703.43" y="568.143" width="62.0714" height="62.0714" stroke="#464646"/>
<rect x="315.857" y="252.786" width="62.0714" height="62.0714" stroke="#464646"/>
<rect x="1198.86" y="252.786" width="62.0714" height="62.0714" stroke="#464646"/>
<rect x="315.857" y="631.214" width="62.0714" height="62.0714" stroke="#464646"/>
<rect x="1198.86" y="631.214" width="62.0714" height="62.0714" stroke="#464646"/>
<rect x="757.357" y="252.786" width="62.0714" height="62.0714" stroke="#464646"/>
<rect x="1640.36" y="252.786" width="62.0714" height="62.0714" stroke="#464646"/>
<rect x="757.357" y="631.214" width="62.0714" height="62.0714" stroke="#464646"/>
<rect x="1640.36" y="631.214" width="62.0714" height="62.0714" stroke="#464646"/>
<rect x="378.928" y="252.786" width="62.0714" height="62.0714" stroke="#464646"/>
<rect x="1261.93" y="252.786" width="62.0714" height="62.0714" stroke="#464646"/>
<rect x="378.928" y="631.214" width="62.0714" height="62.0714" stroke="#464646"/>
<rect x="1261.93" y="631.214" width="62.0714" height="62.0714" stroke="#464646"/>
<rect x="820.428" y="252.786" width="62.0714" height="62.0714" stroke="#464646"/>
<rect x="1703.43" y="252.786" width="62.0714" height="62.0714" stroke="#464646"/>
<rect x="820.428" y="631.214" width="62.0714" height="62.0714" stroke="#464646"/>
<rect x="1703.43" y="631.214" width="62.0714" height="62.0714" stroke="#464646"/>
<rect x="315.857" y="315.857" width="62.0714" height="62.0714" stroke="#464646"/>
<rect x="1198.86" y="315.857" width="62.0714" height="62.0714" stroke="#464646"/>
<rect x="315.857" y="694.286" width="62.0714" height="62.0714" stroke="#464646"/>
<rect x="1198.86" y="694.286" width="62.0714" height="62.0714" stroke="#464646"/>
<rect x="757.357" y="315.857" width="62.0714" height="62.0714" stroke="#464646"/>
<rect x="1640.36" y="315.857" width="62.0714" height="62.0714" stroke="#464646"/>
<rect x="757.357" y="694.286" width="62.0714" height="62.0714" stroke="#464646"/>
<rect x="1640.36" y="694.286" width="62.0714" height="62.0714" stroke="#464646"/>
<rect x="378.928" y="315.857" width="62.0714" height="62.0714" stroke="#464646"/>
<rect x="1261.93" y="315.857" width="62.0714" height="62.0714" stroke="#464646"/>
<rect x="378.928" y="694.286" width="62.0714" height="62.0714" stroke="#464646"/>
<rect x="1261.93" y="694.286" width="62.0714" height="62.0714" stroke="#464646"/>
<rect x="820.428" y="315.857" width="62.0714" height="62.0714" stroke="#464646"/>
<rect x="1703.43" y="315.857" width="62.0714" height="62.0714" stroke="#464646"/>
<rect x="820.428" y="694.286" width="62.0714" height="62.0714" stroke="#464646"/>
<rect x="1703.43" y="694.286" width="62.0714" height="62.0714" stroke="#464646"/>
</svg>
