<svg width="50" height="85" viewBox="0 0 50 85" fill="none" xmlns="http://www.w3.org/2000/svg">
<path d="M28.0049 43.2577C27.9461 43.2577 27.8874 43.2577 27.8286 43.2577C27.6522 43.2577 27.4758 43.2577 27.2407 43.2577C27.2407 43.1993 27.2407 43.0823 27.2407 43.0239C27.2407 42.4393 27.2407 41.7963 27.2407 41.2117C27.2407 41.0948 27.2407 40.9195 27.2407 40.8026C27.2407 40.5103 27.0055 40.3349 26.7704 40.2764C26.5352 40.2764 26.3588 40.218 26.1237 40.2764C26.0649 40.2764 25.9473 40.2764 25.8885 40.2764C25.6533 40.2764 25.4182 40.2764 25.2418 40.2764C24.8891 40.2764 24.5951 40.2764 24.2424 40.2764C23.8897 40.2764 23.8309 40.4518 23.7721 40.7441C23.7721 40.861 23.7721 40.9779 23.7721 41.0364C23.7721 41.7379 23.7721 42.4393 23.7721 43.1408C23.7721 43.1993 23.7721 43.2577 23.7721 43.3162C23.7721 43.4915 23.9484 43.6669 24.1248 43.6669C24.4188 43.6669 24.6539 43.6669 24.9479 43.6669C25.4182 43.6669 25.8885 43.6669 26.3 43.6669C26.4176 43.6669 26.594 43.6669 26.7116 43.6669C26.9467 43.6669 27.0055 43.7838 27.0055 44.0176C27.0055 44.5438 27.0055 45.1283 27.0055 45.6544C27.0055 45.7713 27.0055 45.8883 27.0055 46.0052C26.9467 46.239 26.7704 46.4144 26.4764 46.4144C26.3 46.4144 26.1237 46.4144 25.9473 46.4144C25.6533 46.4144 25.4182 46.2974 25.1242 46.2974C24.8891 46.2974 24.6539 46.2974 24.4188 46.2974C24.1836 46.3559 24.0072 46.5313 23.8897 46.7651C23.7721 46.9989 23.7133 47.2912 23.7133 47.5835C23.7133 47.8758 23.6545 48.2265 23.5957 48.5188C23.5957 48.8111 23.5957 49.0449 23.5957 49.3372C23.5957 49.571 23.7133 49.7464 23.8309 49.8633C23.8309 49.8633 23.8897 49.9217 23.9484 49.9802C24.0072 50.0387 24.1248 50.0971 24.1836 50.0971C24.2424 50.0971 24.36 50.0971 24.4188 50.0971C24.6539 50.0971 24.8891 50.0971 25.0654 50.0971C25.7709 50.0971 26.4764 50.0971 27.1819 50.0971C27.1819 50.0971 27.2407 50.0971 27.2995 50.0971C27.3582 49.1034 27.417 48.0511 27.4758 47.0574H27.5934C28.1225 47.0574 28.6516 47.0574 29.2395 47.0574C29.3571 47.0574 29.5335 47.0574 29.651 47.1743C29.8862 47.2327 30.0038 47.4081 30.0626 47.6419C30.0626 47.7589 30.0626 47.8758 30.0626 47.9927C30.0626 48.4019 30.0626 48.8111 30.0038 49.2203C30.0038 49.5125 30.0038 49.7464 30.2977 49.9217C30.2977 49.9217 30.4153 49.9802 30.4153 50.0387C30.5329 50.1556 30.6505 50.214 30.8268 50.214C31.2384 50.214 31.6499 50.214 32.0614 50.214C32.4142 50.214 32.7669 50.214 33.1196 50.214C33.296 50.214 33.4724 50.1556 33.59 49.9802C33.59 49.9217 33.7075 49.8048 33.7663 49.7464C33.8251 49.6295 33.9427 49.5125 34.0015 49.3956C34.1191 49.2203 34.1191 49.1034 34.0603 48.8695C33.9427 48.4019 33.8839 47.9342 33.8839 47.4666C33.8839 47.2912 33.8839 47.1158 33.7663 46.9405C33.7075 46.7651 33.5312 46.5897 33.3548 46.5313C33.2372 46.5313 33.1196 46.5313 33.0021 46.4728C33.0021 46.4728 33.0021 46.4728 32.9433 46.4728C32.9433 46.4728 32.8845 46.3559 32.8257 46.2974C32.473 46.2974 32.1202 46.3559 31.7675 46.4144C31.4147 46.4144 31.062 46.5313 30.7093 46.5313C30.7093 46.5313 30.7093 46.4728 30.7093 46.4144C30.7093 45.5375 30.7093 44.6607 30.7093 43.7838C30.7093 43.7838 30.7093 43.7838 30.8268 43.7838C31.2384 43.7838 31.6499 43.7838 32.0614 43.7838H32.179C32.473 43.7838 32.7081 43.7838 33.0021 43.7838C33.1196 43.7838 33.2372 43.7838 33.296 43.7838C33.5312 43.7838 33.6487 43.6669 33.7075 43.4331C33.7075 43.4331 33.7075 43.3162 33.7075 43.2577C33.7075 43.0239 33.7075 42.7316 33.7075 42.4978C33.7075 42.0301 33.7075 41.5625 33.7075 41.0948C33.7075 40.9779 33.7075 40.8026 33.7075 40.6856C33.7075 40.5103 33.59 40.3349 33.3548 40.218C33.2372 40.218 33.0609 40.218 32.9433 40.218C32.473 40.218 31.9438 40.218 31.4735 40.218C31.1208 40.218 30.7681 40.218 30.4153 40.2764C30.2977 40.2764 30.1214 40.3349 30.0038 40.3934C29.7686 40.5103 29.651 40.7441 29.5923 40.9779C29.5923 41.1533 29.5923 41.3287 29.5923 41.504C29.5923 41.6794 29.651 41.7963 29.7098 41.9717C29.7686 42.264 29.8862 42.6147 29.945 42.907C29.8274 42.907 29.7098 42.907 29.651 42.9654C29.0632 42.9654 28.4165 43.0823 27.8286 43.0823L28.0049 43.2577Z" fill="#D4D4D4"/>
<path d="M20.186 31.6833C20.186 32.4433 20.186 33.1447 20.186 33.9047C20.186 33.9047 20.186 34.0216 20.186 34.08C20.186 34.08 20.186 34.08 20.2448 34.08C20.4799 33.7878 20.7739 33.7878 21.1266 33.9047C21.2442 33.9047 21.3618 33.9631 21.4794 34.0216C21.8909 34.1385 22.2436 34.197 22.6551 34.1385C23.0079 34.1385 23.3018 33.9631 23.4782 33.6709C23.5958 33.4955 23.7134 33.3201 23.7722 33.0863C23.8309 32.794 23.8897 32.5602 23.8897 32.2679C23.8897 31.8587 23.8897 31.3911 23.8897 30.9819C23.8897 30.105 23.8897 29.2282 23.8309 28.3513C23.8309 28.2344 23.8309 28.059 23.8309 27.9421C23.8309 27.8252 23.8309 27.7083 23.8309 27.5914C23.8309 27.2991 23.5958 27.1237 23.3018 27.0653C23.1843 27.0653 23.0079 27.0653 22.8903 27.0653C21.1266 27.0653 19.3629 27.0653 17.5992 27.0653C17.5992 27.0653 17.4817 27.0653 17.4229 27.0653C17.1877 27.0653 17.0113 27.1822 16.8938 27.4745C16.6586 28.1175 16.541 28.7605 16.541 29.462C16.541 30.0466 16.6586 30.6311 16.835 31.2157C16.835 31.2157 16.835 31.3326 16.9525 31.3326C16.9525 31.3326 17.0701 31.2157 17.1289 31.1572C17.4817 30.8649 17.8932 30.6896 18.3635 30.6311C18.775 30.6311 19.1866 30.6311 19.5393 30.6311C20.0096 30.748 20.2448 31.0403 20.2448 31.4495C20.2448 31.508 20.2448 31.6249 20.2448 31.6833H20.186Z" fill="#D4D4D4"/>
<path d="M47.1696 6.89785C47.1108 6.89785 47.052 6.89785 46.9932 6.89785C45.5235 6.89785 44.0537 6.89785 42.584 6.89785C42.4076 6.89785 42.2313 6.89785 42.0549 6.89785C41.7609 6.89785 41.467 6.89785 41.2318 6.89785C40.9379 6.83939 40.7615 6.66402 40.7027 6.37174C40.7027 6.19637 40.7027 6.021 40.7027 5.84563C40.7027 4.38423 40.7027 2.92282 40.7027 1.46141C40.7027 1.28604 40.7027 1.16913 40.7027 0.993758C40.7027 0.759933 40.5263 0.526107 40.2324 0.467651C40.056 0.467651 39.9384 0.409194 39.7621 0.409194C39.233 0.409194 38.7039 0.467651 38.1748 0.526107C37.7632 0.526107 37.2929 0.526107 36.8814 0.584563C36.7638 0.584563 36.5874 0.584563 36.4699 0.584563C36.4699 0.584563 36.4111 0.584564 36.4699 0.701476C36.705 0.759933 36.9402 0.759933 37.2341 0.818389C37.2341 0.876845 37.2341 0.935302 37.2341 0.993758C37.2341 1.51987 37.2341 1.98752 37.2341 2.51362C37.2341 2.63054 37.2341 2.8059 37.2341 2.92282C37.1753 3.27356 36.999 3.50738 36.6462 3.56584C36.5286 3.56584 36.4111 3.56584 36.2935 3.56584C35.9995 3.56584 35.7644 3.56584 35.4704 3.56584C35.2941 3.56584 35.0589 3.56584 34.8825 3.56584C34.5298 3.56584 34.3534 3.33201 34.2946 2.98127C34.2946 2.8059 34.2946 2.63054 34.2358 2.45517C34.2358 2.10443 34.2358 1.69523 34.2358 1.3445C34.2358 1.28604 34.2358 1.16913 34.2358 1.11067C34.2358 0.701476 34.0007 0.467651 33.5304 0.350738C33.4716 0.350738 33.4128 0.350738 33.354 0.350738C33.2364 0.350738 33.06 0.350738 32.9425 0.350738C31.943 0.350738 30.9436 0.350738 30.003 0.350738C29.2387 0.350738 28.4157 0.350738 27.6514 0.350738C27.2987 0.350738 26.9459 0.350738 26.652 0.350738C25.7701 0.350738 24.8883 0.350738 24.0064 0.350738C23.1246 0.350738 22.3015 0.350738 21.4197 0.292282C20.8318 0.292282 20.2439 0.175369 19.656 0.0584564C19.362 0 19.0093 0 18.7154 0C18.3626 0 18.0099 0 17.6571 0.0584564C17.1868 0.0584564 16.7753 0.175369 16.305 0.233825C15.7759 0.233825 15.3055 0.292282 14.7764 0.350738C14.6589 0.350738 14.5413 0.350738 14.4237 0.409194C14.1298 0.526107 13.9534 0.759933 13.9534 1.11067C13.9534 1.16913 13.9534 1.28604 13.9534 1.3445C13.9534 1.8706 13.9534 2.39671 13.9534 2.92282C13.9534 3.15664 13.8358 3.33201 13.6594 3.44892C13.5419 3.56584 13.3655 3.56584 13.2479 3.56584C12.8364 3.50738 12.4248 3.56584 12.0133 3.56584C11.6606 3.56584 11.3078 3.56584 11.0139 3.56584C10.6024 3.56584 10.1908 3.44892 9.8381 3.2151C9.77931 3.2151 9.66173 3.09819 9.60294 3.03973C9.60294 3.03973 9.48536 3.03973 9.48536 3.15664C9.60294 3.27356 9.77931 3.39047 9.95568 3.56584C10.0733 3.68275 10.1908 3.79966 10.3084 3.91658C10.426 4.03349 10.4848 4.1504 10.4848 4.32577C10.5436 4.79342 10.5436 5.20262 10.4848 5.67027C10.4848 5.96255 10.2496 6.13792 10.0145 6.19637C9.95568 6.19637 9.8381 6.19637 9.77931 6.19637C9.2502 6.19637 8.72109 6.19637 8.19199 6.19637C7.78046 6.19637 7.36893 6.19637 6.9574 6.19637C6.78103 6.19637 6.66345 6.19637 6.48708 6.25483C6.48708 6.37174 6.48708 6.4302 6.54587 6.4302H6.66345C6.83982 6.48865 6.9574 6.48865 7.13377 6.60557C7.13377 6.60557 7.13377 6.66402 7.13377 6.72248C7.13377 7.13167 7.13377 7.54087 7.13377 7.95006C7.13377 8.18389 7.13377 8.35926 7.13377 8.59308C7.07498 9.00228 7.01619 9.46993 6.89861 9.87912C6.89861 9.99604 6.89861 10.0545 6.72224 10.0545C6.54587 10.0545 6.42829 10.0545 6.25193 10.0545C5.78161 10.0545 5.37008 10.0545 4.89976 10.0545C4.78218 10.0545 4.6646 10.0545 4.54702 10.0545C4.19428 10.1129 4.01791 10.3468 3.95912 10.6975C3.95912 10.9898 3.95912 11.2821 3.95912 11.5744C3.95912 12.1005 4.13549 12.685 4.13549 13.2111C4.13549 13.2111 4.13549 13.328 4.13549 13.3865C4.37065 13.5619 4.54702 13.7372 4.84097 13.7372C4.95855 13.7372 5.13492 13.7372 5.2525 13.7372C5.54645 13.7372 5.8404 13.7372 6.07556 13.7372C6.25193 13.7372 6.42829 13.7957 6.60466 13.9126C6.83982 14.0295 7.01619 14.2633 7.13377 14.4972C7.13377 14.6725 7.25135 14.8479 7.25135 15.0233C7.25135 15.4909 7.25135 15.9001 7.19256 16.3678C7.19256 16.5431 7.07498 16.6016 6.9574 16.6601C6.83982 16.6601 6.72224 16.6601 6.66345 16.6601C6.07556 16.6601 5.48766 16.6601 4.89976 16.6601H4.78218C4.78218 16.6601 4.78218 16.6016 4.72339 16.5431C4.42944 16.6601 4.19428 16.777 4.01791 17.0108C3.78276 17.3031 3.66518 17.6538 3.72397 18.0046C3.84155 18.706 4.01791 19.3491 4.19428 20.0505C4.19428 20.2259 4.25307 20.3428 4.37065 20.4597C4.37065 20.4597 4.42944 20.4597 4.48823 20.4597C5.2525 20.3428 6.01677 20.2844 6.72224 20.2844C7.13377 20.2844 7.60409 20.2844 8.01562 20.2844C8.72109 20.2844 9.36778 20.2844 10.0733 20.3428C10.132 20.3428 10.1908 20.3428 10.3084 20.3428C10.426 21.0443 10.426 21.6873 10.4848 22.3888C10.5436 23.0318 10.6024 23.7333 10.6024 24.3763C10.6024 25.0193 10.7199 25.7208 10.7199 26.4223C10.6612 26.4223 10.5436 26.4223 10.4848 26.4223C10.132 26.3638 9.72052 26.3054 9.36778 26.2469C9.07383 26.2469 8.83867 26.13 8.54473 26.13C8.42715 26.13 8.30957 26.13 8.19199 26.2469C8.01562 26.4223 7.89804 26.5392 7.78046 26.7145C7.72167 26.8315 7.66288 26.8899 7.5453 26.9484C7.42772 26.9484 7.36893 27.1237 7.36893 27.2407C7.36893 27.2991 7.36893 27.416 7.36893 27.4745C7.36893 27.9421 7.36893 28.4682 7.36893 28.9359C7.36893 29.6374 7.36893 30.2804 7.36893 30.9819C7.36893 31.3911 7.36893 31.8003 7.31014 32.151C7.31014 32.3264 7.25135 32.4433 7.19256 32.5602C7.19256 32.6186 7.07498 32.7356 7.07498 32.794C7.13377 32.9109 7.25135 32.9694 7.31014 33.0863C7.31014 33.0863 7.25135 33.0863 7.19256 33.0863C6.72224 33.0863 6.25193 33.0863 5.78161 33.0863C5.66403 33.0863 5.54645 33.0863 5.42887 33.0863C5.19371 33.0863 4.95855 33.0278 4.78218 33.0278C4.37065 33.0278 4.19428 33.1447 4.13549 33.5539C4.13549 33.5539 4.13549 33.5539 4.13549 33.6124C4.13549 33.7878 4.13549 33.9631 4.13549 34.1385C4.13549 34.8984 4.13549 35.6584 4.13549 36.4183C4.13549 36.4768 4.13549 36.5937 4.13549 36.6521C4.13549 36.769 4.25307 36.886 4.42944 36.886C4.54702 36.886 4.6646 36.886 4.78218 36.886C5.2525 36.769 5.66403 36.769 6.13435 36.769C6.48708 36.769 6.89861 36.769 7.25135 36.769C7.31014 36.769 7.42772 36.769 7.48651 36.769C7.48651 36.886 7.48651 36.9444 7.48651 37.0613C7.48651 37.9382 7.48651 38.815 7.48651 39.6919C7.48651 39.7503 7.48651 39.8088 7.48651 39.8672C7.48651 39.8672 7.60409 39.8672 7.60409 39.9257C7.78046 40.0426 7.95683 40.0426 8.1332 40.0426C8.25078 40.0426 8.36836 40.0426 8.48594 40.0426C9.13262 40.1595 9.72052 40.2764 10.3084 40.3933C10.4848 40.3933 10.6024 40.4518 10.7787 40.5102C10.7787 40.7441 10.7787 40.9194 10.7787 41.1533C10.7787 43.8423 10.7787 46.5313 10.7787 49.2787C10.7787 49.3372 10.7787 49.4541 10.7787 49.5125C10.7787 49.8048 11.0139 49.9802 11.3078 50.0386H11.4254C12.1309 50.0386 12.7776 50.0386 13.4831 50.0386C13.6006 50.0386 13.7182 50.0386 13.8358 50.0386C13.8358 50.0386 13.9534 50.0386 14.0122 50.0386C14.0122 50.0971 14.0122 50.214 14.0122 50.2725C14.0122 50.5647 14.0122 50.9155 14.0122 51.2078C13.8946 51.0908 13.8358 50.857 13.6006 50.6817C13.6006 50.7986 13.6006 50.857 13.6006 50.9155C13.6006 52.2015 13.6006 53.546 13.6006 54.8321C13.6006 55.2412 13.6006 55.6504 13.6006 56.0596C13.6006 56.7611 13.6594 57.4626 13.6594 58.1641C13.6594 58.9825 13.6594 59.8008 13.7182 60.6777C13.7182 60.8531 13.7182 61.0284 13.7182 61.1453C13.7182 61.7884 13.7182 62.3729 13.7182 63.0159C13.7182 63.542 13.6006 64.1266 13.5419 64.6527C13.5419 64.945 13.5419 65.2373 13.5419 65.5296C13.5419 65.8803 13.7182 66.1726 14.071 66.4064C14.071 66.4064 14.1885 66.4649 14.2473 66.5233C14.3649 66.6402 14.4825 66.6987 14.6001 66.6987C15.3643 66.6987 16.1874 66.6987 16.9517 66.6987C17.128 66.6987 17.2456 66.6402 17.3632 66.5233C17.4808 66.348 17.5983 66.1141 17.5983 65.8803C17.5983 65.7634 17.5983 65.6465 17.5983 65.5296C17.5983 65.2957 17.5983 65.1204 17.5983 64.8865C17.5983 64.1266 17.7159 63.3082 17.7747 62.5483C17.7747 61.9637 17.7747 61.4376 17.8335 60.8531C17.8335 60.7361 17.8335 60.6777 17.8335 60.5608C17.8335 59.8593 17.8335 59.2163 17.8335 58.5148C17.8335 57.8133 17.7159 57.1119 17.7159 56.3519C17.7159 56.1766 17.7159 55.9427 17.7159 55.7674C17.7159 54.7736 17.7159 53.7798 17.7159 52.8445C17.7159 52.3184 17.6571 51.7339 17.5983 51.2078C17.5396 50.6232 17.4808 49.9802 17.3632 49.3956C17.3632 49.2787 17.3632 49.1618 17.3044 49.0449C17.1868 49.1618 17.0692 49.3372 16.9517 49.4541C16.8341 49.6294 16.7165 49.6879 16.5401 49.6879C16.4226 49.6879 16.305 49.6879 16.2462 49.6879C15.7171 49.6879 15.188 49.6879 14.6001 49.6879C14.6001 49.6879 14.4825 49.6879 14.4237 49.6879C14.3061 49.2787 14.3061 49.2202 14.3649 48.7526C14.3649 48.5772 14.3649 48.4019 14.3649 48.2265C14.3649 47.9927 14.3649 47.7004 14.4237 47.4666C14.4237 46.9989 14.5413 46.5897 14.5413 46.1221C14.5413 45.1868 14.5413 44.2515 14.5413 43.3162C14.5413 42.4393 14.4825 41.6209 14.4237 40.7441C14.4237 39.9257 14.4237 39.1073 14.3649 38.2889C14.3649 38.2305 14.3649 38.172 14.3649 38.1135C14.3649 37.1782 14.3061 36.2429 14.3061 35.3076C14.3061 34.8984 14.3061 34.4892 14.3061 34.1385C14.3061 33.9631 14.3061 33.8462 14.3061 33.6709C14.2473 33.3786 14.071 33.1447 13.6594 33.0863C13.5419 33.0863 13.4243 33.0863 13.3067 33.0863C12.7188 33.0863 12.1897 33.0863 11.6018 33.0863C11.543 33.0863 11.4842 33.0863 11.3666 33.0863C11.3666 32.9694 11.3666 32.9109 11.3666 32.794C11.3666 31.5664 11.3666 30.2804 11.3666 29.0528C11.3666 28.5852 11.3666 28.1175 11.3666 27.6499C11.3666 27.4745 11.3666 27.3576 11.4842 27.1822C11.6018 26.9484 11.837 26.773 12.0721 26.773C12.1309 26.773 12.2485 26.773 12.3073 26.773C12.6012 26.773 12.954 26.773 13.2479 26.773C13.5419 26.773 13.8946 26.773 14.1885 26.773C14.1885 26.773 14.1885 26.773 14.3061 26.773C14.3061 26.5976 14.3061 26.3638 14.3061 26.1884C14.3061 25.9546 14.3061 25.7792 14.3061 25.5454C14.3061 25.3701 14.3061 25.1362 14.3061 24.9609C14.3061 24.727 14.3061 24.5517 14.3061 24.3178C14.3061 24.1425 14.3061 23.9086 14.3061 23.7333C14.4825 23.7333 14.6589 23.7333 14.7764 23.6748C15.0704 23.6748 15.3643 23.6164 15.7171 23.5579C16.0698 23.5579 16.3638 23.441 16.7165 23.4995C16.7753 23.4995 16.8929 23.4995 16.9517 23.4995C17.1868 23.441 17.3632 23.441 17.5983 23.3825C17.5983 23.3825 17.7159 23.3825 17.7747 23.3825C17.7747 23.3825 17.7747 23.3241 17.7747 23.2656C17.7747 22.8564 17.7159 22.5057 17.6571 22.0965C17.6571 21.6873 17.5983 21.2781 17.5983 20.8689C17.5983 20.752 17.5983 20.5766 17.5983 20.4597C17.5983 20.2844 17.7159 20.2259 17.8923 20.2259C18.0099 20.2259 18.1862 20.2259 18.3038 20.2259C18.7154 20.2844 19.1269 20.4013 19.5384 20.4013C19.8911 20.4013 20.1851 20.4597 20.5378 20.5182C20.6554 20.5182 20.773 20.5182 20.9494 20.5182C20.9494 20.4013 20.9494 20.3428 20.9494 20.2259C20.9494 19.5244 20.9494 18.8814 20.9494 18.1799C20.9494 17.9461 20.9494 17.7123 20.9494 17.4784C20.9494 17.3615 20.9494 17.3031 21.0669 17.2446C21.3021 17.0108 21.596 16.8939 21.89 16.8939C22.5955 16.8939 23.301 16.8939 24.0652 17.0108C24.5943 17.0108 25.1822 17.0108 25.7113 17.0693C25.9465 17.0693 26.2404 17.0693 26.4756 17.0693C26.4756 17.0693 26.5344 17.0693 26.5932 17.0693C26.652 17.1862 26.7108 17.3031 26.7108 17.42C26.7108 17.5954 26.7108 17.8292 26.7695 18.0046C26.7695 18.4138 26.8871 18.8814 26.9459 19.2906C26.9459 19.8167 27.0635 20.4013 27.1223 20.9274C27.1223 21.2197 27.1223 21.5119 27.1811 21.8042C27.1811 22.155 27.1811 22.5057 27.2399 22.798C27.2399 22.9733 27.2399 23.1487 27.3574 23.3241C27.4162 23.5579 27.5926 23.6748 27.8278 23.6748C27.9453 23.6748 28.0629 23.6748 28.1217 23.6748C28.4744 23.6748 28.7684 23.5579 29.1211 23.4995C29.4739 23.441 29.8266 23.3825 30.1794 23.3241C30.2969 23.3241 30.4145 23.2656 30.5321 23.1487C30.9436 22.7395 31.2376 22.2719 31.3551 21.6873C31.4139 21.3366 31.4727 20.9858 31.4727 20.6351C31.4727 19.8752 31.4727 19.1152 31.4139 18.2968C31.4139 17.5369 31.3551 16.777 31.2964 16.017C31.2964 15.1987 31.2376 14.4387 31.1788 13.6203V13.5034C31.1788 13.5034 31.2376 13.5034 31.2964 13.5034C31.943 13.5034 32.5309 13.5034 33.1776 13.5034H33.2952C33.2952 13.8542 33.2952 14.2049 33.354 14.5556C33.354 15.0233 33.354 15.4909 33.4128 16.017C33.4128 16.0755 33.4128 16.1924 33.4128 16.2509C33.4128 16.3678 33.4128 16.3678 33.5892 16.3093V15.4909C33.5892 15.1987 33.5892 14.9064 33.5892 14.6725C33.5892 14.3803 33.5892 14.088 33.5892 13.8542C33.5892 13.8542 33.6479 13.8542 33.7067 13.8542C33.7067 13.8542 33.7655 13.8542 33.8243 13.8542C33.8243 14.4387 33.8831 15.0233 33.8243 15.6663C33.8243 15.8417 33.8243 16.0755 33.8243 16.2509C33.8831 16.4847 34.0595 16.6601 34.2946 16.777C34.471 16.777 34.5886 16.8354 34.765 16.777C35.2353 16.777 35.7056 16.777 36.1171 16.777C36.1759 16.777 36.2935 16.777 36.3523 16.777C36.3523 16.8939 36.3523 17.0108 36.3523 17.1277C36.3523 18.1799 36.3523 19.2321 36.3523 20.2844C36.3523 20.3428 36.3523 20.4597 36.3523 20.5182C36.3523 20.5182 36.3523 20.5182 36.3523 20.5766C36.3523 20.5182 36.3523 20.4597 36.3523 20.4013C36.3523 20.0505 36.3523 19.6998 36.4111 19.4075C36.4111 18.9399 36.4699 18.4722 36.5286 18.0046C36.5286 17.7707 36.5286 17.5369 36.5874 17.3031C36.7638 17.3031 36.7638 17.3031 36.7638 17.42C36.7638 17.5954 36.7638 17.8292 36.7638 18.0046C36.7638 18.4722 36.8226 18.8814 36.8814 19.3491C36.8814 19.5829 36.8814 19.8167 36.9402 20.0505C36.9402 20.0505 36.999 20.0505 37.0578 20.0505C37.5281 20.0505 38.0572 20.0505 38.5275 20.0505C38.7039 20.0505 38.939 20.0505 39.1154 20.0505C39.233 20.0505 39.3506 20.0505 39.4681 20.0505C39.8209 20.0505 39.9972 20.3428 39.9972 20.6351C39.9972 20.752 39.9972 20.9274 39.9972 21.0443C39.9972 21.6873 39.9972 22.3303 39.9972 23.0318C39.9972 23.5579 39.9972 24.0256 39.9972 24.5517C39.9972 24.9024 39.9972 25.2531 39.9972 25.5454C39.9385 26.0131 39.6445 26.2469 39.233 26.3638C38.9978 26.4223 38.7039 26.4223 38.4687 26.4223C37.5281 26.4223 36.6462 26.4223 35.7056 26.4223C35.1765 26.4223 34.5886 26.4223 34.0595 26.4223C34.0007 26.4223 33.8831 26.4223 33.8243 26.4223C33.7067 26.1884 33.7067 25.8962 33.5892 25.6623C33.4716 26.0131 33.2952 26.3638 33.1776 26.7145C33.0601 27.0653 33.0601 27.416 33.0601 27.7668C33.1188 28.2344 33.1776 28.7021 33.2364 29.2282C33.2364 29.4035 33.2952 29.5789 33.4128 29.7543C33.5304 29.9881 33.7067 30.1635 34.0007 30.2219C34.2358 30.2219 34.4122 30.2219 34.6474 30.2219C34.8237 30.2219 35.0001 30.1635 35.1177 30.1635C35.588 30.1635 35.9995 30.1635 36.4699 30.105C36.4699 30.105 36.5874 30.105 36.6462 30.105C36.6462 30.1635 36.6462 30.2804 36.6462 30.3388C36.6462 30.6311 36.6462 30.9819 36.5874 31.2741C36.5874 31.6249 36.5286 32.0341 36.4699 32.3848C36.4699 32.7356 36.4699 33.1447 36.4111 33.4955C36.4111 33.4955 36.4111 33.6124 36.4111 33.6709C36.4699 33.6709 36.5286 33.5539 36.6462 33.5539C36.8814 33.437 37.1165 33.3201 37.4105 33.3786C37.5281 33.3786 37.7044 33.3786 37.822 33.3786C37.9396 33.3786 38.0572 33.3786 38.1748 33.3786C38.4687 33.3786 38.7039 33.3786 38.9978 33.3786C38.9978 33.3786 38.9978 33.4955 39.0566 33.5539C39.1742 34.0216 39.2918 34.4892 39.4093 34.9569C39.4681 35.4245 39.5857 35.8922 39.5857 36.3598C39.5857 36.8275 39.6445 37.3536 39.7033 37.8213C39.7033 38.5812 39.7033 39.3996 39.7033 40.1595C39.7033 40.6272 39.7033 41.0948 39.6445 41.5625C39.6445 41.8547 39.6445 42.147 39.5857 42.4393C39.5857 42.907 39.5269 43.3162 39.4681 43.7838C39.4681 44.193 39.4681 44.6022 39.4093 45.0114C39.4093 45.479 39.4093 45.9467 39.4093 46.4143C39.4093 46.5313 39.4093 46.5897 39.4093 46.7066C39.4093 46.5897 39.4093 46.4728 39.4093 46.4143C39.4093 46.0636 39.4093 45.7129 39.4681 45.3621C39.4681 44.9529 39.5269 44.5437 39.5857 44.1345C39.5857 43.7838 39.5857 43.3746 39.6445 43.0239C39.6445 42.907 39.6445 42.8485 39.6445 42.7316C39.6445 42.7316 39.7033 42.7316 39.7621 42.7316C39.7621 42.7316 39.7621 42.7316 39.8797 42.7316C39.8797 43.1992 39.8797 49.1033 39.8797 49.3372C39.7621 49.3372 39.6445 49.3372 39.5269 49.3956C39.3506 49.3956 39.1742 49.3956 38.9978 49.3956C38.5275 49.3956 38.0572 49.4541 37.5869 49.5125C37.2341 49.5125 36.8226 49.5125 36.4699 49.571C36.4111 49.571 36.3523 49.571 36.2935 49.6294C36.2935 49.6294 36.2935 49.6294 36.2935 49.6879C36.3523 50.0971 36.4111 50.5647 36.4699 50.9739C36.5286 51.4416 36.5874 51.9092 36.6462 52.4353C36.6462 52.6692 36.5286 52.8445 36.2935 52.903C36.2347 52.903 36.1171 52.903 36.0583 52.903C35.588 52.903 35.1765 52.903 34.7062 52.903C34.4122 52.903 34.0595 52.8445 33.7655 52.7861C33.6479 52.7861 33.5304 52.7861 33.4128 52.7861C33.2952 52.7861 33.1776 52.903 33.1776 53.0199C33.1776 53.1368 33.1776 53.3122 33.1776 53.4291C33.1776 53.7798 33.2364 54.1306 33.2952 54.5398C33.2952 55.0074 33.354 55.4751 33.354 55.9427C33.354 55.9427 33.354 56.0596 33.354 56.1181H24.5943C24.5355 56.1181 24.418 56.1181 24.3592 56.1181C24.3592 56.1181 24.2416 56.1181 24.1828 56.1181C24.1828 55.8258 24.1828 55.592 24.1828 55.2997C24.1828 55.0659 24.1828 54.7736 24.1828 54.5398C24.1828 54.3059 24.1828 54.0137 24.1828 53.7798C24.1828 53.546 24.1828 53.2537 24.1828 53.0199C24.124 53.0199 24.0652 53.0199 24.0064 53.0199C23.2422 53.0199 22.5367 53.0199 21.7724 53.0199C21.5373 53.0199 21.2433 53.0199 21.0082 53.0199C20.7142 53.0199 20.479 53.1368 20.3027 53.3706C20.1851 53.4876 20.1263 53.6045 20.1851 53.7214C20.1851 54.0137 20.2439 54.2475 20.3027 54.5398C20.3615 55.0074 20.479 55.4751 20.4203 56.0012C20.4203 56.2935 20.4203 56.5273 20.7142 56.7611C20.773 56.7611 20.8906 56.7611 21.0082 56.7611C21.1257 56.7611 21.2433 56.7611 21.3609 56.7611C21.7136 56.7611 22.0664 56.8196 22.4191 56.878C22.7131 56.878 23.0658 56.878 23.3597 56.9365C23.4773 56.9365 23.5949 56.9365 23.7125 56.9365C23.7125 56.9949 23.7125 57.1119 23.7125 57.1703C23.7125 57.8133 23.7125 58.4563 23.7125 59.0994C23.7125 59.1578 23.7125 59.2747 23.7125 59.3332C23.7125 59.6255 23.9476 59.8593 24.2416 59.9178C24.3004 59.9178 24.418 59.9178 24.4767 59.9178C24.7707 59.9178 25.0646 59.9178 25.3586 59.9178C25.7113 59.9178 26.0641 59.9178 26.358 59.9762C26.4756 59.9762 26.5932 59.9762 26.7108 60.0931C26.8871 60.1516 27.0047 60.327 27.0047 60.5023C27.0047 60.5608 27.0047 60.6777 27.0047 60.7361C27.0047 61.3792 27.0047 62.0806 27.0047 62.7237C27.0047 63.4836 27.0047 64.1851 26.8871 64.945C26.8871 65.3542 26.8871 65.7634 27.1223 66.1141C27.2399 66.348 27.4162 66.4649 27.7102 66.4649C28.3569 66.4649 29.0036 66.4649 29.6502 66.4649C29.8266 66.4649 29.9442 66.4649 30.1206 66.4649C30.2381 66.4649 30.3557 66.4649 30.4733 66.4649C30.7672 66.4649 31.0612 66.4649 31.2964 66.4649C31.4727 66.4649 31.6491 66.348 31.7079 66.1726C31.5903 66.1726 31.4727 66.1141 31.3551 66.0557C31.0024 65.9388 30.7673 65.6465 30.7085 65.2957C30.7085 65.1204 30.6497 64.945 30.7085 64.8281C30.7085 64.5358 30.7085 64.1851 30.7085 63.8928C30.7085 63.659 30.7085 63.4251 30.7085 63.1913C30.7085 62.4314 30.7085 61.6714 30.7085 60.8531C30.7085 60.7361 30.7085 60.5608 30.7085 60.4439C30.7085 60.2685 30.8848 60.0931 31.0612 60.0931C31.1788 60.0931 31.2964 60.0931 31.4139 60.0347C31.8843 60.0347 32.3546 59.9178 32.8249 59.9762C33.1188 59.9762 33.4128 59.9178 33.6479 59.8008C33.8831 59.6839 34.0595 59.5086 34.1183 59.2747C34.1183 59.0994 34.1183 58.924 34.1183 58.8071C34.1183 58.281 34.1183 57.7549 34.1183 57.2288C34.1771 57.2288 34.2946 57.2288 34.3534 57.1703C34.8237 57.0534 35.2353 56.9949 35.7056 56.878C35.9995 56.8196 36.2935 56.7611 36.5874 56.7611C36.705 56.7611 36.8226 56.7611 36.8814 56.5857C36.9402 56.4688 37.0578 56.4104 37.1753 56.3519C37.4693 56.1766 37.5869 55.9427 37.6457 55.592C37.7044 55.2997 37.6457 54.949 37.6457 54.6567C37.6457 54.4229 37.6457 54.1306 37.6457 53.8968C37.6457 53.7798 37.6456 53.6045 37.7044 53.4876C37.7044 53.4876 37.7632 53.4876 37.822 53.4876C38.116 53.4876 38.4687 53.4876 38.7627 53.4876C39.1742 53.4876 39.6445 53.4876 40.056 53.546C40.1736 53.546 40.2912 53.546 40.4088 53.546C40.7027 53.546 40.8203 53.3706 40.8203 53.0784C40.8203 52.9614 40.8203 52.903 40.8203 52.7861C40.8203 52.6692 40.8203 52.4938 40.8203 52.3769C40.8203 52.1431 40.8203 51.9092 40.8203 51.7339C40.8203 51.5585 40.8203 51.3247 40.8791 51.1493C40.9379 50.7401 41.173 50.4478 41.5846 50.2725C41.8197 50.214 41.9961 50.1555 42.29 50.1555C42.4664 50.1555 42.7016 50.1555 42.8779 50.1555C43.1523 50.1555 43.407 50.0971 43.6422 49.9802C43.9949 49.7464 44.1713 49.4541 44.1125 49.0449C44.1125 48.8695 44.1125 48.7526 43.9949 48.5772C43.8186 48.168 43.8186 47.7004 43.8774 47.2327C43.8774 46.882 43.9362 46.5897 43.9949 46.239C43.9949 45.7129 44.0537 45.2452 44.1125 44.7191C44.1125 44.1345 44.2301 43.55 44.2301 42.907C44.2301 41.9717 44.2301 41.0948 44.1713 40.1595C44.1713 39.5749 44.1125 39.0488 44.0537 38.4643C44.0537 37.8797 44.0537 37.3536 43.9949 36.769C43.9949 36.0676 43.9362 35.3661 43.9362 34.6062C43.9362 32.5602 43.9362 30.4558 43.9362 28.4098C43.9362 26.5392 43.9362 24.6101 43.9362 22.7395C43.9362 22.2134 43.9362 21.7458 43.9362 21.2197C43.9362 21.0443 43.9362 20.8105 43.9362 20.6351C43.9362 20.5182 43.9362 20.4013 43.9949 20.3428C44.1125 20.3428 44.2301 20.3428 44.2889 20.3428C44.8768 20.3428 45.4647 20.3428 46.1114 20.3428C46.4053 20.3428 46.6405 20.2259 46.8756 19.9921C47.052 19.8752 47.1108 19.6998 47.1108 19.466C47.1108 19.0568 47.1108 18.5891 47.052 18.1799C47.052 17.6538 46.9932 17.1862 46.9344 16.6601C46.9344 16.4847 46.9344 16.3678 46.9344 16.2509C46.9344 16.1924 46.9344 16.0755 46.9932 16.017C46.9932 16.017 46.9932 15.9001 46.9932 15.8417C46.6405 15.8417 46.2877 15.8417 45.935 15.8417C45.5823 15.8417 45.2295 15.8417 44.9356 15.8417C44.5828 15.8417 44.2301 15.8417 43.8774 15.8417C43.8774 15.7248 43.8774 15.6663 43.8774 15.5494C43.8774 13.9711 43.8774 12.4512 43.8774 10.8729C43.8774 10.8144 43.8774 10.6975 43.8774 10.6391C43.8774 10.4637 43.9949 10.2883 44.2301 10.2299C44.3477 10.2299 44.5241 10.2299 44.6416 10.2299C45.1707 10.2299 45.6998 10.2883 46.229 10.2299C46.4053 10.2299 46.5817 10.1714 46.7581 10.0545C46.9344 9.93758 47.052 9.82067 47.052 9.58684C47.052 8.65154 47.052 7.71624 47.052 6.78094C47.052 6.78094 47.052 6.66402 47.052 6.60557L47.1696 6.89785Z" fill="#D4D4D4"/>
<path d="M24.4802 80.6235C24.4213 80.448 24.4802 80.3309 24.4802 80.1554C24.4802 79.1608 24.4802 78.1662 24.4802 77.1715C24.4802 76.8205 24.4802 76.5279 24.4802 76.1769C24.4802 76.1769 24.4802 76.0599 24.4802 76.0014C24.3625 76.0014 24.2448 76.0014 24.1271 76.0014C24.0683 76.0014 24.0094 76.0014 23.9506 76.0014C23.8329 75.8844 23.7152 75.9429 23.5975 76.0014C23.5387 76.0014 23.421 76.0014 23.3622 76.0014C23.3622 76.0014 23.2445 76.0014 23.2445 75.9429C23.2445 76.0014 23.1268 76.1184 23.0091 76.0599C22.8914 76.0599 22.8326 76.0599 22.7149 76.0599C22.7149 76.1769 22.5384 76.1769 22.4207 76.1769C22.4796 76.1769 22.5384 76.1769 22.5972 76.1769C22.7149 76.2939 22.7738 76.4109 22.6561 76.5865C22.6561 76.645 22.6561 76.762 22.6561 76.879C22.6561 76.9375 22.6561 76.996 22.6561 77.0545C22.6561 77.5226 22.6561 77.9906 22.6561 78.4587C22.6561 78.6927 22.6561 78.9268 22.6561 79.2193C22.6561 79.1023 22.6561 79.0438 22.6561 78.9268V79.2778C22.6561 79.6874 22.6561 80.0384 22.6561 80.448C22.6561 80.682 22.6561 80.916 22.5384 81.0915V81.2086C22.5384 81.2086 22.4207 81.2086 22.4207 81.2671C22.4207 81.2671 22.303 81.2671 22.303 81.3841C22.4207 81.3841 22.4796 81.2671 22.5972 81.3256C22.5972 81.3256 22.5972 81.3841 22.5972 81.4426C22.4207 81.8521 22.0677 82.0862 21.5969 82.2032C21.3616 82.2617 21.0674 82.2617 20.832 82.3202C20.7143 82.3202 20.5966 82.3202 20.479 82.2617C20.5378 82.2617 20.5966 82.2617 20.7143 82.2032C20.5378 82.2032 20.3613 82.2032 20.2436 82.2032C20.1259 82.2032 20.0082 82.2032 19.9494 82.2032C19.714 82.0862 19.5375 81.9106 19.4198 81.6181C19.4198 81.5596 19.4198 81.4426 19.3021 81.4426C19.1844 81.3841 19.1844 81.2671 19.1844 81.2086C19.1844 81.033 19.1844 80.8575 19.1844 80.682C19.1844 80.448 19.1844 80.2139 19.1844 79.9214C19.1844 79.5118 19.1844 79.0438 19.1844 78.6342C19.1844 78.4587 19.1844 78.4587 19.3021 78.2832C19.3021 78.3417 19.3021 78.4587 19.3021 78.5172C19.2433 78.7512 19.3021 79.0438 19.3021 79.2778C19.3021 79.3948 19.3021 79.4533 19.3021 79.5703C19.3021 79.6874 19.3021 79.7459 19.3021 79.8629C19.3021 80.0969 19.3021 80.3309 19.3021 80.565C19.3021 80.565 19.3021 80.565 19.3021 80.6235C19.3021 80.565 19.3021 80.448 19.3021 80.3894C19.3021 80.3309 19.3021 80.2724 19.3021 80.2139C19.361 80.0969 19.3021 79.9799 19.3021 79.8044C19.3021 79.6288 19.3021 79.5118 19.3021 79.3363C19.3021 79.1608 19.3021 78.9853 19.3021 78.8097C19.3021 78.6342 19.3021 78.4587 19.3021 78.2247C19.3021 78.3417 19.3021 78.4002 19.3021 78.5172C19.3021 78.5172 19.3021 78.5172 19.361 78.5172C19.361 78.4002 19.361 78.2832 19.361 78.1662C19.361 77.9906 19.3021 77.8151 19.361 77.6396C19.361 77.6396 19.361 77.5811 19.361 77.5226C19.3021 77.23 19.3021 76.9375 19.361 76.5865C19.361 76.4109 19.361 76.2939 19.2433 76.1184L19.1256 76.0014C19.0668 75.9429 18.9491 75.8259 18.8902 75.7674C18.8314 75.8844 18.7137 75.9429 18.596 75.8844C18.4783 75.8844 18.3607 75.8844 18.243 75.8844C17.8899 75.8844 17.5957 75.8844 17.3015 76.0014C17.3015 76.0014 17.1838 76.0014 17.125 76.0599C17.125 76.1184 17.2427 76.1769 17.3015 76.2354C17.3015 76.4694 17.3015 76.645 17.3015 76.879C17.3015 77.4641 17.3015 78.0491 17.3015 78.6342C17.3015 78.6927 17.3015 78.8097 17.3015 78.8683C17.3015 78.8683 17.3015 78.8098 17.3015 78.7512C17.3015 78.7512 17.3015 78.6927 17.3015 78.6342C17.2427 78.2832 17.1838 77.9906 17.1838 77.6396C17.1838 77.4641 17.1838 77.2886 17.1838 77.113V76.996C17.1838 77.1715 17.1838 77.3471 17.1838 77.5226C17.1838 77.8151 17.1838 78.1662 17.2427 78.4587C17.2427 78.5757 17.2427 78.7512 17.2427 78.8683C17.2427 78.8683 17.2427 78.9853 17.2427 79.0438C17.2427 79.2193 17.2427 79.3363 17.3604 79.5118C17.3604 79.6288 17.3604 79.6874 17.3604 79.8044C17.3604 80.2139 17.3604 80.6235 17.3604 80.9745C17.3604 81.15 17.3604 81.2671 17.3604 81.4426C17.3604 81.0915 17.3604 80.7405 17.3604 80.3894C17.3604 80.448 17.3604 80.565 17.3604 80.6235C17.3604 80.799 17.3604 80.9745 17.3604 81.15C17.3604 81.5011 17.3604 81.9107 17.5369 82.2617V82.3202C17.5369 82.3202 17.5369 82.3787 17.5369 82.4372C17.5369 82.4957 17.6546 82.5542 17.6546 82.6713C17.7723 82.9638 18.0076 83.2563 18.1841 83.4904C18.1841 83.5489 18.243 83.6659 18.3607 83.6659C18.5372 83.7244 18.596 83.8999 18.7726 83.9584C19.0079 84.1339 19.3021 84.251 19.5375 84.368C19.6552 84.4265 19.8317 84.485 20.0082 84.5435C20.3024 84.5435 20.5378 84.6605 20.832 84.602C20.9497 84.602 21.0674 84.602 21.185 84.602C21.2439 84.602 21.3027 84.602 21.3616 84.602C21.4204 84.602 21.5381 84.602 21.5969 84.602C21.8323 84.5435 22.1265 84.5435 22.3619 84.602C22.3619 84.602 22.4207 84.602 22.4796 84.602C22.3619 84.602 22.1854 84.602 22.0088 84.602C22.1265 84.5435 22.2442 84.485 22.3619 84.485H22.4796C22.7149 84.368 22.9503 84.1924 23.1857 84.0754C23.3033 84.0754 23.3622 83.9584 23.4799 83.9584C23.7152 83.9584 23.8917 83.9584 24.1271 83.9584H24.186C24.0683 83.9584 24.0094 83.8999 23.8917 83.9584C23.7741 83.9584 23.5975 83.9584 23.4799 83.9584C23.4799 83.9584 23.4799 83.8999 23.5387 83.8999C23.7741 83.7244 23.8917 83.4904 24.0683 83.2563C24.0683 83.1978 24.186 83.1393 24.186 83.0223C24.2448 82.9053 24.3036 82.7883 24.3625 82.6713C24.4802 82.2617 24.5978 81.8521 24.5978 81.4426C24.5978 81.2671 24.5978 81.033 24.5978 80.8575L24.4802 80.6235Z" fill="#D4D4D4"/>
<path d="M9.18018 77.9321C9.23902 77.8151 9.18018 77.7566 9.18018 77.6396C9.18018 77.5811 9.18018 77.4641 9.18018 77.4056C9.18018 77.4056 9.12134 77.5226 9.0625 77.6396C9.0625 77.9321 9.18018 78.1662 9.18018 78.4587C9.18018 78.3417 9.18018 78.1662 9.18018 78.0492C9.18018 78.0492 9.18018 77.9322 9.18018 77.8736V77.9321Z" fill="#D4D4D4"/>
<path d="M8.2983 75.8844H8.18062C8.12178 75.8259 8.00409 75.8259 7.88641 75.8844C7.70989 75.8844 7.5922 75.8844 7.41568 75.8844C7.23916 75.8844 7.00379 75.8844 6.82727 75.7674C6.82727 75.7674 6.82727 75.7674 6.76843 75.7674C6.5919 75.7674 6.41538 75.7674 6.18001 75.7674C6.2977 75.7674 6.41538 75.7674 6.5919 75.7674C6.5919 75.7674 6.5919 75.8259 6.53306 75.8259C6.2977 75.8259 6.06233 75.8844 5.88581 75.8259C5.82697 75.8259 5.76812 75.8259 5.70928 75.8259C5.78774 75.8259 5.86619 75.8649 5.94465 75.9429C5.88581 75.9429 5.82697 75.9429 5.76812 75.9429C5.76812 75.9429 5.70928 75.9429 5.65044 76.0014C5.82697 76.0014 5.94465 76.0014 6.12117 76.0014C6.06233 76.1184 5.94465 76.1769 5.94465 76.2354C5.94465 76.411 5.76812 76.4695 5.65044 76.5865C5.65044 76.5865 5.65044 76.528 5.5916 76.4695C5.53276 76.4695 5.47392 76.5865 5.53276 76.645C5.53276 76.762 5.53276 76.762 5.53276 76.8205H5.5916V76.9375C5.35624 77.3471 5.12087 77.6981 4.82666 78.1077C4.82666 78.1662 4.70898 78.2247 4.65014 78.3417C4.5913 78.4587 4.53246 78.4002 4.41477 78.3417C4.41477 78.3417 4.41477 78.2247 4.41477 78.1662C4.53246 78.1662 4.53246 78.0492 4.53246 77.9907C4.29709 77.9907 4.23825 77.8151 4.06173 77.6981C4.06173 77.8151 4.06173 77.8151 4.12057 77.8736C4.12057 77.8736 4.12057 77.9322 4.12057 77.9907C4.12057 77.9907 4.12057 77.9907 4.06173 77.9321C3.94404 77.6981 3.76752 77.5226 3.64984 77.2886C3.64984 77.2886 3.64984 77.2301 3.64984 77.1715C3.64984 76.996 3.41447 76.879 3.41447 76.645C3.35563 76.528 3.23795 76.411 3.17911 76.2939C3.06143 76.1769 2.94374 76.0014 2.8849 75.8844C2.82606 75.7674 2.70838 75.6504 2.59069 75.5918C2.47301 75.7089 2.29649 75.7089 2.11996 75.7089C1.82576 75.7089 1.53155 75.7089 1.23735 75.7089C1.23735 75.7089 1.23735 75.7089 1.1785 75.7089C0.943139 75.5918 0.766615 75.4748 0.53125 75.4163C0.53125 75.5333 0.53125 75.5918 0.590091 75.5918C0.707774 75.5918 0.766615 75.5918 0.825456 75.7089C0.825456 75.7089 0.825456 75.7089 0.825456 75.7674C0.766615 75.7674 0.707774 75.7674 0.648933 75.7674C0.648933 75.7674 0.590091 75.8259 0.53125 75.8844C0.648933 76.0599 0.766615 76.2939 0.884298 76.4695C0.884298 76.4695 0.766615 76.528 0.707774 76.5865C0.707774 76.5865 0.707774 76.7035 0.766615 76.7035C0.766615 76.7035 0.766615 76.762 0.707774 76.8205C0.707774 76.9375 0.825456 76.996 0.884298 77.0545C0.884298 77.113 0.943139 77.2301 1.06082 77.2886C1.06082 77.2301 1.06082 77.113 1.06082 77.113C0.943139 76.9375 0.943139 76.762 0.943139 76.528C1.06082 76.762 1.29619 76.879 1.29619 77.1715C1.29619 77.1715 1.29619 77.2301 1.29619 77.2886C1.29619 77.2886 1.35503 77.3471 1.41387 77.4056C1.41387 77.4056 1.41387 77.4641 1.41387 77.5226C1.41387 77.5226 1.53155 77.6396 1.59039 77.6981C1.82576 77.9322 2.00228 78.1662 2.17881 78.4587C2.17881 78.5172 2.17881 78.5757 2.17881 78.5757C2.29649 78.7513 2.41417 78.9268 2.47301 79.1023C2.47301 79.1023 2.59069 79.1023 2.64954 79.1023C2.64954 79.2193 2.64954 79.2778 2.76722 79.3948C2.76722 79.4533 2.76722 79.4533 2.76722 79.5119C3.00258 79.6289 3.00258 79.6289 3.06142 79.8044V79.9214C3.06142 79.9799 3.06142 80.0969 3.06142 80.1554C2.94374 80.3895 2.82606 80.6235 2.64954 80.799C2.53185 80.916 2.47301 81.0331 2.35533 81.1501C2.06112 81.5011 1.82576 81.9107 1.53155 82.2617C1.35503 82.5543 1.1785 82.7883 1.00198 83.0808C1.00198 83.0808 1.00198 83.0808 1.00198 83.1393C1.11966 83.1393 1.1785 83.1393 1.1785 83.0808C1.23735 82.9638 1.29619 82.9053 1.41387 82.7883C1.41387 82.7883 1.41387 82.7298 1.47271 82.7883C1.29619 83.0808 1.11966 83.3734 0.884298 83.6659C0.884298 83.6659 0.884298 83.6659 0.884298 83.7244C0.766615 83.7829 0.707774 83.9584 0.648933 84.0754C0.648933 84.134 0.53125 84.1925 0.53125 84.251C0.53125 84.251 0.53125 84.251 0.53125 84.368C0.590091 84.368 0.707774 84.368 0.825456 84.4265C0.766615 84.4265 0.707774 84.4265 0.707774 84.485C1.00198 84.485 1.29619 84.5435 1.59039 84.485C1.8846 84.485 2.23765 84.368 2.53185 84.3095C2.64954 84.3095 2.70838 84.3095 2.8849 84.3095C3.12027 84.1925 3.23795 84.0169 3.35563 83.7829C3.35563 83.7244 3.41447 83.6659 3.47331 83.6074C3.591 83.4319 3.64984 83.3149 3.76752 83.1393C4.06173 82.6713 4.35593 82.2032 4.65014 81.7351C4.65014 81.7351 4.70898 81.6181 4.76782 81.5596C4.88551 81.5011 4.94435 81.3841 5.12087 81.4426C5.17971 81.5596 5.23855 81.6181 5.35624 81.7351C5.53276 81.9692 5.70928 82.2032 5.82697 82.4957C5.82697 82.6713 5.94465 82.8468 6.00349 83.0223C6.00349 83.0223 6.00349 83.1393 6.12117 83.1393C6.35654 83.1978 6.47422 83.3734 6.53306 83.6074C6.53306 83.6074 6.47422 83.6074 6.41538 83.6074C6.41538 83.6074 6.41538 83.6074 6.2977 83.6074C6.2977 83.6659 6.2977 83.7244 6.2977 83.7829C6.2977 83.8414 6.41538 83.8999 6.47422 83.9584C6.5919 84.134 6.76843 84.368 6.88611 84.5435C6.88611 84.5435 6.88611 84.602 6.94495 84.6605C6.94495 84.6605 6.82727 84.6605 6.76843 84.719C6.88611 84.719 6.94495 84.7775 7.06263 84.836C7.06263 84.7775 7.06263 84.719 7.06263 84.6605C7.06263 84.6605 6.94495 84.5435 6.94495 84.485C6.94495 84.485 6.94495 84.4265 6.94495 84.368C6.94495 84.368 7.06263 84.3095 7.06263 84.251C7.06263 84.1925 7.18031 84.251 7.298 84.251C7.41568 84.251 7.5922 84.251 7.70989 84.251C8.12178 84.251 8.47482 84.251 8.88671 84.251C8.88671 84.251 9.00439 84.251 9.06324 84.1925C9.06324 84.0754 9.00439 84.0169 8.94555 83.8999C8.94555 83.8999 9.00439 83.8414 9.06324 83.7829C9.06324 83.7244 9.06324 83.6074 8.94555 83.5489C8.88671 83.5489 8.82787 83.4319 8.76903 83.3734C8.65135 83.1978 8.53366 83.0223 8.47482 82.8468C8.47482 82.7298 8.35714 82.6128 8.2983 82.4372C8.2983 82.4372 8.2983 82.3787 8.18062 82.4372C8.18062 82.5542 8.2983 82.6713 8.2983 82.8468C8.2983 82.7883 8.18062 82.6713 8.12178 82.6128C8.12178 82.5543 8.00409 82.4957 8.00409 82.3787C8.00409 82.3202 7.88641 82.2032 7.82757 82.1447C7.82757 82.0862 7.70989 81.9692 7.65105 81.9107C7.65105 81.8522 7.53336 81.7351 7.53336 81.6766C7.53336 81.5596 7.41568 81.5596 7.35684 81.5011C7.35684 81.3841 7.23916 81.2671 7.23916 81.2086C7.23916 81.2086 7.23916 81.0916 7.12147 81.0916C7.00379 81.0331 6.94495 80.8575 6.88611 80.7405C6.88611 80.6235 7.00379 80.565 7.00379 80.448C6.88611 80.448 6.88611 80.565 6.82727 80.6235C6.70959 80.5065 6.65074 80.3895 6.5919 80.214V80.0969C6.70958 80.0969 6.65074 79.9214 6.70958 79.8629C6.76843 79.8044 6.82727 79.6874 6.88611 79.6289C6.94495 79.5704 7.00379 79.4534 7.12147 79.4534C7.12147 79.4534 7.18032 79.4533 7.23916 79.3948C7.41568 79.2193 7.5922 78.9853 7.76873 78.7513C7.76873 78.7513 7.76873 78.6927 7.76873 78.6342C7.65105 78.7513 7.53336 78.8683 7.47452 78.9853C7.31761 79.1803 7.19993 79.2778 7.12147 79.2778C7.12147 79.2778 7.12147 79.2193 7.12147 79.1608C7.23916 78.9853 7.35684 78.7513 7.47452 78.5757C7.76873 78.1077 8.12178 77.6396 8.47482 77.2301C8.53366 77.1716 8.59251 77.0545 8.65135 76.996C8.65135 76.996 8.65135 76.996 8.65135 77.0545C8.65135 77.1716 8.53366 77.2301 8.47482 77.3471C8.47482 77.3471 8.47482 77.2886 8.47482 77.2301C8.53366 77.113 8.65135 76.996 8.71019 76.8205C8.76903 76.7035 8.82787 76.645 8.94555 76.5865C9.00439 76.5865 9.06324 76.4695 9.12208 76.411C9.12208 76.2354 9.23976 76.1184 9.2986 75.9429V75.8259C9.23976 75.8259 9.12208 75.8259 9.06324 75.8259L8.2983 75.8844Z" fill="#D4D4D4"/>
<path d="M4.76686 77.8152C4.5315 78.0492 4.47266 78.1077 4.47266 78.2247C4.64918 78.1077 4.70802 77.9907 4.76686 77.8152Z" fill="#D4D4D4"/>
<path d="M45.8395 78.9268C45.8983 78.9268 45.9572 78.8098 45.9572 78.7512C45.8395 78.7512 45.7806 78.7512 45.8395 78.9268Z" fill="#D4D4D4"/>
<path d="M33.8948 82.4372C33.8948 82.2617 33.8359 82.0277 33.8359 81.7937C33.8359 81.2671 33.8359 80.799 33.8359 80.2725C33.8359 80.0969 33.8359 79.9799 33.8359 79.8044V79.9214C33.8359 80.6235 33.8359 81.3841 33.8359 82.0862C33.8359 82.2617 33.8359 82.3787 33.8948 82.5543C33.8948 82.5543 33.8948 82.4372 33.8948 82.3787V82.4372Z" fill="#D4D4D4"/>
<path d="M49.7822 81.6181C49.7822 81.2671 49.6645 80.9746 49.5468 80.682C49.5468 80.682 49.5468 80.565 49.488 80.5065C49.488 80.3895 49.3114 80.331 49.2526 80.214C49.2526 80.0969 49.1349 80.0384 49.0172 80.0384C49.0172 80.0384 48.9584 80.0384 48.8995 79.9799C48.7819 79.8629 48.6642 79.8044 48.4877 79.7459C48.1935 79.6289 47.8992 79.5119 47.605 79.3948C47.5462 79.3948 47.4874 79.3948 47.4285 79.3948C47.252 79.2778 47.1343 79.2778 46.9578 79.2778C46.8401 79.2778 46.7224 79.2778 46.6047 79.2778C46.6047 79.2778 46.5459 79.2778 46.4871 79.2778C46.3694 79.2778 46.3105 79.2778 46.1928 79.2778C46.0752 79.2778 45.9575 79.2778 45.8986 79.2778C45.781 79.2193 45.7221 79.2778 45.6044 79.2778C45.6044 79.2778 45.6044 79.2778 45.5456 79.2778C45.5456 79.2778 45.5456 79.2778 45.5456 79.2193C45.5456 79.2193 45.5456 79.2193 45.4868 79.2193C45.4868 79.2193 45.3691 79.2193 45.3102 79.2193C45.2514 79.2193 45.1925 79.1023 45.1925 79.1023C45.2514 78.9853 45.1925 78.9268 45.1925 78.8683C45.1925 78.8098 45.1925 78.7513 45.1925 78.6342C45.1925 78.5757 45.1925 78.5172 45.3102 78.5172C45.6044 78.5172 45.8398 78.4587 46.134 78.5172C46.134 78.5172 46.0752 78.5757 46.0163 78.6342C46.0163 78.6342 46.0163 78.6342 46.0752 78.6342C46.2517 78.5172 46.4871 78.5172 46.7224 78.5757C46.7813 78.5757 46.8401 78.5757 46.8989 78.5757C47.1343 78.5172 47.3697 78.5757 47.4874 78.7513C47.4874 78.7513 47.4874 78.7513 47.5462 78.8098C47.5462 78.8098 47.5462 78.8098 47.5462 78.9268C47.3697 78.9268 47.1931 78.8098 47.0166 78.7513C46.9578 78.7513 46.8989 78.7513 46.7813 78.8098C47.0166 78.8683 47.1931 78.9268 47.4285 79.0438C47.605 79.1608 47.7816 79.2778 48.0169 79.3363C48.0169 79.3949 48.1346 79.5119 48.1346 79.5704C48.1346 79.6874 48.1935 79.7459 48.2523 79.8629C48.37 79.8629 48.2523 79.6874 48.37 79.6289H48.4877C48.4877 79.5119 48.37 79.4534 48.37 79.3363H48.4877C48.6053 79.3363 48.723 79.3948 48.8407 79.3948C48.9584 79.3948 49.0761 79.3948 49.1938 79.3948C49.2526 79.3948 49.3114 79.2778 49.3703 79.2193C49.1938 79.1608 49.0761 79.1023 48.8995 79.2193C48.7819 79.2193 48.6642 79.2193 48.5465 79.2193C48.4877 79.2193 48.37 79.2193 48.2523 79.1608C48.4288 79.1608 48.4877 79.1608 48.6053 79.1608C48.6053 79.1608 48.723 79.1608 48.7819 79.1608C48.8407 79.0438 48.9584 79.1023 49.0761 79.0438C49.2526 79.0438 49.488 79.0438 49.6645 79.0438C49.6645 79.0438 49.7822 79.0438 49.7822 78.9853C49.6645 78.9853 49.5468 78.9853 49.4291 78.9853C49.3703 78.8098 49.3703 78.6928 49.4291 78.5172C49.4291 78.3417 49.4291 78.1662 49.4291 77.9907C49.4291 78.1077 49.4291 78.2247 49.3703 78.3417C49.1938 78.1662 49.0172 77.8737 49.0172 77.6396C49.0172 77.5811 49.0172 77.5226 48.9584 77.4641C48.9584 77.4641 48.9584 77.4641 48.8995 77.5226C48.7819 77.4056 48.6642 77.2886 48.5465 77.1716H48.6642C48.6642 77.1716 48.723 77.0546 48.7819 76.996C48.4288 76.645 48.0169 76.4695 47.5462 76.2354V76.2939C47.5462 76.2939 47.605 76.3525 47.6639 76.4695C47.5462 76.4695 47.4285 76.4695 47.3108 76.411C47.0755 76.294 46.7813 76.2939 46.5459 76.2939C46.3105 76.2939 46.0752 76.2939 45.781 76.2939C45.4279 76.2939 45.0749 76.2939 44.7218 76.2939C44.5453 76.2939 44.4276 76.2939 44.2511 76.3525C44.2511 76.411 44.4276 76.3525 44.4276 76.411C44.3099 76.4695 44.1922 76.528 44.0746 76.5865C43.9569 76.5865 43.898 76.762 43.7215 76.645C43.7215 76.645 43.7215 76.645 43.6627 76.645C43.6038 76.645 43.545 76.7035 43.4861 76.762C43.1919 77.0545 42.8977 77.3471 42.6035 77.6396C42.6035 77.6396 42.7212 77.5811 42.7801 77.5226C42.7212 77.6981 42.6624 77.8736 42.6035 78.0492C42.5447 78.2247 42.427 78.4002 42.2505 78.5172C42.2505 78.4587 42.2505 78.3417 42.2505 78.2832C42.2505 78.2247 42.2505 78.1662 42.2505 78.1077C42.2505 78.0492 42.2505 77.9907 42.2505 77.9322C42.2505 77.9907 42.2505 78.1077 42.1328 78.1662C42.1328 77.9907 42.1328 77.8737 42.1328 77.6981C42.1328 77.5226 42.1328 77.5226 42.2505 77.3471C42.2505 76.9375 42.2505 76.528 42.2505 76.1184C42.1916 76.1184 42.1328 76.1184 42.074 76.1769C41.9563 76.1184 42.074 76.0599 42.074 75.9429C42.074 75.8844 42.074 75.8259 42.0151 75.7674H41.3679C41.3679 75.7674 41.4855 75.7674 41.5444 75.7674C41.6032 75.7674 41.6621 75.7674 41.7209 75.7674H41.8386C41.309 75.9429 40.7795 76.0014 40.2499 75.9429C40.2499 75.9429 40.2499 75.9429 40.2499 76.0599C40.0734 76.0599 39.838 76.0599 39.6615 76.0599C39.7791 76.1769 39.8968 76.2354 40.0145 76.2354C40.1322 76.2354 40.191 76.2354 40.3087 76.2354V76.3525C40.3087 76.8205 40.3087 77.2886 40.3087 77.7566V77.8737C40.3087 77.8737 40.2499 77.9907 40.191 78.0492C40.191 78.0492 40.0734 78.0492 40.0145 78.0492C39.9557 77.9322 39.8968 77.7566 39.8968 77.5811C39.8968 77.5226 39.8968 77.4056 39.8968 77.3471C39.8968 77.2886 39.8968 77.2886 39.7203 77.3471C39.7203 77.4641 39.7203 77.5226 39.7791 77.6396C39.838 77.8151 39.838 78.0492 39.838 78.2832C39.838 78.3417 39.838 78.4002 39.7203 78.4587C39.5438 78.6343 39.3673 78.8098 39.1319 78.9268C39.1319 78.9268 39.0731 78.9268 39.0142 78.9853C38.8965 78.9853 38.8377 78.9853 38.72 78.9268C38.72 78.9268 38.6612 78.8683 38.6023 78.8098C38.4258 78.5757 38.2493 78.4002 38.0727 78.1662C37.9551 77.9907 37.8374 77.8737 37.7197 77.6981C37.7197 77.6981 37.7785 77.6981 37.8374 77.6396C37.7197 77.4056 37.5432 77.1716 37.4255 76.9375C37.3667 76.996 37.4255 77.0545 37.4255 77.1716C37.1901 76.8205 36.8959 76.5865 36.6606 76.3525C36.5429 76.2354 36.484 76.2354 36.3075 76.2354C35.6603 76.2354 35.0718 76.2354 34.4246 76.2354C34.3657 76.2354 34.2481 76.2354 34.1892 76.2939C34.0715 76.3525 33.9539 76.3525 33.8362 76.3525C33.7773 76.3525 33.7185 76.3525 33.6008 76.3525C33.8362 76.3525 34.0715 76.3525 34.3069 76.3525C34.3069 76.3525 34.3069 76.3525 34.3658 76.411C35.3661 77.6981 36.4252 79.0438 37.4255 80.331C37.3863 80.448 37.3863 80.5455 37.4255 80.6235C37.4255 80.6235 37.4843 80.5065 37.5432 80.448C37.5432 80.448 37.602 80.565 37.6609 80.565C37.6609 80.565 37.602 80.565 37.5432 80.6235C37.3667 80.8575 37.1313 81.1501 36.9548 81.3841C36.9548 81.3841 36.8959 81.5011 36.8371 81.5011C36.7194 81.5596 36.6017 81.6766 36.484 81.7937C36.3075 82.0277 36.0721 82.2617 35.8956 82.4958C35.6603 82.7883 35.4249 83.0223 35.1895 83.3149C35.0718 83.4319 35.013 83.4904 34.8953 83.5489C34.8365 83.5489 34.7188 83.6659 34.7188 83.7829C34.7188 83.9584 34.6011 84.0169 34.4834 84.0755C34.3657 84.0755 34.2481 84.0755 34.1304 84.0755V84.1925C34.1304 84.1925 34.0127 84.251 33.9539 84.251C33.7773 84.251 33.6008 84.251 33.4243 84.251C33.4243 84.251 33.3654 84.251 33.3066 84.251C33.3066 83.9584 33.3066 83.6659 33.3066 83.3734C33.3066 82.6713 33.3066 82.0277 33.3066 81.3256C33.3066 80.2725 33.3066 79.2193 33.3066 78.1662C33.3066 78.1662 33.3066 78.0492 33.3066 77.9907C33.3654 77.8737 33.3066 77.7566 33.3066 77.6396C33.3066 77.5811 33.3066 77.4641 33.3066 77.4056C33.3066 76.996 33.3066 76.5865 33.3066 76.1769C33.3066 76.1184 33.3066 76.0599 33.3066 75.9429C33.3066 75.8259 33.3066 75.8259 33.4243 75.8259C33.542 75.8259 33.6597 75.8259 33.7773 75.8259C33.7773 75.8259 33.8362 75.8259 33.895 75.8259C33.6008 75.8259 33.3066 75.7674 33.0124 75.7089C32.6005 75.7089 32.2475 75.7089 31.8356 75.7089C31.6002 75.7089 31.4237 75.7674 31.1883 75.9429C31.1883 75.9429 31.2472 75.9429 31.2472 76.0014C31.3648 76.0599 31.3648 76.1769 31.3648 76.2939C31.3648 76.2939 31.3648 76.3525 31.3648 76.411C31.3648 77.6981 31.3648 79.0438 31.3648 80.331C31.3648 80.3895 31.3648 80.5065 31.3648 80.565V80.6235H31.2472C31.1883 80.5065 31.0706 80.448 31.0118 80.2725C31.0118 80.214 30.953 80.1554 30.8941 80.0969C30.8941 80.0969 30.8941 80.214 30.8353 80.2725C30.5999 79.9799 30.3645 79.6874 30.188 79.3948V79.2778C30.188 79.1608 30.188 79.1608 30.1292 79.1023C30.0115 78.9853 29.8938 78.8683 29.7761 78.7513C29.5996 78.5757 29.4231 78.3417 29.3054 78.1077C29.3054 78.0492 29.3054 77.9907 29.2466 77.9322C29.2466 77.8737 29.1289 77.9322 29.07 77.8151C28.9524 77.6981 28.8935 77.5811 28.7758 77.4641C28.6581 77.2886 28.5405 77.0545 28.3639 76.879C28.2463 76.762 28.1874 76.5865 28.2463 76.3525C28.3639 76.4695 28.3639 76.3525 28.4228 76.3525C28.4816 76.3525 28.5405 76.3525 28.4816 76.2939C28.4816 76.1769 28.4816 76.1184 28.5993 76.1769C28.6581 76.1769 28.717 76.2354 28.7758 76.1769H28.8347C28.6581 76.1769 28.4816 76.1769 28.3051 76.1184C28.2463 76.1184 28.1874 76.1184 28.1286 76.1769C28.0697 76.2939 28.0109 76.2939 27.952 76.1769C27.8932 76.0599 27.7755 76.0014 27.7167 75.8844C27.5402 75.9429 27.3636 75.9429 27.246 75.8844C27.1871 75.8844 27.0694 75.8259 27.0106 75.8844C26.8929 75.8844 26.8341 75.8844 26.7164 75.8844C26.5399 75.8844 26.4222 75.8844 26.2457 75.8844C26.1868 75.8844 26.0691 75.8844 26.0103 75.8844C25.9514 75.8844 25.8338 75.8844 25.7749 75.8844C25.7161 75.8844 25.6572 75.8844 25.6572 76.0014C25.6572 76.0014 25.6572 76.0599 25.6572 76.1184C25.6572 76.1184 25.4807 76.1184 25.4219 76.1769C25.4219 76.1769 25.4807 76.1769 25.5396 76.1769C25.5396 76.1769 25.6572 76.1769 25.7161 76.1769C25.7161 76.2939 25.7161 76.3525 25.7161 76.4695H25.6572C25.7749 76.996 25.7749 77.5811 25.6572 78.1077C25.6572 78.3417 25.6572 78.5172 25.6572 78.7513C25.6572 78.8683 25.6572 78.9853 25.6572 79.1023C25.6572 79.3948 25.6572 79.6874 25.6572 79.9799C25.6572 80.0969 25.6572 80.1554 25.6572 80.2725C25.6572 80.331 25.6572 80.448 25.6572 80.5065C25.6572 80.9161 25.6572 81.2671 25.6572 81.6767C25.6572 82.3787 25.6572 83.0808 25.6572 83.7829C25.6572 83.8999 25.6572 84.0169 25.6572 84.0755C25.6572 84.0755 25.6572 84.134 25.6572 84.1925C25.6572 84.251 25.6572 84.3095 25.7161 84.4265C25.7161 84.4265 25.8338 84.4265 25.8338 84.5435C25.8338 84.602 25.8338 84.6605 25.8338 84.719C26.0691 84.719 26.3633 84.719 26.5399 84.5435C26.481 84.5435 26.3633 84.5435 26.3045 84.5435C26.2457 84.5435 26.128 84.5435 26.0691 84.5435C26.0691 84.4265 26.0691 84.4265 26.1868 84.368C26.3045 84.368 26.481 84.368 26.5987 84.368C26.7752 84.368 26.9517 84.368 27.0694 84.485H27.1871C27.3636 84.485 27.4813 84.485 27.6578 84.368C27.599 84.368 27.5402 84.3095 27.4813 84.251C27.4813 84.251 27.4813 84.1925 27.4813 84.134C27.4813 83.4904 27.4813 82.7883 27.4813 82.1447C27.4813 82.0277 27.4813 81.9107 27.4813 81.7937C27.4813 81.5596 27.4813 81.3256 27.4813 81.0331C27.4813 80.916 27.4813 80.799 27.4813 80.682C27.4813 80.448 27.4813 80.214 27.4813 79.9214C27.599 79.9799 27.6578 80.0969 27.6578 80.214C27.6578 80.3895 27.6578 80.565 27.6578 80.799C27.6578 80.9746 27.6578 81.2086 27.6578 81.3841C27.6578 81.3256 27.6578 81.2086 27.6578 81.1501C27.6578 81.0331 27.6578 80.9161 27.6578 80.799C27.6578 80.682 27.6578 80.5065 27.6578 80.3895C27.6578 80.214 27.599 80.0969 27.5402 79.9214C27.5402 79.9214 27.5402 79.8044 27.5402 79.7459C27.5402 79.7459 27.599 79.7459 27.599 79.8044C27.8344 80.0969 28.0697 80.3895 28.2463 80.682C28.4228 80.916 28.5405 81.1501 28.717 81.3841C28.8935 81.6181 29.0112 81.9107 29.1289 82.1447C29.1289 82.1447 29.1289 82.1447 29.1289 82.2032C29.1289 82.2032 29.1289 82.2032 29.1877 82.2032C29.4819 82.5543 29.7173 82.8468 29.835 83.0808C29.835 83.0808 29.835 83.1393 29.835 83.1978C30.0703 83.3734 30.188 83.5489 30.3057 83.7829C30.3645 83.8999 30.4822 84.0169 30.5411 84.1925C30.6587 84.368 30.7764 84.4265 30.953 84.5435H31.0118C31.0706 84.485 31.1295 84.5435 31.2472 84.5435C31.4825 84.5435 31.6591 84.485 31.8944 84.5435H31.9533C32.0121 84.485 32.1298 84.5435 32.2475 84.5435C32.4828 84.5435 32.7182 84.5435 32.9536 84.5435C33.1301 84.3095 33.1889 84.3095 33.4243 84.368C33.4243 84.368 33.4243 84.368 33.4831 84.4265C33.4243 84.4265 33.3654 84.4265 33.3066 84.485C33.3066 84.5435 33.3066 84.6605 33.3654 84.719C33.4831 84.6605 33.6008 84.6605 33.7185 84.6605C34.1304 84.6605 34.6011 84.6605 35.013 84.6605C35.1895 84.6605 35.3661 84.6605 35.5426 84.6605C35.5426 84.6605 35.6014 84.6605 35.6603 84.6605C35.6603 84.6605 35.5426 84.7775 35.6603 84.7775C35.7779 84.6605 35.8956 84.602 36.0133 84.602C36.131 84.602 36.2487 84.719 36.3664 84.719C36.6017 84.719 36.8371 84.719 37.0724 84.719C37.0724 84.719 37.1313 84.719 37.1901 84.6605C37.1313 84.6605 37.0136 84.6605 36.9548 84.6605C36.8959 84.6605 36.7782 84.6605 36.7194 84.6605C36.6606 84.6605 36.6017 84.6605 36.484 84.6605C36.6017 84.5435 36.7194 84.5435 36.8371 84.5435C36.9548 84.5435 37.0724 84.602 37.1313 84.5435C37.249 84.5435 37.249 84.5435 37.249 84.5435C37.249 84.5435 37.249 84.4265 37.1901 84.368C37.1901 84.368 37.1901 84.368 37.1313 84.368C37.0724 84.368 37.0136 84.368 36.9548 84.4265C36.9548 84.4265 36.8371 84.4265 36.7782 84.4265C36.8371 84.368 36.8959 84.3095 36.9548 84.251C37.0136 84.251 37.0724 84.1925 37.1901 84.134C37.1901 84.134 37.1313 84.017 37.1901 83.9584C37.249 83.9584 37.3078 83.8414 37.4255 83.8414C37.4255 83.8414 37.5432 83.8414 37.602 83.7244C37.602 83.7244 37.602 83.7244 37.5432 83.6659C37.5432 83.6659 37.602 83.6074 37.6609 83.5489C37.8374 83.4319 37.9551 83.2564 38.1316 83.1393C38.1904 83.0808 38.3081 83.0223 38.4258 83.0223C38.367 82.9053 38.4258 82.8468 38.367 82.7298C38.4846 82.6128 38.5435 82.4372 38.72 82.3202C38.72 82.3787 38.72 82.4372 38.72 82.4958C38.72 82.6128 38.72 82.6713 38.72 82.7883C38.72 82.8468 38.6612 82.9638 38.6023 83.0223C38.6023 83.0223 38.6023 83.0808 38.5435 83.1393C38.5435 83.1393 38.4846 83.1393 38.4258 83.1393C38.4258 83.2564 38.367 83.3149 38.3081 83.4319C38.3081 83.5489 38.1904 83.6074 38.1904 83.7244C38.1316 83.8999 38.0139 84.0755 37.8962 84.134H37.9551C37.9551 84.251 37.8962 84.368 37.9551 84.485C37.9551 84.485 38.0139 84.485 38.0727 84.485C38.2493 84.251 38.4846 84.017 38.6023 83.7244C38.72 83.5489 38.8377 83.3734 38.9554 83.1393C38.9554 83.1393 38.9554 83.0808 39.0731 83.1393C39.0731 83.2564 39.0731 83.3149 39.0731 83.4319V83.5489C39.0731 83.5489 39.0731 83.6074 39.0731 83.6659C39.0731 83.6659 39.0731 83.7244 39.0731 83.8414C39.0731 83.5489 39.1907 83.3149 39.1319 83.0223C39.1319 82.9053 39.1319 82.8468 39.1907 82.7298C39.3084 82.5543 39.4261 82.3787 39.5438 82.2032C39.5438 82.2032 39.5438 82.2032 39.6615 82.1447C39.6615 82.2032 39.6615 82.3202 39.6615 82.3787C39.6615 82.1447 39.6615 81.9692 39.8968 81.7937C39.9557 81.9107 39.9557 82.0277 39.9557 82.1447C39.9557 82.7298 39.9557 83.2564 39.9557 83.8414C39.9557 83.8414 39.9557 83.9584 39.9557 84.017C39.838 84.017 39.7791 84.0755 39.6615 84.134C39.5438 84.134 39.4849 84.134 39.4261 84.017C39.4261 84.017 39.4261 84.0755 39.4261 84.134C39.4261 84.251 39.4261 84.251 39.4261 84.368C39.4261 84.4265 39.4261 84.5435 39.4261 84.6605V84.3095C39.4849 84.3095 39.5438 84.3095 39.6026 84.3095C39.7203 84.251 39.8968 84.3095 40.0734 84.3095C40.0734 84.368 40.0734 84.485 40.1322 84.5435C40.4264 84.5435 40.7206 84.5435 41.0148 84.5435C41.1913 84.5435 41.3679 84.5435 41.5444 84.5435C41.6621 84.5435 41.7798 84.5435 41.8386 84.5435C41.9563 84.5435 42.0151 84.5435 42.1328 84.4265C42.1328 84.4265 42.1328 84.3095 42.1328 84.251C42.1328 83.8414 42.1328 83.4904 42.1328 83.0808C42.1328 83.0223 42.1328 82.9638 42.1916 82.9053C42.1916 82.7883 42.1916 82.7298 42.1916 82.6713C42.1916 82.5543 42.1916 82.3787 42.1916 82.2617C42.1916 82.2617 42.1916 82.2032 42.2505 82.1447C42.2505 82.3787 42.3093 82.5543 42.3682 82.7298C42.3682 82.7883 42.3682 82.8468 42.3682 82.9638C42.4858 83.1393 42.6624 83.3149 42.7801 83.4904C43.0154 83.7829 43.2508 84.0169 43.545 84.1925C43.6038 84.1925 43.6627 84.3095 43.7804 84.368C43.6627 84.368 43.6038 84.368 43.4861 84.368C43.545 84.368 43.6038 84.4265 43.6627 84.485C43.7804 84.485 43.9569 84.5435 44.0746 84.602C44.4276 84.719 44.8395 84.7775 45.2514 84.9531C45.3102 84.9531 45.3691 84.9531 45.4279 84.9531C45.7221 84.9531 46.0752 84.9531 46.3694 84.9531C46.6047 84.9531 46.8989 84.8361 47.1343 84.8361C47.252 84.8361 47.3697 84.7776 47.4874 84.719C47.9581 84.485 48.4288 84.251 48.8407 84.017V83.8999C48.8407 83.8999 48.8995 83.7829 48.9584 83.7244C49.3703 83.2564 49.5468 82.7298 49.6056 82.1447C49.6056 82.1447 49.6056 82.0277 49.6056 81.9692L49.7822 81.6181ZM47.6639 82.2032C47.605 82.2032 47.4874 82.3202 47.4285 82.3202C47.3697 82.3202 47.3108 82.3202 47.252 82.3202C47.252 82.2617 47.1343 82.3202 47.0755 82.3202V82.4372C46.6047 82.4958 46.1928 82.4958 45.7221 82.4372C45.4279 82.4372 45.1337 82.3202 44.8395 82.2032C44.8395 82.2032 44.7807 82.2032 44.7218 82.1447C44.6041 82.0277 44.4864 81.9107 44.5453 81.7352C44.5453 81.6766 44.5453 81.5596 44.5453 81.5011H44.4276C44.3688 81.5011 44.2511 81.5011 44.1922 81.5011C43.9569 81.3841 43.7215 81.4426 43.4861 81.5011C43.3096 81.5011 43.1331 81.5011 43.0154 81.4426C42.8977 81.3841 42.7801 81.3841 42.7212 81.4426C42.6624 81.5011 42.5447 81.5011 42.4858 81.4426C42.4858 81.4426 42.4858 81.3841 42.4858 81.3256H42.3682C42.3093 81.4426 42.3682 81.5011 42.3682 81.6181C42.427 81.6181 42.4858 81.6181 42.5447 81.5596V81.6767H42.4858C42.4858 81.8522 42.427 82.0277 42.3682 82.2032C42.3093 82.1447 42.3682 82.0277 42.3093 81.9692C42.3093 82.1447 42.3682 82.3787 42.3093 82.6128C42.3093 82.6128 42.3093 82.5543 42.3093 82.4958C42.3093 82.0862 42.3093 81.6766 42.3093 81.3256C42.427 81.3256 42.4858 81.2086 42.4858 81.0916C42.4858 80.799 42.4858 80.5065 42.4858 80.1554C42.4858 80.0384 42.4858 79.9214 42.4858 79.8044V79.7459C42.427 79.5704 42.4858 79.3948 42.4858 79.2193C42.4858 79.1023 42.4858 78.9853 42.4858 78.8683C42.5447 78.8683 42.6035 78.8683 42.6035 78.8683C42.6624 78.9853 42.7212 79.0438 42.7212 79.1608C42.7212 79.2193 42.7212 79.2778 42.7212 79.3363C42.7212 79.4534 42.7801 79.5119 42.8389 79.5704C42.9566 79.7459 43.0743 79.8629 43.1919 79.9799C43.2508 80.0384 43.3685 80.1555 43.4273 80.214C43.6627 80.448 43.9569 80.6235 44.2511 80.7405C44.3688 80.799 44.5453 80.8575 44.663 80.9161C44.663 80.9161 44.7807 80.9161 44.8395 80.9161C44.9572 80.9161 45.1337 80.916 45.2514 80.9746C45.4868 80.9746 45.781 81.0331 46.0163 81.0916C46.3694 81.0916 46.7813 81.2086 47.1343 81.2671C47.252 81.2671 47.3697 81.2671 47.4285 81.3841C47.4285 81.3841 47.4285 81.3841 47.4874 81.3841C47.5462 81.3841 47.605 81.3841 47.6639 81.4426C47.8992 81.6181 47.8992 81.7937 47.6639 81.9692V82.2032Z" fill="#D4D4D4"/>
<path d="M45.9568 78.3417C45.8391 78.4002 45.6626 78.4587 45.5449 78.4587C45.5449 78.4587 45.6626 78.4587 45.7214 78.4587C45.7214 78.4587 45.7214 78.5172 45.7214 78.5757C45.7803 78.5757 45.7803 78.5172 45.8391 78.4587C45.8391 78.4002 45.8391 78.3417 45.9568 78.3417C45.9568 78.3417 46.0745 78.3417 46.1333 78.3417C46.1333 78.2832 46.1333 78.2247 46.0156 78.2832L45.9568 78.3417Z" fill="#D4D4D4"/>
<path d="M16.3024 77.5811C16.3024 77.5811 16.3024 77.5811 16.3024 77.5226C16.3024 77.5226 16.3024 77.5811 16.1848 77.6981C16.1848 77.5811 16.0671 77.5226 16.0082 77.4641C16.0082 77.4056 15.8906 77.2885 15.8317 77.23C15.8317 77.1715 15.714 77.113 15.6552 77.0545C15.5963 76.996 15.5375 76.9375 15.4787 76.879C15.4198 76.879 15.361 76.762 15.3021 76.7035C15.2433 76.7035 15.1256 76.5865 15.0668 76.528C15.1845 76.528 15.2433 76.5865 15.3021 76.528C15.2433 76.528 15.1845 76.4694 15.0668 76.4694C14.8903 76.4109 14.7137 76.3524 14.4784 76.2939C14.4784 76.2939 14.3607 76.2939 14.3607 76.1769H14.8314C14.9491 76.1769 15.1256 76.1769 15.2433 76.1769C15.4198 76.1769 15.5375 76.1769 15.714 76.1769C15.8317 76.1769 16.0082 76.1769 16.1848 76.1769C16.0671 76.0599 16.0082 76.0599 15.8906 76.0599C15.7729 76.0599 15.6552 76.0599 15.5375 76.0599C15.1256 76.0599 14.6549 76.0599 14.243 76.0599C14.1253 76.0599 14.0076 76.0599 13.89 76.0599C13.6546 76.0599 13.4192 76.0599 13.1839 76.0599C13.0662 76.0599 13.0073 76.0599 12.8897 76.0599C12.772 76.0599 12.7131 76.0599 12.5954 76.0599C12.5366 76.0599 12.4778 76.0599 12.4189 76.0599C12.007 76.0599 11.5951 76.0599 11.1833 76.0599C10.9479 76.0599 10.7714 76.0014 10.536 76.0599C10.183 76.0599 9.77106 76.0599 9.41801 76.0599C9.41801 76.0599 9.30033 76.0599 9.24149 76.0599C9.24149 76.2939 9.24149 76.4694 9.18265 76.645C9.18265 76.879 9.18265 77.0545 9.18265 77.2886C9.18265 77.4641 9.18265 77.6396 9.18265 77.8736C9.18265 77.8736 9.18265 77.8736 9.18265 77.9321C9.18265 77.9321 9.06497 77.9321 9.12381 78.0491V78.1662C9.12381 78.3417 9.12381 78.4587 9.12381 78.6342C9.12381 78.7512 9.06497 78.8683 9.12381 79.0438C9.12381 79.2193 9.12381 79.3363 9.12381 79.5118C9.12381 79.8044 9.12381 80.0969 9.18265 80.448C9.18265 80.799 9.18265 81.1501 9.18265 81.5011C9.18265 81.6766 9.18265 81.9106 9.18265 82.0862C9.18265 82.4372 9.18265 82.7298 9.18265 83.0808C9.18265 83.5489 9.18265 84.0169 9.18265 84.4265C9.18265 84.4265 9.18265 84.5435 9.18265 84.602C9.30033 84.602 9.47686 84.602 9.59454 84.602H9.71222C9.71222 84.6605 9.77106 84.719 9.88874 84.719C10.3006 84.719 10.7714 84.719 11.1833 84.719C11.2421 84.719 11.3009 84.719 11.3598 84.6605C11.3598 84.6605 11.2421 84.602 11.1833 84.5435C11.3009 84.3095 11.3009 84.3095 11.3009 84.0169C11.3009 83.8999 11.3009 83.7829 11.3009 83.7244C11.3009 83.7244 11.3009 83.7244 11.2421 83.8414C11.1833 83.4904 11.1244 83.1978 11.0656 82.9053C11.0656 82.9053 11.0656 82.9638 11.1244 83.0223C11.1244 82.9053 11.1244 82.7883 11.0656 82.6712C11.0656 82.5542 11.0067 82.4957 11.0656 82.3787C11.0656 82.3202 11.1244 82.2617 11.1833 82.3202C11.2421 82.3202 11.3009 82.3202 11.4186 82.3202C11.5951 82.3202 11.7128 82.3202 11.8893 82.3202C12.4189 82.3202 12.9485 82.3202 13.4192 82.3202C13.6546 82.3202 13.8311 82.3202 14.0665 82.2032C14.3018 82.1447 14.5372 82.0277 14.7726 81.9106C15.6552 81.4426 16.1259 80.7405 16.3024 79.8044C16.3024 79.5703 16.3024 79.3363 16.3613 79.1023C16.3613 78.9268 16.3613 78.8097 16.3613 78.6927C16.2436 78.4002 16.1848 78.1077 16.1848 77.8151L16.3024 77.5811ZM14.3018 79.5118C14.0665 79.6288 13.89 79.7459 13.5957 79.8044C13.4781 79.8044 13.3604 79.8044 13.3015 79.8044C12.8897 79.8044 12.4778 79.8044 12.1247 79.8044C12.007 79.8044 11.8893 79.8044 11.8305 79.6874C11.7717 79.6874 11.7128 79.6874 11.654 79.6874C11.654 79.3948 11.654 79.1023 11.7128 78.8683C11.8893 78.8683 12.007 78.8683 12.1836 78.8683C12.2424 78.8683 12.3012 78.8683 12.4189 78.8683C12.4778 78.8683 12.5954 78.8683 12.7131 78.8683C12.772 78.8683 12.8897 78.8683 12.9485 78.8683C12.772 78.8097 12.5366 78.8097 12.3601 78.8097C12.1836 78.8097 11.9482 78.8097 11.7717 78.6927C11.7717 78.5757 11.7717 78.4587 11.7717 78.4002C11.9482 78.3417 12.1836 78.4002 12.3601 78.3417C12.1247 78.2832 11.9482 78.3417 11.7128 78.2832C11.8305 78.2832 11.8893 78.2832 11.9482 78.2832C12.4189 78.2832 12.9485 78.2832 13.4192 78.2832C13.5369 78.2832 13.5957 78.2832 13.7134 78.3417C13.7134 78.3417 13.7723 78.3417 13.8311 78.3417C14.0665 78.3417 14.3018 78.4587 14.4784 78.6342C14.5372 78.6927 14.596 78.8097 14.596 78.9268C14.596 78.9268 14.596 78.9853 14.596 79.0438C14.596 79.2193 14.596 79.3948 14.3607 79.5118H14.3018Z" fill="#D4D4D4"/>
<path d="M13.7695 78.4587C13.7695 78.6343 13.8872 78.6928 14.1226 78.6928C14.0637 78.6928 14.0049 78.6343 13.9461 78.5758C13.8872 78.5758 13.8284 78.4587 13.7695 78.4587Z" fill="#D4D4D4"/>
</svg>
