<svg width="178" height="19" viewBox="0 0 178 19" fill="none" xmlns="http://www.w3.org/2000/svg">
<path d="M0.000210064 10.3173C-0.0085033 10.8468 0.255602 11.2394 0.466626 11.5698C1.51994 13.3236 3.20062 14.1939 5.07519 14.2329C6.98582 14.2726 9.14463 13.4617 10.1865 11.4865C10.4468 11.003 10.7645 10.3168 10.7741 9.72614L10.8423 5.5302L10.536 5.52386C10.5583 5.25937 10.8427 5.50983 10.851 5.00064C10.8349 4.87807 10.8039 4.5717 10.7859 4.57136L10.6056 4.56763C10.6056 4.56763 10.5349 4.48467 10.5359 4.42355C10.5359 4.42355 10.6827 4.26363 10.7909 4.2659L10.812 2.96232L10.74 2.96073C10.6498 2.95892 10.5063 2.91512 10.5086 2.77263L10.5092 2.73189L10.8698 2.73936C10.8708 2.67824 10.8554 2.51493 10.6394 2.49003C10.7118 2.47113 10.821 2.41228 10.822 2.35116L10.8302 1.84197L10.596 1.83711C10.6694 1.7572 10.8319 1.74011 10.8329 1.679L10.8415 1.14944L9.81777 0.904072C10.0531 0.847823 10.7387 0.82134 10.7404 0.71948C10.743 0.556505 10.4372 0.509422 10.3655 0.487579L10.4202 0.447967L8.50956 0.408241C8.2753 0.403374 8.12647 0.685527 8.12347 0.868874L8.68092 0.961905L8.06808 0.94923L8.04955 2.08983L8.17334 2.23504L8.10023 2.29468L8.33229 2.44215C8.04284 2.49727 8.04284 2.49727 8.03623 2.9046C8.21621 2.9287 8.10634 3.0283 8.2122 3.17317L8.03193 3.16943L8.0134 4.31003L8.19368 4.31377C8.08451 4.37262 7.90263 4.47075 7.90123 4.55223C7.90123 4.55223 7.90093 4.57261 7.91895 4.57295L8.24335 4.57962L8.24175 4.68148C8.13258 4.74034 7.93268 4.83812 7.93167 4.89924L7.91805 5.73426L8.22452 5.74071C8.13368 5.77953 7.91445 5.95835 7.91415 5.97872L7.76151 8.70585C7.66196 10.3949 6.25951 11.2623 4.90763 11.2342C4.79947 11.232 4.70933 11.2302 4.51203 11.1649C4.0992 11.0544 2.99821 10.0128 2.96185 10.0324C2.91798 9.39985 2.52679 9.06575 1.95 9.05375C1.11492 9.40313 0.0114273 9.62474 0.000210064 10.3173ZM8.25196 0.728873C8.61242 0.736342 8.79269 0.740192 9.09816 0.807645C8.77367 0.800855 8.59309 0.817491 8.25196 0.728873ZM10.3224 0.914598C10.4293 0.998236 10.6455 1.00276 10.7717 1.00537L10.773 0.923878L10.3224 0.914598ZM7.48609 11.2266L7.48379 11.3693L7.37562 11.367C7.37662 11.3059 7.43171 11.2459 7.48609 11.2266ZM15.2095 13.5674C15.257 13.9758 17.378 14.3867 17.5942 14.3912C19.6671 14.4342 22.1545 14.4859 23.7547 12.5428C23.8101 12.4624 24.1219 12.1428 24.1255 11.9188L23.8911 11.914C24.8148 11.6683 24.9721 9.75625 24.9876 8.79888C24.9985 8.12672 24.9095 8.06379 24.7653 8.06074L24.6391 8.05813C24.7295 8.03969 24.9111 7.96193 24.9121 7.90082C24.9184 7.51386 24.7287 6.98012 24.3693 6.91153L24.6216 6.91674C24.6223 6.87599 24.5191 6.56827 24.465 6.56713L23.7801 6.55287C23.9266 6.41333 24.2687 6.44083 24.3949 6.44343C24.3969 6.3212 24.1672 6.03124 24.1676 6.01087C23.2138 4.78889 21.8065 3.74087 20.3464 3.71053L19.9138 3.70148L16.2686 3.89071C15.3997 4.09669 14.4532 4.64753 13.8825 5.36926L13.8811 5.45075L14.0253 5.45369C13.7179 5.50847 13.4435 5.74727 13.3302 6.07085L13.5824 6.07617C13.5788 6.30015 13.239 6.13015 13.1463 6.29121C12.8286 6.9774 12.5282 7.70468 12.5156 8.4787C12.5136 8.60082 12.6027 8.66386 12.6742 8.70607L12.494 8.70234C12.4742 8.80375 12.4726 8.90561 12.4703 9.04821C12.4388 10.9832 13.626 13.3715 15.516 13.5737L15.2095 13.5674ZM15.217 8.67744L15.1112 8.53257C15.3855 8.29377 15.4662 7.76568 15.6154 7.46316C15.8573 6.99958 16.2939 6.76406 16.607 6.36307L16.4818 6.29935C16.8256 6.225 17.3489 6.19512 17.3897 5.9107L17.5518 5.9141C17.9665 5.9227 18.3456 5.88988 18.7602 5.89848C19.4992 5.91387 19.9285 6.12653 20.7006 6.32595C20.9158 6.39148 21.1328 6.35526 21.3107 6.5016L21.1125 6.49753C21.1125 6.49753 21.0757 6.53748 21.075 6.57822C21.074 6.63934 21.2172 6.7034 21.2527 6.74493C21.9457 7.37058 21.9177 7.98129 22.33 8.13238L22.2568 8.19202L22.2515 8.51797C22.2095 11.1048 20.8794 11.9532 18.5362 11.9046C16.7518 11.8675 15.1989 10.898 15.217 8.67744ZM18.9438 3.47761C18.349 3.46528 17.7182 3.45215 17.12 3.64342C18.0032 3.66187 18.815 3.63799 19.7897 3.57665C19.6464 3.51259 19.4485 3.48814 19.2502 3.48395L18.9438 3.47761ZM22.8966 13.1973C22.8963 13.2177 22.878 13.2377 22.86 13.2372C22.86 13.2372 22.8422 13.2165 22.8425 13.1962C22.8429 13.1758 22.861 13.1761 22.861 13.1761C22.879 13.1766 22.897 13.1769 22.8966 13.1973ZM40.3444 11.7057C40.2713 11.7653 40.0349 11.8826 40.0526 11.9033L40.0136 14.3069C40.0093 14.5716 40.2389 14.8617 40.4912 14.8669L42.4199 14.907C42.8524 14.916 42.9379 14.1027 42.9521 13.2268C42.962 12.6158 42.935 12.0652 42.9416 11.6577C42.9446 11.4744 42.9469 11.3319 42.9839 11.2715L42.6775 11.2651L42.6795 11.1429L42.9698 11.0267L42.9735 10.8027L42.7031 10.797C42.7031 10.797 42.6874 10.6541 42.6884 10.593C42.6901 10.4911 42.8179 10.392 42.9811 10.3341C43.0173 8.11404 42.768 5.70449 40.8949 4.4635C40.4489 4.1689 39.8952 3.85178 39.3725 3.84091C38.9038 3.83118 38.4509 3.96439 37.9642 3.95432C37.9102 3.95318 37.6217 3.94719 37.5861 3.92614L38.7439 3.68529L38.7455 3.58343C37.3577 3.55457 35.9861 3.62791 34.7485 4.33573C34.7665 4.33618 34.8561 4.37873 34.8921 4.37952C35.1805 4.38552 35.4345 4.28887 35.777 4.296C35.2509 4.48885 34.7987 4.58132 34.2399 4.56966C34.2586 4.52937 34.3126 4.5305 34.3139 4.44902C34.3159 4.32678 33.8697 4.05267 33.7254 4.04961C33.6533 4.04814 33.4908 4.06512 33.4727 4.06478C33.166 4.0787 31.6129 4.2299 31.2878 4.26386C31.2507 4.32418 31.141 4.42378 31.1397 4.50527C31.1387 4.56638 31.2055 4.8938 31.2221 4.97563L31.3663 4.97857C31.4925 4.98129 31.5646 4.98276 31.5636 5.04388C31.5069 5.20572 31.1294 5.13668 31.1263 5.32003L31.0217 11.7564L31.3281 11.7629L31.3255 11.9257C31.2173 11.9235 30.9997 12.0006 30.9966 12.1838C30.9963 12.2042 30.996 12.2245 31.0137 12.2454L31.3201 12.2517L31.3178 12.3943L31.0088 12.5508L30.9954 13.3656C30.9944 13.4267 31.0482 13.4482 31.1203 13.4497C31.1924 13.4511 31.2829 13.4327 31.3911 13.435C31.4451 13.4361 31.4988 13.4575 31.5155 13.5394C31.2792 13.6567 30.9915 13.6101 30.9875 13.8544C30.9835 14.0989 31.1224 14.4278 31.3731 14.5348L33.012 14.6504C33.1923 14.6541 33.7343 14.5838 33.7397 14.258L33.7576 13.1581L33.4331 13.1513L33.4351 13.0291L33.7619 12.8933L33.7744 12.1193L33.5762 12.1152C33.5765 12.0948 33.5054 12.0322 33.5057 12.0119C33.5067 11.9508 33.7418 11.9149 33.7784 11.8749C33.7977 11.7938 33.8178 11.6719 33.8178 11.6719L33.5294 11.666C33.5294 11.666 33.5124 11.6044 33.513 11.5637C33.5868 11.4634 33.8388 11.489 33.8404 11.3871L33.8915 8.25042C33.9064 7.3338 35.669 6.49436 36.2124 6.34259C36.7375 6.21085 36.8633 6.23383 37.35 6.24401C38.6658 6.27129 40.0217 7.1552 40.1037 8.76662C40.1174 9.0318 40.1359 10.1121 40.1286 10.5601L40.1262 10.7028L40.1623 10.7035C40.3065 10.7065 40.3963 10.7288 40.393 10.9324C40.388 11.238 40.1019 11.0894 40.0626 11.2923C40.0429 11.3938 40.0212 11.6175 40.0212 11.6175L40.3457 11.6242L40.3444 11.7057ZM25.8729 13.4833C25.8636 14.0536 26.0949 14.2418 26.7438 14.2553C26.9601 14.2598 28.079 14.2015 28.335 13.9826L28.4621 13.9242L28.4793 12.865L28.1909 12.859C28.1909 12.859 28.1735 12.8179 28.1742 12.7772C28.1778 12.5532 28.4987 12.784 28.5033 12.4988C28.5079 12.2137 28.27 12.4328 28.1831 12.2273C28.2569 12.1269 28.4569 12.0292 28.4932 12.0096L28.5967 11.1967L28.6871 5.63613L28.3806 5.62968C28.3806 5.62968 28.364 5.54786 28.3646 5.50711C28.3826 5.50757 28.5292 5.3679 28.6921 5.33056L28.704 4.59728C28.4697 4.59241 28.1275 4.56491 28.0745 4.50277C28.1866 4.26057 28.7069 4.41393 28.7103 4.21032C28.718 3.74177 28.1962 3.6699 27.7636 3.66085L26.574 3.63618C26.103 3.76905 26.0624 4.05335 26.0538 4.58302L26.5404 4.59309C26.5374 4.77644 26.2484 4.81119 26.0851 4.86891L26.0702 5.78553L26.3046 5.7904L26.3028 5.89214L25.9932 6.08952L25.8917 12.3223L26.1621 12.3279C26.1621 12.3279 26.1968 12.4101 26.1965 12.4305C26.1942 12.573 26.0674 12.6111 26.0494 12.6108C26.0313 12.6105 25.9775 12.589 25.9595 12.5885C25.9054 12.5874 25.8508 12.627 25.845 12.9733C25.9893 12.9763 26.2957 12.9827 26.2943 13.0642C26.293 13.1456 26.0213 13.2215 25.8765 13.2592L25.8729 13.4833ZM26.0136 1.5055C26.0004 2.32026 26.6039 2.90324 27.3249 2.91829C28.0279 2.93289 28.7378 2.51968 28.7517 1.66428C28.7663 0.768032 28.1784 0.327885 27.4215 0.312153C27.3494 0.310682 26.4465 0.393867 26.4435 0.577102L26.4428 0.617845C26.7853 0.624975 26.9639 0.730572 27.3423 0.738494C27.3784 0.739173 27.4688 0.720725 27.5229 0.721857C27.5934 0.825188 27.593 0.845558 27.593 0.845558L27.5196 0.925462C27.4655 0.924331 27.3397 0.901356 27.1775 0.897961C26.889 0.892075 26.562 1.04826 26.2736 1.04226C26.0203 1.09806 26.0186 1.19992 26.0136 1.5055ZM31.4013 3.94017L31.4 4.02166L33.206 3.83503L31.674 3.80323L31.4013 3.94017ZM27.5026 6.40608C27.5767 6.28543 27.8137 6.12733 27.8677 6.12846C28.0119 6.1314 27.9919 6.25329 27.9892 6.41627C27.9872 6.5385 27.9682 6.59916 27.86 6.5969C27.7339 6.5943 27.5727 6.52979 27.5026 6.40608ZM26.4968 9.48224C26.6771 9.48598 26.8206 9.52978 26.9629 9.65495C26.8891 9.75534 26.8351 9.75421 26.7449 9.75229C26.6007 9.74934 26.4935 9.68596 26.4968 9.48224ZM26.8181 7.47176C26.8378 7.37035 27.0361 7.37443 27.0541 7.37488L27.0494 7.65997C26.9594 7.65816 26.8705 7.57475 26.8181 7.47176ZM26.5599 12.2546L26.596 12.2554L26.5927 12.459L26.5566 12.4584L26.5599 12.2546ZM35.9952 4.1783C36.0313 4.17909 36.0486 4.22017 36.048 4.26092C36.048 4.26092 36.0293 4.30121 35.9932 4.30053C35.9752 4.30007 35.9759 4.25944 35.9759 4.25944C35.9765 4.2187 35.9772 4.17796 35.9952 4.1783ZM35.887 4.17603C35.9231 4.17682 35.9405 4.21791 35.9398 4.25865C35.9398 4.25865 35.9211 4.29906 35.885 4.29826C35.849 4.29747 35.8317 4.25639 35.8317 4.25639C35.8324 4.21564 35.851 4.17524 35.887 4.17603ZM27.1055 13.0809C27.1235 13.0814 27.1408 13.1225 27.1402 13.1632C27.1398 13.1836 27.1212 13.224 27.1032 13.2236C27.0671 13.2229 27.0318 13.1813 27.0321 13.161C27.0327 13.1202 27.0694 13.0803 27.1055 13.0809ZM27.1642 12.797C27.1642 12.797 27.1816 12.8381 27.1806 12.8992C27.1802 12.9196 27.1616 12.96 27.1616 12.96C27.1255 12.9592 27.1261 12.9184 27.1265 12.8981C27.1275 12.8369 27.1281 12.7962 27.1642 12.797ZM27.3764 6.40348C27.3944 6.40393 27.3941 6.4243 27.3941 6.4243C27.3937 6.44456 27.3934 6.46493 27.3754 6.46459C27.3754 6.46459 27.3577 6.44388 27.3581 6.42351L27.3764 6.40348ZM70.4413 11.3734C70.437 11.6382 70.4721 11.7001 70.5585 11.926C71.1121 13.3638 71.9974 14.3602 73.3046 14.917C73.8597 15.1528 74.3778 15.4487 75.0086 15.4619C75.0447 15.4627 75.1892 15.4452 75.2073 15.4456C77.2106 15.3242 78.5841 15.1287 80.7571 14.5626C81.2645 14.4305 81.5049 14.0279 81.8544 13.6073C82.0197 13.407 82.224 13.0649 82.229 12.7797C82.232 12.5557 82.0007 12.3879 81.8204 12.3841L79.8195 12.3425C79.4951 12.3358 79.1637 12.7568 78.7812 12.9933C78.1621 13.3676 77.4574 13.4549 76.7905 13.441C75.8352 13.4212 73.4089 12.9429 73.434 11.3948C73.441 10.9671 73.8035 10.8524 74.0918 10.8584L81.4659 10.8893C81.7723 10.8957 82.2961 10.8251 82.3933 10.4196C82.4083 9.50296 82.3652 8.82966 82.1439 7.98977C82.0898 8.02939 81.9806 8.04749 81.9085 8.04602C81.8004 8.04376 81.6932 7.98038 81.6952 7.89889C81.6982 7.71554 81.9676 7.76195 81.9706 7.59897C81.9756 7.27313 81.6581 6.81827 81.4819 6.61082C80.4202 5.34583 79.1537 4.50459 77.5495 4.4712C76.7023 4.45354 75.9371 4.94711 75.0358 4.92832C75.0906 4.88871 75.1633 4.84955 75.2354 4.85102L75.3075 4.85249C75.5978 4.73626 76.4143 4.42729 76.4326 4.40725C74.7924 4.37319 73.3428 4.81164 71.9911 5.88388L71.9904 5.92462C72.2258 5.86837 72.8777 5.69849 72.8956 5.69895C72.9317 5.69963 72.9494 5.72034 72.9674 5.72079C72.5105 6.09846 71.914 6.18787 71.4581 6.50443C70.5092 7.19787 70.2879 9.7198 70.2776 10.3512C70.293 10.5145 70.3408 10.9026 70.3588 10.9031L70.6832 10.9098C70.6789 11.1746 70.446 11.0882 70.4413 11.3734ZM66.2931 12.5505L66.2623 14.4447C66.2576 14.7299 66.5418 15.0007 66.7941 15.006L68.4884 15.0412C68.9751 15.0513 68.9966 13.7273 68.9999 13.5236C69.0263 13.0147 69.0638 11.8134 69.0638 11.8134L68.7934 11.8078C68.7934 11.8078 68.705 11.704 68.706 11.6429C68.707 11.5819 69.0327 11.5071 69.0514 11.4668C69.0587 11.0186 69.132 7.61753 68.6814 7.60814C68.5913 7.60622 68.4468 7.62364 68.4287 7.6233C68.4328 7.37884 68.4515 7.33844 68.5056 7.33957L68.5776 7.34104C68.6136 7.34183 68.6321 7.3218 68.6337 7.22005C68.637 7.01633 68.2701 6.29551 68.1439 6.2929L67.6753 6.28317L67.5514 6.13796C67.6606 6.07911 67.8589 6.0833 67.8612 5.94069C67.8645 5.73698 67.6121 5.73177 67.3598 5.72645L67.0714 5.72056C66.9472 5.59573 66.8047 5.49081 66.6614 5.42676L66.6627 5.34527C66.7892 5.3275 66.9522 5.29015 67.079 5.25201C66.6927 4.61233 64.9837 4.37307 64.3709 4.3604C63.2173 4.3364 62.1115 4.70061 61.0244 5.02441C60.5924 4.97461 60.5276 4.52507 60.5373 3.93429C60.5463 3.38436 60.5611 2.46784 60.6012 2.22417C60.5537 1.8156 60.3621 1.4042 59.9295 1.39515L58.4515 1.36448C58.4334 1.36402 58.3243 1.42299 58.3059 1.44291C57.8483 1.86133 57.8511 2.79866 57.8425 3.32822L57.7901 6.54642C57.8262 6.54721 58.0603 6.57245 58.0946 6.67499C58.0202 6.81612 57.7505 6.76972 57.7469 6.99381L57.8189 6.99528C57.9451 6.99789 58.089 7.02131 58.087 7.14355C58.0847 7.28604 57.7792 7.21858 57.7766 7.38156L57.7544 8.74625L58.0608 8.75259C58.0041 8.91443 57.9129 8.97362 57.7491 9.07209L57.7205 10.8238C57.8467 10.8265 58.027 10.8302 58.0257 10.9117C57.9513 11.0527 57.8601 11.112 57.7143 11.2108C57.5951 11.8807 57.5999 12.6958 57.589 13.368C57.5807 13.8773 57.5901 14.4072 57.8065 14.4117C58.3111 14.4222 59.7584 14.1263 60.233 13.7693C60.2666 12.8124 60.3255 11.4077 60.3428 10.3485L60.0723 10.343C60.0766 10.0781 60.2015 10.1622 60.3491 9.96155C60.3744 9.51382 60.4935 8.84392 60.5011 8.37537C60.5021 8.31437 60.5031 8.25325 60.413 8.25133L60.3769 8.25054C60.4356 7.96657 60.8521 7.85294 60.9796 7.77406C61.9632 7.1629 62.6535 6.85121 63.8972 6.87713C64.5281 6.89014 64.9439 6.81737 64.98 6.81805C65.034 6.81918 65.0875 6.86105 65.195 6.90406L64.9934 7.10359C65.4226 7.31625 66.1828 8.24895 66.2722 8.29162C66.2356 8.33157 66.1251 8.47191 66.1247 8.49228C66.1237 8.5534 66.1739 8.79888 66.1915 8.8197C66.3175 9.94288 66.2823 11.0018 66.2988 12.2042C66.3168 12.2046 66.3712 12.1854 66.4253 12.1865C66.5335 12.1887 66.5871 12.2102 66.5858 12.2916C66.5835 12.4343 66.3118 12.5101 66.2931 12.5505ZM52.3279 13.1364C52.7265 14.1227 53.8211 14.4511 54.6501 14.4684C55.0107 14.4759 56.3271 14.4624 56.3387 13.7495L56.3632 12.2423C56.3653 12.1201 56.2604 11.9141 56.1162 11.9111C55.8638 11.9059 55.6456 12.0236 55.3932 12.0183C55.3031 12.0165 55.2671 12.0157 55.2684 11.9342C55.2697 11.8527 55.3962 11.8351 55.4335 11.7543C54.807 11.4764 54.7095 10.8224 54.6486 10.1284L54.4324 10.1238C54.4324 10.1238 54.3616 10.0409 54.3626 9.97977C54.3646 9.85754 54.6523 9.90428 54.6559 9.68019C54.6628 9.25249 54.592 8.06922 54.5929 8.00811L54.3767 8.0037C54.3593 7.9625 54.3597 7.94224 54.3603 7.90149C54.364 7.6774 54.6858 7.84706 54.6897 7.60271C54.6917 7.48047 54.4036 7.45411 54.3863 7.41302L54.3686 7.3922C54.3703 7.29034 54.679 7.15418 54.697 7.15452C54.7189 5.8102 55.1488 5.98212 55.7824 5.83238C56.2149 5.84133 56.2786 5.25178 56.2872 4.72223C56.3072 3.50002 56.2143 3.66119 55.1716 3.47648C54.1982 3.45622 55.1396 1.01035 54.2384 0.991672C54.1302 0.989408 53.1515 1.2951 52.5171 1.50606C51.8435 1.89958 52.2445 2.74332 51.8921 3.34723C51.6138 3.83039 50.6814 3.50546 50.6702 4.19799C50.645 5.74592 50.5913 5.72441 51.5245 5.98834C51.7579 6.05433 51.9865 6.40552 51.9852 6.487L51.9673 7.58686C51.9673 7.58686 52.0384 7.64945 52.0745 7.65024C52.1105 7.65092 52.237 7.63315 52.2731 7.63394C52.2659 8.08201 52.0545 7.77202 52.0505 8.01648C52.0465 8.26083 52.3015 8.10318 52.353 8.26728C52.2972 8.36801 52.0973 8.46569 52.061 8.48526L52.0298 10.4C52.0278 10.5221 52.0635 10.5433 52.1356 10.5448C52.1716 10.5455 52.208 10.5259 52.2621 10.527C52.3161 10.5281 52.3699 10.5496 52.3679 10.6719C52.3672 10.7126 52.1847 10.8515 52.0585 10.8488L52.0456 11.6431C52.0366 12.1931 52.0628 12.8049 52.225 12.8083C52.2611 12.8091 52.6228 12.7351 52.6232 12.7147C52.6232 12.7147 52.7119 12.798 52.7116 12.8184C52.7083 13.0221 52.4383 12.9961 52.3279 13.1364ZM78.1281 8.80284L78.1835 8.72248L74.128 8.63817C73.9297 8.63409 73.5722 8.44328 73.5762 8.19881C73.5974 6.89523 75.7653 6.6347 76.5224 6.65043C77.2794 6.66616 79.3108 7.03433 79.29 8.31754C79.2804 8.90821 77.7977 9.16275 77.3652 9.15369L77.1488 9.14916L78.1281 8.80284ZM76.5578 15.5552L76.3765 15.6125C77.458 15.635 78.3956 15.6341 79.428 15.3499C79.6272 15.293 80.1159 15.1808 80.2461 14.9391L80.21 14.9383L76.5578 15.5552ZM59.7114 14.7976C60.0539 14.8048 60.151 14.3789 60.155 14.1345L58.2545 14.5839C58.5037 14.7725 58.9364 14.7816 59.7114 14.7976ZM79.3816 6.01709C79.3802 6.09847 79.3248 6.17882 79.2347 6.17701C79.2363 6.07515 79.2914 6.01517 79.3816 6.01709ZM58.2545 14.5839C58.219 14.5425 58.2017 14.5014 58.1659 14.4803L58.1639 14.6025L58.2545 14.5839ZM89.9909 15.6101C89.9859 15.8953 90.2744 15.9217 90.6349 15.9292C90.8512 15.9337 91.1217 15.9189 91.338 15.9234C91.5904 15.9286 91.8428 15.9543 92.1312 15.9603C92.8343 15.9749 93.5023 15.8665 93.931 15.0604L93.4983 15.0514L93.6455 14.8507L94.2414 14.7612L96.6862 11.9187C96.7954 11.8599 96.9596 11.7207 97.1219 11.7241C97.1219 11.7444 97.3722 11.8515 97.4083 11.8929L99.4765 14.4014C99.5295 14.4636 99.6197 14.4858 99.7098 14.4877L99.8541 14.4907C99.9622 14.493 100.051 14.5152 100.086 14.5974C99.9953 14.6566 99.8861 14.6951 99.7779 14.7337C100.059 15.1877 100.586 16.0545 101.162 16.0665L103.704 16.1192C103.938 16.1241 104.102 16.046 104.107 15.7405C104.116 15.2108 103.615 14.956 103.405 14.5034L102.865 14.4922C102.847 14.4918 102.795 14.3685 102.796 14.3277L102.815 14.2669L103.121 14.2734L103.124 14.1104L99.8601 9.68223C99.6477 9.41298 99.5075 9.16557 99.5135 8.79888C99.5185 8.49341 99.6477 8.33304 99.6517 8.08858C99.5616 8.08677 99.5265 8.02486 99.5265 8.00449C99.854 7.8483 100.275 7.49032 100.387 7.22775L100.388 7.14626L100.19 7.14219C100.19 7.14219 100.136 7.10031 100.137 7.0392C100.139 6.89659 100.516 7.02675 100.626 6.90678C100.681 6.8468 100.902 6.60686 100.939 6.52605L100.596 6.51903C100.637 6.25499 100.997 6.3032 101.196 6.22579C101.288 6.12585 101.727 5.76821 101.749 5.50383C101.695 5.5027 101.606 5.43966 101.516 5.41748C101.913 5.40537 101.986 5.30498 102.244 5.00472C102.685 4.4841 103.292 3.76316 103.296 3.51881C103.301 3.17249 103.032 3.14646 102.743 3.14057L100.58 3.09553C100.4 3.09179 100.145 3.18844 100.035 3.32878L98.2346 5.38997L98.487 5.39529C98.4839 5.57853 98.1244 5.50994 97.9972 5.58883C97.7779 5.78802 97.6296 6.00905 97.3592 6.00351C96.9266 5.99445 96.7723 5.52262 96.3216 5.51322C96.3036 5.51289 96.3036 5.51288 96.3046 5.47214C96.3046 5.47214 96.3046 5.45177 96.3226 5.45211C96.3226 5.43174 96.4498 5.37334 96.4859 5.37402L96.3637 5.16769L94.7723 3.21946C94.7192 3.17758 94.4157 2.96752 94.3436 2.96594L91.2799 2.90233C91.1537 2.89973 91.0065 3.05965 91.0045 3.16151C91.0015 3.34486 91.1257 3.51044 91.1958 3.61377L92.68 5.47837C92.7872 5.54175 93.0937 5.54808 93.0917 5.64994L93.0556 5.64915C92.9655 5.64734 92.9114 5.68695 92.9094 5.7887C92.9094 5.80907 92.9264 5.85027 92.9264 5.85027L93.5103 6.55514C93.6355 6.57811 94.2294 6.67194 94.2254 6.9164C94.2244 6.95714 94.1874 7.01747 94.1874 7.01747L93.8989 7.01147C94.1253 7.52552 94.3646 7.24529 94.6481 7.51601V7.53638C94.6481 7.55676 94.593 7.61674 94.593 7.61674L94.3947 7.61267L94.3927 7.7349C94.6931 8.06707 95.0637 8.60455 95.0587 8.91013C95.0367 9.15414 94.8694 9.41558 94.7412 9.57584L90.2894 15.0051L91.1367 15.0227C91.2268 15.0245 91.2609 15.1068 91.2599 15.1883C90.9694 15.2842 89.9999 15.0602 89.9909 15.6101ZM105.885 15.7367C105.872 16.5311 106.882 16.5112 107.855 16.5315C108.342 16.5416 108.793 16.5102 108.803 15.9399L108.19 15.9271L108.138 15.8039C108.158 15.682 108.284 15.6642 108.41 15.6668C108.518 15.6691 108.59 15.691 108.681 15.6929C108.933 15.6981 108.969 14.5782 108.986 13.5394L109.001 12.6228C109.007 12.2359 109.012 11.9506 109.031 11.89L108.815 11.8855C108.815 11.8855 108.798 11.824 108.799 11.7629C108.805 11.3758 109.634 11.3931 110.121 11.4032C110.085 11.3617 110.086 11.3007 110.087 11.2599C110.088 11.1784 110.108 11.0973 110.109 11.0158C110.253 11.0189 110.23 11.3036 110.301 11.4069C110.806 11.3971 113.041 11.4028 113.51 11.4125L113.511 11.331C113.515 11.107 113.612 10.6608 113.756 10.6637C114.063 10.6702 114.272 11.1431 114.267 11.4282L116.539 11.4754C116.575 11.4762 116.774 11.4192 116.846 11.4004C118.423 10.9237 119.584 9.33817 119.616 7.3828L119.274 7.37567C119.274 7.37567 119.256 7.33459 119.257 7.29385C119.295 7.19278 119.349 7.17354 119.385 7.17422C119.421 7.17501 119.457 7.19606 119.493 7.19685C119.565 7.19832 119.619 7.15871 119.624 6.85325C119.652 5.1626 118.656 3.24707 117.015 3.21289C116.835 3.20916 116.905 3.33286 116.777 3.43212C116.724 3.36987 116.69 3.2877 116.673 3.20588C116.276 3.19761 114.402 3.13831 114.006 3.13005C111.464 3.07719 108.993 3.10741 106.268 3.27491C105.997 3.26925 106.003 5.10318 106.001 5.24579C105.999 5.34765 106.073 5.30837 106.071 5.43061C106.071 5.45098 106.034 5.5113 105.997 5.51051L105.971 7.09929C105.967 7.32338 106.275 7.28898 106.273 7.39084C106.271 7.55382 106.019 7.5485 105.963 7.56774L105.954 8.15841C106.15 8.32557 106.251 8.75553 106.247 9.02025C106.245 9.10174 106.191 9.14135 106.119 9.13988C106.101 9.13954 105.957 9.07537 105.867 9.07356L105.861 9.3994C105.897 9.40019 106.097 9.34315 106.169 9.34473C106.223 9.34587 106.284 10.0602 106.281 10.2435C106.28 10.325 106.207 10.3642 106.135 10.3628C105.918 10.3582 106.088 9.93394 105.835 9.92862C105.806 11.7008 105.811 13.6161 105.837 15.3282C105.871 15.4919 106.395 15.3805 106.533 15.7501L105.885 15.7367ZM108.924 7.38473C108.93 6.9774 109.111 5.84008 109.688 5.85208L115.6 5.97499C116.195 5.98732 116.616 6.6888 116.606 7.32022C116.598 7.80914 115.779 8.24035 115.365 8.23175L109.507 8.10997C109.327 8.10623 108.921 7.52733 108.924 7.38473ZM108.122 3.49674C108.122 3.49674 108.125 3.31351 108.197 3.31498L108.828 3.32811C108.825 3.49097 108.477 3.78942 108.333 3.78648C108.171 3.78308 108.119 3.65972 108.122 3.49674ZM112.451 10.005L113.245 10.0214C113.281 10.0222 113.369 10.1055 113.369 10.1463C113.367 10.2481 113.223 10.2452 113.096 10.2426C113.006 10.2406 112.447 10.229 112.448 10.168L112.451 10.005ZM117.43 4.30143C117.433 4.11809 117.705 4.04226 117.795 4.04418C117.957 4.04758 118.045 4.17162 118.043 4.33459C117.844 4.37115 117.735 4.36889 117.555 4.36515C117.465 4.36334 117.429 4.36255 117.43 4.30143ZM117.515 6.85019C117.515 6.85019 117.88 6.6132 118.063 6.43358L118.133 6.53703C118.129 6.78138 117.82 6.93801 117.676 6.93496C117.604 6.93349 117.532 6.93202 117.515 6.85019ZM106.142 13.2561C106.286 13.2592 106.537 13.2848 106.534 13.4885C106.532 13.6515 106.46 13.6499 106.352 13.6477C106.118 13.6429 106.138 13.521 106.142 13.2561ZM113.919 8.46659C113.992 8.40695 114.028 8.38737 114.118 8.38918C114.19 8.39076 114.37 8.43524 114.422 8.55849C114.384 8.6393 114.275 8.69815 114.257 8.6977C114.113 8.69476 113.989 8.61066 113.919 8.46659ZM114.934 4.79975C114.934 4.75901 114.937 4.61641 115.045 4.61867C115.19 4.62161 115.205 4.76456 115.204 4.82567C115.202 4.96827 115.183 5.04942 115.074 5.04716C114.93 5.0441 114.931 4.94236 114.934 4.79975ZM108.132 11.749C108.134 11.6268 108.314 11.5898 108.369 11.5706C108.387 11.5709 108.584 11.5954 108.583 11.6769C108.581 11.8195 108.364 11.8557 108.292 11.8542C108.202 11.8524 108.13 11.8508 108.132 11.749ZM107.251 13.7479C107.271 13.6056 107.363 13.5872 107.435 13.5887C107.543 13.5909 107.56 13.6524 107.558 13.7542C107.557 13.8357 107.519 13.9572 107.393 13.9546C107.375 13.9339 107.25 13.8294 107.251 13.7479ZM117.922 8.46829C117.923 8.3868 117.925 8.28494 117.997 8.28641C118.141 8.28947 118.138 8.4727 118.136 8.57456C118.135 8.65605 118.134 8.71716 118.08 8.71603C117.972 8.71377 117.92 8.54966 117.922 8.46829ZM116.471 4.54635C116.467 4.79081 116.376 4.789 116.142 4.78402C116.146 4.53967 116.254 4.54194 116.471 4.54635ZM106.668 15.2843C106.794 15.2869 106.938 15.2696 107.063 15.3537C106.988 15.5151 106.916 15.5136 106.826 15.5117C106.7 15.5091 106.664 15.4473 106.668 15.2843ZM106.438 11.673C106.457 11.592 106.547 11.5938 106.583 11.5946C106.655 11.5961 106.746 11.6184 106.744 11.7202C106.743 11.8017 106.688 11.8209 106.597 11.819C106.525 11.8175 106.49 11.7964 106.438 11.673ZM108.028 13.7029C108.028 13.6825 108.137 13.644 108.174 13.6041C108.226 13.707 108.242 13.8092 108.241 13.9111C108.151 13.9092 108.026 13.8047 108.028 13.7029ZM108.188 12.7078L108.296 12.7101C108.296 12.7101 108.346 12.976 108.345 13.0371L108.344 13.0779C108.237 13.0145 108.186 12.8504 108.188 12.7078ZM110.221 9.63266C110.329 9.63492 110.526 9.70011 110.524 9.86309C110.523 9.88346 110.505 9.88312 110.487 9.88267C110.433 9.88153 110.238 9.69411 110.22 9.69377L110.221 9.63266ZM109.672 10.1714C109.689 10.1921 109.725 10.2133 109.724 10.2744C109.723 10.3557 109.65 10.3746 109.578 10.3732C109.579 10.3121 109.581 10.1898 109.672 10.1714ZM108.467 13.2841C108.502 13.3053 108.609 13.389 108.607 13.5111L108.463 13.5082L108.467 13.2841ZM107.032 11.7466C107.051 11.6858 107.123 11.6669 107.177 11.668L107.174 11.8514C107.12 11.8503 107.049 11.808 107.032 11.7466ZM115.754 9.80876C115.862 9.81102 115.898 9.85245 115.896 9.97468C115.824 9.97321 115.752 9.91062 115.754 9.80876ZM109.989 9.5463C110.007 9.54664 110.024 9.60821 110.023 9.64884C110.023 9.66921 110.004 9.68925 109.986 9.68891C109.95 9.68811 109.933 9.6674 109.933 9.64703C109.934 9.60629 109.953 9.54551 109.989 9.5463ZM118.081 5.29298L118.135 5.29411L118.08 5.3541L118.081 5.29298ZM120.855 13.0525L120.531 13.0457C120.559 13.5354 120.876 13.9495 121.16 14.3018C122.538 16.0419 124.31 16.8327 126.347 16.875C128.473 16.9191 130.609 16.4133 132.135 14.6317C132.301 14.4314 132.613 14.01 132.616 13.8267C132.617 13.8063 132.599 13.806 132.599 13.7856L132.329 13.7799C132.439 13.6803 132.62 13.6026 132.746 13.6053C132.892 13.5268 133.047 12.8576 133.068 12.7154L133.202 12.1884C133.168 12.0859 132.935 12.0199 132.899 12.0191L132.9 11.958L133.278 11.9659C133.28 11.8437 133.066 11.6762 133.03 11.6755C133.031 11.6551 133.086 11.5952 133.086 11.5952L133.284 11.5992L133.346 11.0912L133.062 10.8611C133.08 10.8208 133.098 10.8211 133.152 10.8223L133.26 10.8245C133.314 10.8257 133.351 10.806 133.351 10.7652L133.416 6.85449L133.362 6.79224L133.418 6.71189L133.429 6.03973L133.375 5.97759L133.431 5.89724C133.432 5.85649 133.415 5.79492 133.417 5.69318C133.419 5.55057 133.44 5.38794 133.445 5.08247C133.454 4.4918 133.414 3.65553 132.981 3.64659L130.998 3.60539C130.8 3.6012 130.613 3.96416 130.61 4.1474L130.591 5.30849C130.608 5.36994 130.716 5.41295 130.769 5.47508L130.589 5.47135L130.576 6.24537C130.612 6.24616 130.682 6.41061 130.735 6.43211L130.573 6.42872L130.511 10.2376C130.511 10.2783 130.69 10.3432 130.815 10.468L130.508 10.4617L130.491 11.5004L130.616 11.5845C130.526 11.5827 130.489 11.643 130.487 11.7245C130.505 11.7249 130.558 11.7871 130.576 11.7874C130.251 11.8826 129.912 12.6906 129.62 12.9291C129.511 13.049 129.092 13.2848 128.892 13.4029L129.196 13.5315C128.421 13.5153 127.713 13.8063 126.974 13.7909C125.928 13.7692 125.176 13.448 124.134 13.1818L124.369 13.1867L124.371 13.1052C123.747 12.6236 123.536 12.2729 123.243 11.4925C123.191 11.3488 123.029 11.3657 122.959 11.1402C123.05 11.1421 123.195 11.084 123.197 11.0026L123.227 9.10819C123.228 9.04719 123.032 8.96152 122.924 8.91862C123.052 8.83974 123.232 8.84347 123.233 8.78236L123.286 5.48267C123.287 5.46229 123.144 5.35749 123.091 5.31562L123.289 5.31969L123.309 4.11797C123.309 4.07723 123.13 4.01238 123.005 3.96903L123.275 3.97469C123.275 3.95432 123.193 3.44321 122.959 3.43834L120.706 3.39149L120.615 3.45068C120.847 3.5574 121.279 3.64795 121.476 3.69277C121.17 3.68643 120.865 3.57823 120.559 3.57178C120.469 3.56997 120.34 3.66922 120.339 3.77097L120.32 4.93206L120.499 5.05802L120.318 5.05418L120.266 8.23175C120.264 8.37424 120.572 8.2992 120.569 8.48255L120.262 8.4761L120.224 10.8185C120.224 10.8389 120.439 10.9452 120.529 10.9471C120.509 11.0689 120.256 11.084 120.22 11.0833L120.218 11.2055L120.435 11.21C120.435 11.21 120.488 11.2723 120.488 11.2926C120.485 11.4556 120.217 11.287 120.212 11.5518C120.204 12.0814 120.28 12.9387 120.677 12.9469L120.855 13.0525ZM132.204 10.395C132.207 10.1913 132.28 10.1725 132.442 10.1758C132.586 10.1789 132.802 10.2038 132.8 10.3666C132.797 10.55 132.49 10.5233 132.364 10.5206C132.292 10.5191 132.202 10.5173 132.204 10.395ZM131.712 10.7312C131.768 10.5897 131.822 10.5908 131.894 10.5924C131.966 10.5939 132.074 10.5961 132.072 10.6979C132.07 10.7997 131.997 10.8798 131.889 10.8775C131.817 10.876 131.746 10.8134 131.712 10.7312ZM130.788 7.61493C130.788 7.59456 130.899 7.49496 130.935 7.47538C130.935 7.47538 131.042 7.53876 131.042 7.5795C131.005 7.61946 130.931 7.71973 130.895 7.71905C130.913 7.71939 130.787 7.69642 130.788 7.61493ZM122.825 3.92455C122.806 3.94458 122.77 3.96416 122.716 3.96303C122.662 3.9619 122.572 3.93972 122.573 3.91935C122.573 3.89897 122.645 3.90045 122.717 3.90192C122.771 3.90305 122.825 3.90418 122.825 3.92455ZM129.221 15.3047L129.347 15.3073L129.219 15.4473L129.221 15.3047ZM135.17 15.5505C135.153 16.5893 135.621 16.6806 136.721 16.7034C137.243 16.7143 137.929 16.6469 137.937 16.1581L137.962 14.5898C137.818 14.5868 137.513 14.5601 137.515 14.3971C137.515 14.3971 137.57 14.3778 137.588 14.3782C137.606 14.3786 137.694 14.4619 137.712 14.4623C137.965 14.4676 137.967 14.2843 137.971 14.0805C137.974 13.9583 137.957 13.8357 137.867 13.8339C137.831 13.8331 137.83 13.8739 137.74 13.8721C137.741 13.8109 137.653 13.7072 137.653 13.6664C137.654 13.6053 137.998 13.5921 137.999 13.5106C137.999 13.5106 137.981 13.5102 137.981 13.4899L137.999 12.4104C138.001 12.3085 137.838 12.2644 137.64 12.2603C137.514 12.2577 137.388 12.2754 137.334 12.2743L137.337 12.0706C137.34 11.9076 137.382 11.5214 137.598 11.5259C137.634 11.5267 137.759 11.5904 137.795 11.5911C137.792 11.7744 137.559 11.7492 137.556 11.9325C137.555 11.9529 137.555 11.9937 137.573 11.994L137.913 12.0826L137.954 9.55683C137.955 9.49583 137.794 9.45169 137.795 9.3702C137.797 9.28871 137.923 9.2302 137.96 9.21062C138.041 8.7029 138.135 8.43999 138.535 8.24454C138.68 8.24759 138.714 8.32976 138.712 8.45199L138.71 8.59459L139.187 9.1546C139.44 9.1598 139.69 9.30773 139.78 9.30954C139.853 9.24989 139.89 9.1692 139.945 9.17033C140.053 9.17259 140.124 9.23518 140.122 9.31667C140.121 9.41853 140.048 9.4578 139.976 9.45621C139.922 9.45508 139.868 9.43358 139.814 9.43256C139.814 9.43256 139.543 9.48802 139.542 9.50839L139.541 9.58988L143.293 13.9466C143.579 14.0341 143.958 14.0827 144.009 14.2672L143.648 14.2597L143.646 14.3614L145.239 16.2487C145.627 16.7051 146.276 16.7186 146.961 16.7327C147.484 16.7436 148.441 16.7024 148.449 16.1932L148.473 14.747L148.15 14.5976C148.151 14.5163 148.225 14.4362 148.225 14.4362L148.478 14.4415C148.481 14.2582 148.542 9.36941 148.488 9.36828L148.199 9.36228L148.202 9.1993L148.493 9.08307C148.496 8.87935 148.468 6.16886 148.497 4.3561C148.483 4.15204 148.361 3.82348 148.091 3.81794L146.342 3.78161C146.018 3.77482 145.671 4.05289 145.664 4.46022L145.589 9.06349L145.894 9.2328L145.891 9.39578L145.602 9.38978L145.571 11.284C145.569 11.4266 145.457 11.6892 145.295 11.6858C145.132 11.6824 144.936 11.5357 144.831 11.3909L143.166 9.50216C143.148 9.50183 142.519 9.34609 142.52 9.28498C142.521 9.24423 142.541 9.20394 142.541 9.20394L142.811 9.20949L139.75 5.55985C139.696 5.57909 139.642 5.57796 139.588 5.57683C139.444 5.57389 139.41 5.45086 139.378 5.20572L138.829 4.58313C138.721 4.58087 138.771 4.82635 138.608 4.82296C138.554 4.82194 138.538 4.71962 138.539 4.63814C138.541 4.53639 138.596 4.43566 138.598 4.3338C138.601 4.13008 138.121 3.81443 138.013 3.81217L135.777 3.76576C135.29 3.75569 135.187 4.52779 135.176 5.19995C135.157 6.3813 135.207 6.66763 135.26 6.72988C135.241 6.7498 135.186 6.80979 135.168 6.80945L135.129 9.21288C135.201 9.21447 135.436 9.23971 135.434 9.3822C135.431 9.54517 135.196 9.54031 135.124 9.55921C135.123 9.57958 135.155 12.066 135.135 13.3084C135.369 13.3337 135.494 13.4179 135.489 13.703C135.451 13.8244 135.234 13.8404 135.233 13.9217L135.321 14.0663C135.302 14.0862 135.211 14.1862 135.193 14.1858L135.182 14.8172C135.2 14.838 135.343 14.9225 135.342 14.9836C135.34 15.0651 135.213 15.1439 135.177 15.1635L135.17 15.5505ZM135.608 9.71188C135.61 9.58965 135.666 9.50929 135.792 9.5119L136.132 9.70237L136.115 10.7207C136.204 10.8042 136.274 10.9279 136.271 11.0908L135.874 11.0826C135.883 10.553 135.6 10.2414 135.608 9.71188ZM136.515 9.36397C136.608 9.16218 136.628 9.04029 136.863 9.04515C137.043 9.04889 137.365 9.2594 137.36 9.54449C137.358 9.66672 137.285 9.66525 137.195 9.66333C137.141 9.6622 136.533 9.38469 136.515 9.36397ZM135.786 14.2797L135.788 14.1371L135.824 14.1378C135.95 14.1405 136.112 14.2049 136.112 14.2049C136.346 14.2098 136.495 13.9276 136.499 13.7035C136.698 13.7077 136.787 13.7299 136.784 13.954C136.781 14.117 136.649 14.4402 136.451 14.4361C136.235 14.4316 135.984 14.3042 135.786 14.2797ZM136.863 7.96533C136.865 7.8431 137.119 7.68533 137.227 7.68759C137.318 7.68951 137.389 7.7521 137.387 7.89471C137.383 8.13906 137.023 8.07047 136.915 8.08858C136.898 8.04749 136.862 8.02644 136.863 7.96533ZM135.407 8.81122C135.445 8.66929 135.499 8.67042 135.589 8.67235C135.733 8.67529 135.768 8.7372 135.766 8.8798C135.658 8.87754 135.496 8.87414 135.407 8.81122ZM137 10.617C137.001 10.5355 137.073 10.5369 137.109 10.5377C137.253 10.5407 137.251 10.6833 137.249 10.8055C137.141 10.8033 136.997 10.7799 137 10.617ZM136.712 15.0324C136.784 15.0339 136.891 15.0972 136.889 15.1991L136.528 15.1916C136.53 15.0694 136.657 15.0313 136.712 15.0324ZM135.369 5.59109C135.531 5.59449 135.603 5.57558 135.62 5.65741C135.6 5.75893 135.421 5.7552 135.367 5.75407L135.369 5.59109ZM139.563 8.22518C139.689 8.22779 139.706 8.26887 139.705 8.35036C139.703 8.45222 139.649 8.47146 139.559 8.46953L139.563 8.22518ZM137.381 13.8034L137.378 13.9663L137.162 13.9619C137.163 13.8601 137.254 13.8008 137.381 13.8034ZM136.275 6.42487C136.311 6.42566 136.328 6.48712 136.327 6.52786C136.327 6.54823 136.308 6.58864 136.272 6.58784C136.218 6.58671 136.219 6.54597 136.219 6.5256C136.22 6.48485 136.221 6.42374 136.275 6.42487ZM135.921 13.712C135.939 13.7124 135.957 13.7534 135.956 13.7942C135.955 13.8349 135.937 13.8753 135.919 13.8749C135.883 13.8742 135.865 13.833 135.866 13.7923C135.867 13.7516 135.885 13.7112 135.921 13.712ZM136.2 6.58637C136.218 6.58671 136.236 6.60754 136.235 6.64817C136.234 6.68891 136.216 6.70894 136.198 6.70861C136.18 6.70815 136.18 6.68778 136.181 6.64715C136.182 6.60641 136.182 6.58603 136.2 6.58637ZM140.517 9.38604L140.516 9.44716L140.462 9.44603L140.517 9.38604ZM150.914 12.21C150.9 13.1063 150.866 14.0836 150.848 15.1836C150.833 16.1204 150.906 17.1204 151.519 17.1332L153.25 17.169C153.52 17.1747 153.635 16.8306 153.638 16.627C153.64 16.5048 153.531 16.4822 153.459 16.4807C153.135 16.4739 152.827 16.5287 152.485 16.5215C152.486 16.4808 152.468 16.4601 152.468 16.4601C152.469 16.4397 152.487 16.4401 152.559 16.4009L153.268 16.0692C153.502 16.074 153.679 16.3019 153.877 16.3059L153.892 15.3894C153.874 15.4093 153.801 15.469 153.783 15.4687C153.657 15.4659 153.514 15.3 153.516 15.1778C153.519 14.9946 153.847 14.818 153.905 14.5747C153.908 14.4117 153.959 13.4755 153.98 13.2926C154.044 12.6623 154.631 12.0835 154.998 11.7244C154.981 11.6629 154.946 11.601 154.947 11.5196C154.949 11.4178 155.005 11.2967 155.095 11.2985C155.167 11.3 155.326 11.4867 155.38 11.4879C155.618 11.289 156.167 10.7095 156.582 10.7183C156.852 10.7238 157.048 10.9112 157.224 11.1594L160.304 15.8078C160.712 16.2239 160.983 17.3297 161.686 17.3443L163.524 17.3826C163.616 17.2825 163.873 16.9619 163.981 16.9642C163.981 16.9642 164.017 16.965 164.017 16.9853L164.335 17.3995C164.587 17.4047 164.735 17.2244 164.739 16.9799C164.742 16.8169 164.743 16.7354 164.655 16.5707L159.829 9.52242L159.494 9.10785C159.499 8.82276 159.562 8.25359 159.869 8.19881C159.87 8.1377 159.835 8.09627 159.817 8.05508C160.105 8.06108 161.275 7.08707 161.534 6.74595L161.481 6.66345C161.715 6.66831 162.335 6.25329 162.339 6.00883L161.87 5.9991L162.162 5.82175L161.963 5.81767C162.054 5.73811 162.542 5.66669 162.814 5.61124C163.067 5.55533 163.725 5.01886 163.731 4.67265C163.734 4.46894 163.483 4.40261 163.392 4.40069L160.058 4.33142C159.968 4.3295 159.822 4.40805 159.749 4.46758L160.109 4.47516C159.731 4.52835 159.458 4.64493 159.22 4.84378C158.818 5.18184 157.905 5.89633 157.923 5.91704L157.921 6.0189L158.192 6.02456C158.192 6.02456 158.227 6.06598 158.227 6.10673C158.224 6.2697 157.395 6.19138 157.3 6.49504L157.733 6.50398C157.584 6.78613 157.082 6.61274 156.882 6.77153L155.766 7.70604C155.802 7.70683 156.196 7.81684 156.195 7.89833C156.195 7.93907 156.103 8.03912 156.085 8.05904C155.977 8.05677 155.709 7.929 155.583 7.92639C155.113 7.97778 154.939 8.66691 154.381 8.65526C153.876 8.64484 154.196 7.75493 153.786 7.50186L153.966 7.5056L153.974 7.01679L153.794 7.01305C153.903 6.9542 153.994 6.91538 153.997 6.73203C153.998 6.63017 153.819 6.5857 153.747 6.58422L153.748 6.50274C153.874 6.50534 154.002 6.38571 154.004 6.28396C154.008 6.05987 153.954 6.03837 153.812 5.93356L154.028 5.93798C154.028 5.89724 153.946 5.42698 153.946 5.42698C154.001 5.34663 154.002 5.32625 154.006 5.08179C154.012 4.67447 153.913 4.12227 153.462 4.11288L151.732 4.07689C151.39 4.06976 151.167 4.4523 151.162 4.79862C151.161 4.85962 151.159 4.94111 151.194 5.00302C151.158 5.0226 151.158 5.0226 151.157 5.06334C151.156 5.12446 151.155 5.20595 151.191 5.22711L151.153 5.30781C151.117 5.30701 151.087 6.06032 151.081 6.44728L151.077 6.69174L151.383 6.69808C151.344 6.90101 151.076 6.77323 151.071 7.03795C151.069 7.20093 151.377 7.06477 151.374 7.24801C151.371 7.45173 151.066 7.34353 151.063 7.54725C151.061 7.649 151.096 7.7109 151.15 7.73241L151.06 7.73048C150.976 8.3808 150.965 9.07333 150.914 12.21ZM153.183 13.5205C153.188 13.215 153.549 13.202 153.694 13.2051C153.82 13.2077 153.891 13.2296 153.889 13.3925C153.885 13.6166 153.668 13.6732 153.487 13.6695C153.397 13.6675 153.181 13.6631 153.183 13.5205ZM158.623 10.4957L158.751 10.3761L159.815 10.3982L159.904 10.4816C159.632 10.5778 159.289 10.591 159.001 10.585L158.694 10.5787L158.623 10.4957ZM158.467 11.2667C158.503 11.2675 158.591 11.3712 158.609 11.3919C158.57 11.5949 158.3 11.5893 158.173 11.5867C158.178 11.3422 158.269 11.2626 158.467 11.2667ZM155.542 10.3909C155.56 10.3913 155.758 10.4158 155.755 10.5991L155.538 10.5947L155.542 10.3909ZM152.664 13.2652C152.665 13.2448 152.701 13.2456 152.701 13.2456C152.773 13.2471 152.827 13.2482 152.826 13.3093L152.697 13.4696L152.664 13.2652ZM161.572 4.424C161.536 4.42321 161.445 4.44177 161.336 4.43951C161.264 4.43804 161.175 4.41574 161.157 4.4154C161.157 4.39503 161.247 4.39684 161.337 4.39876C161.482 4.40171 161.572 4.40363 161.572 4.424ZM160.777 4.4686C160.758 4.48863 160.686 4.52779 160.632 4.52677C160.56 4.52518 160.506 4.48331 160.489 4.4626C160.489 4.44222 160.543 4.44336 160.633 4.44528C160.705 4.44675 160.777 4.44822 160.777 4.4686ZM155.323 10.5494L155.321 10.6513L155.105 10.6467C155.161 10.546 155.233 10.5476 155.323 10.5494ZM154.901 9.88867C155.01 9.89082 155.026 9.99313 155.026 9.99313C155.026 10.0135 154.97 10.0939 154.952 10.0934L154.901 9.88867ZM153.863 5.01773C153.844 5.05802 153.808 5.07772 153.754 5.07658C153.682 5.07511 153.664 5.05429 153.647 5.01321C153.647 4.99283 153.683 4.99363 153.755 4.9951C153.827 4.99657 153.863 4.99736 153.863 5.01773ZM151.599 6.66186L151.798 6.66594L151.797 6.7678C151.743 6.76666 151.616 6.74369 151.599 6.66186ZM151.401 5.55748C151.365 5.59743 151.329 5.59664 151.293 5.59596C151.257 5.59516 151.221 5.59449 151.185 5.55295C151.186 5.53258 151.24 5.53371 151.294 5.53484C151.348 5.53597 151.402 5.5371 151.401 5.55748ZM153.821 5.36327C153.803 5.38318 153.748 5.40242 153.694 5.40129C153.676 5.40095 153.641 5.37979 153.641 5.35942C153.641 5.33916 153.677 5.33984 153.695 5.34018C153.767 5.34176 153.821 5.34289 153.821 5.36327ZM160.23 4.86472C160.212 4.88475 160.175 4.90433 160.139 4.90365C160.102 4.90286 160.067 4.88169 160.049 4.86098C160.049 4.84061 160.103 4.84174 160.139 4.84254C160.176 4.84321 160.23 4.84435 160.23 4.86472ZM154.268 12.2594V12.2798C154.267 12.3001 154.23 12.3401 154.194 12.3394C154.176 12.339 154.158 12.3386 154.158 12.3182C154.158 12.2979 154.231 12.2586 154.249 12.2591L154.268 12.2594ZM164.478 14.4479C164.47 14.8961 164.61 15.1639 164.82 15.6165C165.709 17.4687 167.804 18.3477 169.553 18.384L172.382 18.4427C172.851 18.4525 173.684 18.2253 174.407 18.0773C176.473 17.4886 177.959 15.9302 178 13.4045C178.008 12.9157 177.553 13.1507 177.557 12.9063C177.561 12.6822 177.92 12.7916 177.922 12.6897C177.924 12.5472 177.759 11.5861 177.507 11.5198C177.383 11.4153 177.184 11.4722 177.041 11.3471L177.404 11.2323L177.405 11.1508C177.406 11.1304 177.212 10.8615 177.106 10.7372C176.683 10.1374 175.753 9.64952 175.068 9.59452L170.296 9.23054L168.804 9.01607C168.264 8.94375 167.946 8.50926 167.955 7.91858C167.984 6.22805 170.523 6.36228 171.479 6.38209L172.002 6.39295C172.543 6.40427 173.154 6.43732 173.601 6.69106C174.066 6.94526 174.809 7.83687 175.17 7.84434L177.061 7.88361C177.368 7.89007 177.661 7.59048 177.668 7.20353C177.677 6.61286 177.117 5.64349 176.672 5.24714C176.405 5.01751 175.989 5.13102 175.702 4.98253L176.405 4.99713C176.41 4.69156 174.994 4.17309 174.941 4.1517C174.098 3.86921 173.362 3.69095 172.803 3.6793L169.793 3.61682L168.763 3.73804L168.762 3.81952C169.14 3.82733 169.606 4.02041 169.732 4.04339C169.155 4.03139 168.579 3.91765 168.04 3.90633C167.841 3.90226 167.786 3.9215 167.478 4.03728C165.845 4.65545 164.795 6.05987 164.763 8.05598C164.754 8.60591 164.97 10.7702 165.617 10.9059C165.869 10.9112 166.337 10.982 166.336 11.0838L165.813 11.073L165.811 11.1748C165.81 11.2359 166.54 11.7809 166.703 11.7843L167.91 11.8093L168.018 11.893L173.778 12.4407C173.851 12.4422 174.138 12.4685 174.244 12.5929L174.117 12.6514C174.222 12.8371 174.437 12.9026 174.581 13.0075C174.544 13.0271 174.525 13.0879 174.525 13.0879C174.521 13.3322 174.644 13.5793 174.639 13.8441C174.612 15.5143 172.16 15.5041 171.186 15.4838C170.123 15.4618 169.133 15.3393 168.224 14.7295C167.777 14.435 167.535 13.8595 166.96 13.7253C166.437 13.7144 166.131 13.6877 165.608 13.6768C165.067 13.6655 164.489 13.7757 164.478 14.4479ZM167.779 12.1123C168.389 12.2879 169.02 12.301 169.615 12.3134C169.777 12.3168 170.426 12.3302 170.552 12.3125C169.761 12.2349 168.212 12.1008 168.176 12.1002C168.122 12.099 167.851 12.1137 167.779 12.1123ZM176.62 16.1877L176.8 16.1914C176.69 16.3317 176.546 16.3491 176.419 16.3465C176.422 16.1631 176.512 16.1854 176.62 16.1877ZM168.073 11.7923C168.073 11.8127 168.055 11.8327 168.037 11.8324C168.037 11.8324 168.019 11.8115 168.019 11.7912C168.02 11.7708 168.038 11.7713 168.038 11.7713C168.056 11.7716 168.074 11.7719 168.073 11.7923ZM165.014 8.10193C164.996 8.12197 164.995 8.14234 164.977 8.142C164.959 8.14155 164.942 8.12083 164.942 8.10046L165.014 8.10193Z" fill="#080808"/>
</svg>
