<svg width="35" height="36" viewBox="0 0 35 36" fill="none" xmlns="http://www.w3.org/2000/svg">
<ellipse cx="12.8453" cy="17.5831" rx="1.4273" ry="1.46526" stroke="black" stroke-linecap="round" stroke-linejoin="round"/>
<ellipse cx="21.4097" cy="17.5831" rx="1.4273" ry="1.46526" stroke="black" stroke-linecap="round" stroke-linejoin="round"/>
<path d="M10.7051 10.9894C15.7006 9.52418 18.5553 9.52418 23.5508 10.9894" stroke="black" stroke-linecap="round" stroke-linejoin="round"/>
<path d="M9.99023 24.1767C14.9858 25.642 19.2677 25.642 24.2633 24.1767" stroke="black" stroke-linecap="round" stroke-linejoin="round"/>
<path d="M22.1234 24.9094C22.1234 26.3747 24.2643 29.3052 24.978 29.3052C27.1189 29.3052 29.0215 26.8626 29.9736 24.9094C30.9256 22.4669 30.6872 16.3626 27.8326 8.05897C25.753 6.57173 23.5507 6.09553 21.4097 5.86108L19.9824 9.52423" stroke="black" stroke-linecap="round" stroke-linejoin="round"/>
<path d="M12.1316 24.9094C12.1316 26.3747 10.1962 29.3052 9.51676 29.3052C7.47714 29.3052 5.66589 26.8626 4.75956 24.9094C3.85322 22.4669 4.08016 16.3626 6.79775 8.05897C8.77885 6.57173 10.7685 6.09553 12.8452 5.86108L14.2725 9.52423" stroke="black" stroke-linecap="round" stroke-linejoin="round"/>
</svg>
