<svg width="31" height="30" viewBox="0 0 31 30" fill="none" xmlns="http://www.w3.org/2000/svg">
<path fill-rule="evenodd" clip-rule="evenodd" d="M28 5.01252C26.75 5.62502 25.525 5.87377 24.25 6.25002C22.8487 4.66877 20.7712 4.58127 18.775 5.32877C16.7787 6.07627 15.4712 7.90377 15.5 10V11.25C11.4438 11.3538 7.83125 9.50627 5.5 6.25002C5.5 6.25002 0.2725 15.5413 10.5 20C8.16 21.5588 5.82625 22.61 3 22.5C7.135 24.7538 11.6413 25.5288 15.5425 24.3963C20.0175 23.0963 23.695 19.7425 25.1062 14.7188C25.5272 13.1909 25.7363 11.6123 25.7275 10.0275C25.725 9.71627 27.615 6.56252 28 5.01127V5.01252Z" stroke="#EEEEEE" stroke-linecap="round" stroke-linejoin="round"/>
</svg>
