<svg width="35" height="36" viewBox="0 0 35 36" fill="none" xmlns="http://www.w3.org/2000/svg">
<path fill-rule="evenodd" clip-rule="evenodd" d="M31.9348 5.87568C30.5075 6.59366 29.1087 6.88524 27.6529 7.32628C26.0528 5.47273 23.6807 5.37017 21.4013 6.24639C19.1219 7.12261 17.6289 9.26482 17.6617 11.7221V13.1873C13.0301 13.3089 8.90521 11.1433 6.24328 7.32628C6.24328 7.32628 0.274292 18.2175 11.9525 23.4441C9.28059 25.2713 6.61581 26.5036 3.38867 26.3746C8.1102 29.0165 13.2556 29.925 17.7103 28.5974C22.82 27.0736 27.0191 23.1423 28.6306 17.2534C29.1113 15.4624 29.35 13.612 29.3399 11.7543C29.3371 11.3894 31.4952 7.6926 31.9348 5.87421V5.87568Z" stroke="black" stroke-linecap="round" stroke-linejoin="round"/>
</svg>
