<svg width="351" height="682" viewBox="0 0 351 682" fill="none" xmlns="http://www.w3.org/2000/svg">
<path d="M252.635 445.754C252.635 445.754 251.42 445.754 250.205 445.754C247.776 445.754 246.562 445.754 244.132 445.754C244.132 445.754 244.132 444.539 244.132 443.325C244.132 437.252 244.132 431.179 244.132 425.106C244.132 423.891 244.132 422.677 244.132 421.462C244.132 419.033 241.704 416.604 239.274 415.389C236.845 415.389 234.416 415.389 231.987 415.389C231.987 415.389 230.772 415.389 229.557 415.389C227.128 415.389 224.699 415.389 222.27 415.389C218.626 415.389 214.983 415.389 212.553 415.389C208.91 415.389 207.695 417.818 207.695 420.247C207.695 420.247 207.695 422.677 207.695 423.891C207.695 431.179 207.695 438.466 207.695 445.754C207.695 445.754 207.695 446.968 207.695 448.183C207.695 450.612 210.124 451.827 211.338 451.827C213.768 451.827 217.411 451.827 219.841 451.827C224.699 451.827 229.557 451.827 234.416 451.827C235.63 451.827 236.845 451.827 238.059 451.827C240.489 451.827 241.703 453.041 241.703 455.47C241.703 461.543 241.703 466.402 241.703 472.475C241.703 472.475 241.703 474.904 241.703 476.118C241.703 478.548 239.274 479.762 235.63 480.977C234.416 480.977 231.987 480.977 230.772 480.977C228.343 480.977 224.699 480.977 222.27 479.762C219.841 479.762 217.412 479.762 214.983 479.762C212.554 479.762 210.124 482.191 208.91 484.62C208.91 487.05 207.695 490.693 206.48 493.123C206.48 496.766 206.48 499.196 206.48 502.839C206.48 505.268 206.48 508.912 206.48 511.341C206.48 513.771 206.481 514.985 208.91 517.414C208.91 517.414 208.909 517.414 210.124 518.629C210.124 518.629 211.339 518.629 212.553 519.844C212.553 519.844 213.768 519.844 214.983 519.844C217.412 519.844 219.841 519.844 222.27 519.844C229.557 519.844 236.845 519.844 244.132 519.844C244.132 519.844 244.133 519.844 245.347 519.844C245.347 508.912 246.561 499.196 247.776 488.264C247.776 488.264 247.776 488.264 248.991 488.264C255.064 488.264 259.922 488.264 265.995 488.264C267.209 488.264 268.424 488.264 270.853 488.264C273.283 488.264 274.498 490.693 275.712 493.123C275.712 494.337 275.712 495.552 275.712 496.766C275.712 500.41 275.712 505.268 275.712 508.912C275.712 511.341 275.712 514.985 278.141 516.2C278.141 516.2 278.141 516.2 279.356 516.2C279.356 516.2 281.784 517.414 284.214 517.414C287.857 517.414 292.716 517.414 296.36 517.414C300.003 517.414 303.647 517.414 307.291 517.414C309.72 517.414 310.935 517.414 312.15 514.985C312.15 514.985 312.149 513.771 313.364 512.556C313.364 512.556 314.579 510.127 315.793 508.912C315.793 507.698 317.008 505.269 315.793 504.054C315.793 499.196 313.364 494.337 313.364 489.479C313.364 488.264 313.364 485.835 313.364 484.62C313.364 482.191 310.935 480.977 308.505 480.977C308.505 480.977 306.076 480.977 304.862 480.977C304.862 480.977 304.862 479.762 303.647 478.548C300.004 478.548 296.36 478.548 292.716 478.548C289.072 478.548 285.429 478.548 281.785 478.548C281.785 470.045 281.785 460.329 281.785 451.827C286.643 451.827 290.287 451.827 295.145 451.827C295.145 451.827 295.145 451.827 296.36 451.827C298.789 451.827 302.433 451.827 304.862 451.827C304.862 451.827 307.291 451.827 308.505 451.827C310.935 451.827 312.149 450.612 313.364 448.183C313.364 448.183 313.364 448.183 313.364 446.968C313.364 444.539 313.364 442.11 313.364 439.681C313.364 434.822 313.364 429.964 313.364 425.106C313.364 423.891 313.364 422.677 313.364 421.462C313.364 419.033 313.364 417.818 309.72 416.604C308.506 416.604 307.291 416.604 306.077 416.604C301.218 416.604 296.36 416.604 290.287 416.604C286.643 416.604 283 416.604 279.356 416.604C278.141 416.604 276.927 416.604 275.712 417.818C273.283 419.033 272.068 421.462 272.068 423.891C272.068 426.32 272.068 427.535 272.068 429.964C272.068 431.179 272.068 433.608 273.283 434.822C273.283 438.466 274.498 440.895 275.712 444.539C275.712 444.539 273.282 444.539 272.068 444.539C265.995 444.539 259.922 444.539 253.849 445.754H252.635Z" fill="#EEEEEE" fill-opacity="0.05"/>
<path d="M172.465 326.724C172.465 334.012 172.465 342.514 172.465 349.801C172.465 349.801 172.465 349.801 172.465 351.016C174.894 348.587 178.538 347.372 180.967 348.587C180.967 348.587 183.396 348.587 184.611 348.587C188.255 349.801 193.113 351.016 196.757 349.801C200.401 349.801 202.829 347.372 205.258 344.943C206.473 343.728 207.688 341.299 207.688 338.87C207.688 336.441 207.688 332.797 207.688 330.368C207.688 325.51 207.688 321.866 207.688 317.008C207.688 308.505 207.688 298.789 207.688 290.287C207.688 289.072 207.688 287.857 207.688 286.643C207.688 285.428 207.688 284.214 207.688 282.999C207.688 280.57 205.259 278.141 202.83 276.926C201.615 276.926 200.4 276.926 197.971 276.926C179.752 276.926 161.533 276.926 144.529 276.926C144.529 276.926 144.529 276.926 143.315 276.926C140.886 276.926 138.456 278.141 138.456 280.57C136.027 286.643 134.812 293.93 134.812 301.218C134.812 307.291 134.813 313.364 137.242 319.437C137.242 319.437 137.242 319.437 137.242 320.651C137.242 320.651 137.242 320.651 138.456 319.437C142.1 315.793 145.744 314.578 150.602 314.578C154.246 314.578 159.104 314.578 162.748 314.578C167.606 314.578 170.036 318.222 170.036 323.08C170.036 323.08 170.036 324.295 170.036 325.51L172.465 326.724Z" fill="#EEEEEE" fill-opacity="0.05"/>
<path d="M449.397 71.6607C449.397 71.6607 449.397 71.6607 448.182 71.6607C433.607 71.6607 417.818 71.6607 403.243 71.6607C400.814 71.6607 399.6 71.6607 397.17 71.6607C394.741 71.6607 391.097 71.6607 388.668 71.6607C385.024 71.6607 383.809 69.2315 383.809 65.5878C383.809 64.3732 383.809 61.944 383.809 60.7294C383.809 46.1543 383.809 30.3647 383.809 15.7897C383.809 14.5751 383.809 12.1459 383.809 10.9313C383.809 8.50213 381.381 6.07296 378.952 4.85837C377.737 4.85837 375.307 4.85837 374.093 4.85837C369.235 4.85837 363.162 4.85837 358.303 4.85837C353.445 4.85837 349.801 4.85837 344.942 4.85837C343.728 4.85837 342.514 4.85837 340.085 4.85837C342.514 4.85837 344.943 4.85835 347.372 6.07294C347.372 6.07294 347.372 7.28754 347.372 8.50212C347.372 13.3605 347.372 19.4334 347.372 24.2918C347.372 25.5063 347.372 26.7209 347.372 29.1501C347.372 32.7939 344.943 35.2231 341.299 35.2231C341.299 35.2231 338.87 35.2231 337.655 35.2231C335.226 35.2231 331.582 35.2231 329.153 35.2231C326.724 35.2231 325.509 35.2231 323.08 35.2231C319.436 35.2231 317.007 32.7939 317.007 29.1501C317.007 27.9355 317.007 25.5063 317.007 24.2918C317.007 20.648 317.007 17.0042 317.007 12.1459C317.007 12.1459 317.007 10.9313 317.007 9.71672C317.007 6.07295 314.578 3.64377 309.72 2.42918C309.72 2.42918 308.505 2.42918 307.291 2.42918C306.076 2.42918 304.862 2.42918 303.647 2.42918C293.93 2.42918 282.999 2.42918 273.282 2.42918C264.78 2.42918 257.493 2.42918 248.99 2.42918C245.347 2.42918 241.703 2.42918 238.059 2.42918C229.557 2.42918 219.84 2.42918 211.338 2.42918C202.836 2.42918 193.12 2.42918 184.617 2.42918C178.545 2.42918 172.472 2.42918 166.399 0C162.755 0 160.325 0 156.681 0C153.038 0 149.394 0 145.751 0C140.892 0 136.033 4.61519e-06 132.39 1.21459C127.531 1.21459 121.458 1.2146 116.6 2.42918C116.6 2.42918 114.171 2.42918 112.957 2.42918C109.313 2.42918 108.098 6.07295 108.098 9.71672C108.098 9.71672 108.098 10.9313 108.098 12.1459C108.098 17.0042 108.098 23.0772 108.098 27.9355C108.098 30.3647 106.884 31.5793 105.669 34.0085C104.455 35.2231 103.24 35.2231 100.811 35.2231C95.9523 35.2231 92.3088 35.2231 87.4505 35.2231C83.8067 35.2231 80.1626 35.2231 76.5189 35.2231C72.8751 35.2231 68.0168 34.0085 64.373 31.5793C64.373 31.5793 63.1583 31.5793 61.9437 30.3647C61.9437 30.3647 61.944 30.3647 60.7294 30.3647C61.944 31.5793 64.3727 32.7939 65.5873 34.0085C65.5873 34.0085 68.0171 36.4376 69.2317 37.6522C69.2317 38.8668 70.4456 40.0814 71.6602 42.5106C71.6602 47.3689 71.6602 52.2273 71.6602 57.0856C71.6602 59.5148 69.2315 61.944 66.8023 63.1586C66.8023 63.1586 65.5876 63.1586 64.373 63.1586C59.5147 63.1586 53.4419 63.1586 48.5835 63.1586C44.9397 63.1586 40.0814 63.1586 36.4376 63.1586C35.223 63.1586 32.7936 63.1586 31.579 63.1586C31.579 63.1586 31.579 64.3732 31.579 65.5878C31.579 65.5878 31.5794 65.5878 32.794 65.5878C34.0086 65.5878 36.4373 65.5877 37.6519 68.0169C37.6519 68.0169 37.6519 68.0169 37.6519 69.2315C37.6519 74.0899 37.6519 77.7336 37.6519 82.592C37.6519 85.0211 37.6519 87.4503 37.6519 88.6649C37.6519 93.5232 36.4372 97.167 35.2226 102.025C35.2226 103.24 35.2232 103.24 32.794 104.455C31.5794 104.455 29.15 104.455 27.9354 104.455C23.077 104.455 18.219 104.455 14.5752 104.455C13.3606 104.455 12.1454 104.455 10.9308 104.455C7.28708 104.455 4.85791 108.098 4.85791 111.742C4.85791 114.171 4.85791 117.815 4.85791 120.244C4.85791 126.317 6.07294 131.175 6.07294 137.248V138.463C8.50211 139.678 10.931 142.107 13.3602 142.107C14.5748 142.107 15.7892 142.107 17.0038 142.107C19.433 142.107 23.0769 142.107 25.506 142.107C27.9352 142.107 29.1498 142.107 31.579 143.321C34.0082 144.536 36.4376 146.965 36.4376 149.394C36.4376 150.609 36.4376 153.038 36.4376 155.467C36.4376 160.326 36.4376 165.184 36.4376 168.828C36.4376 170.042 36.4375 171.257 34.0083 171.257C34.0083 171.257 31.5793 171.257 30.3647 171.257C24.2918 171.257 18.2188 171.257 12.1459 171.257C12.1459 171.257 12.1454 171.257 10.9308 171.257C8.50167 171.257 4.8582 173.686 3.64362 176.115C1.21444 178.544 0 182.188 0 187.047C1.21459 194.334 2.42873 201.622 4.85791 207.695C4.85791 208.909 4.85835 211.338 6.07294 212.553C13.3605 211.338 21.8621 210.124 29.1497 210.124C34.008 210.124 37.6522 210.124 42.5106 210.124C49.7981 210.124 55.8712 210.124 63.1587 210.124C63.1587 210.124 64.3727 210.124 65.5873 210.124C65.5873 217.411 65.5877 224.699 66.8023 230.772C66.8023 238.059 66.802 244.132 68.0166 251.42C68.0166 258.707 68.0171 264.78 69.2317 272.068C69.2317 272.068 68.0169 272.068 66.8023 272.068C63.1586 272.068 59.5148 270.853 54.6564 269.638C52.2273 269.638 48.5834 269.639 46.1542 268.424C44.9396 268.424 43.7252 268.424 42.5106 268.424C41.296 269.639 40.0815 272.068 38.867 273.282C38.867 273.282 37.6522 275.711 36.4376 275.711C36.4376 275.711 35.2229 276.926 34.0083 278.141C34.0083 278.141 34.0083 279.355 34.0083 280.57C34.0083 285.428 34.0083 290.286 34.0083 296.359C34.0083 303.647 34.0083 310.935 34.0083 317.007C34.0083 320.651 34.0083 325.51 34.0083 329.153C34.0083 330.368 34.0086 331.582 32.794 332.797C32.794 332.797 31.579 334.012 31.579 335.226C31.579 335.226 32.7937 337.655 34.0083 337.655C29.15 337.655 24.2915 337.655 19.4331 337.655C18.2185 337.655 17.0041 337.655 15.7895 337.655C13.3603 337.655 10.9314 337.655 8.50226 337.655C4.8585 337.655 2.42888 338.87 1.21429 342.514C1.21429 344.943 1.21429 346.158 1.21429 348.587C1.21429 355.874 1.21429 364.376 1.21429 371.664C1.21429 371.664 1.21429 372.878 1.21429 374.093C1.21429 375.308 2.42903 376.522 3.64362 376.522C4.8582 376.522 6.07264 376.522 7.28723 376.522C12.1456 376.522 17.0044 376.522 20.6481 375.308C24.2919 375.308 27.9352 375.308 31.579 375.308C31.579 375.308 32.7937 375.308 34.0083 375.308C34.0083 375.308 34.0083 377.737 34.0083 378.951C34.0083 387.454 34.0083 397.17 34.0083 405.672C34.0083 405.672 34.0083 406.887 34.0083 408.102C34.0083 408.102 34.008 408.102 35.2226 408.102C36.4372 408.102 38.8667 409.316 40.0812 409.316C41.2958 409.316 42.5103 409.316 43.7249 409.316C49.7978 410.531 55.8712 411.745 63.1587 412.96C64.3733 412.96 66.802 412.96 68.0166 412.96C68.0166 415.389 68.0166 417.818 68.0166 419.033C68.0166 446.968 68.0166 474.904 68.0166 502.839C68.0166 502.839 68.0166 504.054 68.0166 505.269C68.0166 507.698 70.4461 510.127 72.8753 510.127C72.8753 510.127 72.875 510.127 74.0896 510.127C81.3771 510.127 87.4502 510.127 94.7377 510.127C95.9523 510.127 97.1667 510.127 98.3813 510.127C98.3813 510.127 98.3818 510.127 99.5963 510.127C99.5963 510.127 99.5963 511.341 99.5963 512.556C99.5963 516.2 99.5963 518.629 99.5963 522.273C98.3818 521.058 97.1666 518.629 95.952 517.414C95.952 518.629 95.952 519.844 95.952 519.844C95.952 533.204 95.952 546.565 95.952 559.925C95.952 564.783 95.952 568.427 95.952 573.285C95.952 580.573 95.952 587.861 95.952 595.148C95.952 603.65 95.952 612.152 95.952 620.654C95.952 621.869 95.952 624.298 95.952 625.513C95.952 631.586 95.952 637.659 95.952 644.946C95.952 651.019 94.7377 655.877 94.7377 661.95C94.7377 664.38 94.7377 668.023 94.7377 670.452C94.7377 674.096 97.1672 677.74 99.5963 678.955C99.5963 678.955 99.596 678.955 100.811 680.169C100.811 680.169 103.24 681.384 104.454 681.384C112.956 681.384 120.244 681.384 128.746 681.384C129.961 681.384 132.39 681.384 132.39 678.955C133.604 676.525 134.819 675.311 134.819 672.882C134.819 671.667 134.819 670.453 134.819 669.238C134.819 666.809 134.819 664.38 134.819 663.165C134.819 654.663 134.819 647.375 136.034 638.873C136.034 632.8 136.034 627.942 136.034 621.869V619.44C136.034 612.152 136.034 606.079 136.034 598.792C136.034 591.504 136.034 584.217 136.034 576.929C136.034 574.5 136.034 573.285 136.034 570.856C136.034 561.14 136.034 550.208 136.034 540.492C136.034 534.419 136.034 529.56 134.819 523.487C134.819 517.414 133.604 511.341 132.39 504.054C132.39 504.054 132.39 501.625 132.39 500.41C131.175 501.625 129.961 502.839 128.746 504.054C128.746 505.269 126.317 506.483 123.888 506.483C123.888 506.483 121.458 506.483 120.244 506.483C114.171 506.483 109.313 506.483 103.24 506.483C103.24 506.483 103.24 506.483 102.025 506.483C100.81 501.625 102.025 501.625 102.025 496.766C102.025 495.552 102.025 493.123 102.025 491.908C102.025 489.479 102.025 487.05 102.025 484.62C102.025 479.762 102.025 474.904 102.025 470.045C102.025 460.329 102.025 450.612 102.025 440.895C102.025 432.393 102.025 423.891 102.025 414.174C102.025 405.672 102.025 397.17 102.025 388.668C102.025 388.668 102.025 387.453 102.025 386.239C102.025 376.522 102.025 366.806 102.025 357.089C102.025 353.445 102.025 348.587 102.025 344.943C102.025 343.728 102.025 341.299 102.025 340.085C102.025 336.441 99.596 335.226 94.7377 334.012C93.5231 334.012 92.3087 334.012 91.0941 334.012C85.0211 334.012 78.9482 334.012 72.8753 334.012C72.8753 334.012 71.6605 334.012 70.4459 334.012V331.582C70.4459 318.222 70.4459 306.076 70.4459 292.716C70.4459 287.857 70.4459 282.999 70.4459 278.141C70.4459 276.926 70.4459 274.497 70.4459 273.282C71.6605 270.853 74.0897 269.639 76.5189 268.424C76.5189 268.424 77.7336 268.424 78.9482 268.424C82.592 268.424 85.021 268.424 88.6648 268.424C92.3085 268.424 94.7375 268.424 98.3813 268.424C98.3813 265.995 98.3813 264.78 98.3813 262.351C98.3813 259.922 98.3813 257.493 98.3813 256.278C98.3813 253.849 98.3813 252.634 98.3813 250.205C98.3813 247.776 98.3813 245.347 98.3813 244.132C98.3813 241.703 98.3813 240.488 98.3813 238.059C99.5959 238.059 102.025 238.059 103.24 238.059C106.884 238.059 109.313 238.059 112.957 238.059C116.6 238.059 120.244 238.059 122.673 238.059C122.673 238.059 123.888 238.059 125.102 238.059C127.532 238.059 129.961 238.059 131.175 238.059C131.175 238.059 131.175 238.059 132.39 238.059C132.39 234.415 132.39 229.557 132.39 225.913C132.39 222.27 132.39 217.411 132.39 213.767C132.39 212.553 132.39 211.338 132.39 210.124C132.39 208.909 132.39 207.695 134.819 207.695C136.034 207.695 137.248 207.695 139.678 207.695C143.321 207.695 148.18 208.909 151.823 210.124C155.467 210.124 159.111 210.124 162.754 210.124C163.969 210.124 165.184 210.124 166.399 210.124V207.695C166.399 200.407 166.399 193.119 166.399 187.047C166.399 184.617 166.399 182.188 166.399 179.759C166.399 179.759 166.399 178.544 166.399 177.33C168.828 174.901 171.256 173.686 174.9 173.686C182.188 173.686 189.476 173.686 196.763 173.686C202.836 173.686 207.694 173.686 213.767 173.686C216.196 173.686 218.626 173.686 222.269 173.686C222.269 173.686 223.484 176.115 223.484 177.33C223.484 179.759 223.484 180.974 223.484 183.403C223.484 188.261 223.484 191.905 224.699 196.763C224.699 202.836 224.698 207.695 225.913 213.767C225.913 217.411 225.913 219.84 225.913 223.484C225.913 227.128 225.913 230.772 225.913 234.415C225.913 235.63 225.913 238.059 225.913 239.274C225.913 241.703 228.342 242.918 230.772 242.918C230.772 242.918 233.201 242.918 234.415 242.918C238.059 242.918 241.703 242.918 244.132 241.703C247.776 241.703 251.42 240.488 255.063 239.274C256.278 239.274 257.492 239.274 258.707 238.059C262.351 233.201 265.995 228.343 267.209 223.484C267.209 219.84 267.209 216.197 267.209 212.553C267.209 204.051 267.209 196.763 267.209 188.261C267.209 180.974 267.209 172.471 267.209 165.184C267.209 156.682 267.209 148.18 267.209 140.892C267.209 140.892 267.209 140.892 267.209 139.678C267.209 139.678 267.209 139.678 268.424 139.678C274.497 139.678 281.785 139.678 287.857 139.678C287.857 139.678 287.857 139.678 289.072 139.678C289.072 143.321 289.072 146.965 289.072 150.609C289.072 155.467 289.072 160.326 289.072 165.184C289.072 165.184 289.072 166.399 289.072 167.613C289.072 167.613 289.072 168.828 291.501 167.613V159.111C291.501 156.682 291.501 153.038 291.501 150.609C291.501 148.18 291.501 144.536 291.501 142.107C291.501 142.107 291.501 142.107 292.715 142.107C292.715 148.18 292.715 154.253 292.715 160.326C292.715 162.755 292.715 163.969 292.715 166.399C292.715 168.828 295.145 171.257 297.574 171.257C298.789 171.257 301.217 171.257 302.432 171.257C307.29 171.257 312.149 171.257 317.007 171.257C317.007 171.257 318.222 171.257 319.436 171.257C319.436 171.257 319.436 173.686 319.436 174.901C319.436 185.832 319.436 196.763 319.436 207.695C319.436 207.695 319.436 208.909 319.436 210.124C319.436 210.124 319.436 208.909 319.436 207.695C319.436 204.051 319.436 200.407 319.436 196.763C319.436 191.905 319.436 187.047 319.436 182.188C319.436 179.759 319.436 177.33 319.436 174.901C320.651 174.901 321.866 174.901 321.866 174.901C321.866 177.33 321.866 178.544 321.866 180.974C321.866 185.832 321.866 190.69 321.866 195.549C321.866 197.978 321.866 200.407 321.866 202.836C326.724 202.836 331.583 202.836 336.441 202.836C338.87 202.836 340.085 202.836 342.514 202.836C342.514 202.836 344.943 202.836 346.158 202.836C349.801 202.836 351.016 206.48 352.23 208.909C352.23 210.124 352.23 211.338 352.23 213.767C352.23 221.055 352.23 227.128 352.23 234.415C352.23 239.274 352.23 245.347 352.23 250.205C352.23 253.849 352.23 257.493 352.23 261.136C352.23 265.995 348.587 268.424 343.728 269.638C341.299 269.638 338.87 269.638 335.226 269.638C325.509 269.638 315.793 269.638 307.291 269.638C301.218 269.638 296.359 269.638 290.286 269.638C290.286 269.638 289.072 269.638 287.857 269.638C287.857 267.209 287.857 264.78 285.428 261.136C284.214 264.78 282.999 268.424 281.785 272.068C281.785 275.711 280.57 279.355 281.785 282.999C281.785 287.857 282.999 292.716 282.999 297.574C282.999 300.003 282.999 301.218 284.213 302.432C285.428 304.862 287.857 306.076 290.286 307.291C292.715 307.291 295.145 307.291 297.574 307.291C298.789 307.291 301.217 307.291 302.432 307.291C307.29 307.291 312.149 307.291 317.007 307.291C317.007 307.291 317.008 307.291 318.222 307.291C318.222 307.291 318.222 308.505 318.222 309.72C318.222 313.364 318.222 315.793 318.222 319.437C318.222 323.08 318.222 326.724 318.222 331.582C318.222 335.226 318.222 338.87 318.222 343.728C318.222 343.728 318.222 343.728 318.222 344.943C318.222 344.943 319.436 344.943 320.651 343.728C323.08 342.514 325.51 341.299 327.939 341.299C329.153 341.299 330.368 341.299 331.582 341.299C332.797 341.299 334.011 341.299 335.226 341.299C337.655 341.299 341.299 341.299 343.728 341.299C343.728 341.299 343.728 341.299 343.728 342.514C344.943 347.372 346.157 352.23 347.372 357.089C347.372 361.947 348.587 366.806 349.801 371.664C349.801 376.522 349.801 381.381 349.801 387.454C349.801 395.956 349.801 403.243 349.801 411.745C349.801 416.604 349.801 421.462 349.801 426.32C349.801 429.964 349.801 432.393 349.801 436.037C349.801 440.895 349.801 445.754 349.801 449.397C349.801 454.256 349.801 457.9 349.801 462.758C349.801 467.616 349.801 472.475 349.801 477.333C349.801 477.333 349.801 479.762 349.801 480.977C349.801 480.977 349.801 478.548 349.801 477.333C349.801 473.689 349.801 470.045 349.801 466.402C349.801 462.758 349.801 457.9 349.801 454.256C349.801 450.612 349.801 446.968 349.801 443.325V440.895C349.801 445.754 349.801 506.483 349.801 508.912C349.801 508.912 347.372 508.912 346.158 508.912C343.728 508.912 342.514 508.912 340.085 508.912C335.226 508.912 330.368 508.912 325.509 508.912C321.866 508.912 318.222 508.912 314.578 508.912C314.578 508.912 313.364 508.912 312.149 508.912C312.149 513.771 313.363 517.414 314.578 522.273C314.578 527.131 315.793 531.989 317.007 536.848C317.007 539.277 315.793 541.706 313.363 541.706C313.363 541.706 312.149 541.706 310.934 541.706C306.076 541.706 301.217 541.706 296.359 541.706C292.715 541.706 290.286 541.706 286.642 541.706C285.428 541.706 284.213 541.706 282.999 541.706C281.784 541.706 280.569 542.921 280.569 544.135C280.569 545.35 280.569 546.565 280.569 547.779C280.569 551.423 280.569 555.067 280.569 558.71C280.569 563.569 280.569 568.427 280.569 573.285C280.569 573.285 280.569 573.285 280.569 574.5H190.69C190.69 574.5 189.476 574.5 188.261 574.5C188.261 574.5 188.261 574.5 187.046 574.5C187.046 572.071 187.046 568.427 187.046 565.998C187.046 563.569 187.046 561.14 187.046 558.71C187.046 556.281 187.046 553.852 187.046 550.208C187.046 547.779 187.046 545.35 187.046 541.706C187.046 541.706 185.832 541.706 184.617 541.706C177.33 541.706 170.042 541.706 161.54 541.706C159.111 541.706 156.682 541.706 154.253 541.706C151.824 541.706 149.394 542.921 146.965 545.35C146.965 545.35 145.751 547.779 145.751 548.994C145.751 551.423 145.751 555.067 145.751 557.496C145.751 562.354 148.179 567.213 146.965 572.071C146.965 575.715 146.965 578.144 150.608 580.573C150.608 580.573 153.038 580.573 154.253 580.573C154.253 580.573 156.682 580.573 157.896 580.573C161.54 580.573 165.183 580.573 168.827 580.573C172.471 580.573 174.901 580.573 178.545 580.573C178.545 580.573 180.974 580.573 182.188 580.573C182.188 580.573 182.188 581.788 182.188 583.002C182.188 589.075 182.188 596.363 182.188 602.436C182.188 602.436 182.188 603.65 182.188 604.865C182.188 607.294 184.617 610.938 187.046 610.938C187.046 610.938 188.261 610.938 189.475 610.938C193.119 610.938 195.548 610.938 199.192 610.938C202.836 610.938 206.48 610.938 210.124 610.938C210.124 610.938 212.553 610.938 213.767 610.938C216.196 610.938 216.196 613.367 217.411 615.796C217.411 615.796 217.411 617.011 217.411 618.225C217.411 625.513 217.411 631.586 217.411 638.873C217.411 646.161 217.411 654.663 217.411 661.95C217.411 666.809 217.411 670.453 219.84 674.096C221.055 676.525 223.484 677.74 225.913 677.74C231.986 677.74 239.274 677.74 245.347 677.74C246.561 677.74 248.99 677.74 250.205 677.74C250.205 677.74 252.634 677.74 253.848 677.74C256.278 677.74 259.921 677.74 262.351 677.74C264.78 677.74 265.995 677.74 267.209 674.096C265.995 674.096 264.78 674.096 263.566 672.882C259.922 671.667 257.493 669.238 257.493 664.38C257.493 663.165 257.493 660.736 257.493 659.521C257.493 655.877 257.493 653.448 257.493 649.805C257.493 647.375 257.493 644.946 257.493 642.517C257.493 634.015 257.493 626.727 257.493 618.225C257.493 617.011 257.493 615.796 257.493 614.581C257.493 612.152 258.707 610.938 261.136 610.938C261.136 610.938 263.565 610.938 264.78 610.938C269.638 610.938 274.497 610.938 279.355 610.938C282.999 610.938 285.428 610.938 287.857 608.508C290.287 608.508 291.501 606.079 292.715 602.436C292.715 601.221 292.715 598.792 292.715 597.577C292.715 592.719 292.715 586.646 292.715 581.788C292.715 581.788 293.93 581.788 295.145 581.788C300.003 581.788 304.862 579.358 309.72 579.358C312.149 579.358 315.793 578.144 318.222 578.144C319.437 578.144 320.651 578.144 321.866 576.929C321.866 576.929 323.081 574.5 324.295 574.5C326.724 572.071 329.153 569.642 329.153 567.213C329.153 563.569 329.153 561.14 329.153 557.496C329.153 555.067 329.153 552.637 329.153 548.994C329.153 547.779 329.153 546.564 329.153 545.35C329.153 545.35 329.153 545.35 330.368 545.35C334.012 545.35 336.441 545.35 340.085 545.35C344.943 545.35 348.586 545.35 353.445 545.35C354.659 545.35 355.874 545.35 357.088 545.35C359.518 545.35 361.947 542.921 361.947 540.492V538.062C361.947 536.848 361.947 535.633 361.947 534.419C361.947 531.99 361.947 529.56 361.947 527.131C361.947 524.702 361.947 523.487 361.947 521.058C361.947 517.414 365.59 513.771 369.234 511.341C371.663 511.341 374.093 510.127 376.522 510.127C378.951 510.127 380.166 510.127 382.595 510.127C385.024 510.127 387.453 509.317 389.882 507.698C393.526 505.268 394.741 502.839 394.741 497.981C394.741 496.766 394.741 494.337 394.741 493.123C393.526 488.264 392.311 483.406 393.526 479.762C393.526 476.118 393.526 472.475 393.526 468.831C393.526 463.973 393.526 457.9 394.741 453.041C394.741 446.968 394.741 440.895 394.741 434.822C394.741 425.106 394.741 416.604 394.741 406.887C394.741 400.814 394.741 394.741 394.741 389.883C394.741 383.81 394.741 378.951 394.741 372.878C394.741 365.591 394.741 358.303 394.741 351.016C394.741 329.153 394.741 308.505 394.741 286.643C394.741 267.209 394.741 247.776 394.741 228.342C394.741 223.484 394.741 217.411 394.741 212.553C394.741 210.124 394.741 208.909 394.741 206.48C394.741 206.48 394.741 204.051 394.741 202.836C394.741 202.836 397.17 202.836 398.385 202.836C404.458 202.836 410.531 202.836 416.603 202.836C420.247 202.836 422.676 201.622 423.891 199.192C425.105 197.978 426.32 196.763 426.32 194.334C426.32 189.476 426.32 185.832 426.32 180.974C426.32 176.115 426.32 171.257 425.106 165.184C425.106 163.969 425.106 162.755 425.106 160.326C425.106 160.326 425.106 159.111 425.106 157.896C425.106 157.896 425.106 157.896 425.106 156.682C421.462 156.682 417.818 156.682 414.174 156.682C410.53 156.682 406.887 156.682 403.243 156.682C399.6 156.682 395.955 156.682 392.312 156.682C392.312 156.682 392.312 154.253 392.312 153.038C392.312 137.248 392.312 121.459 392.312 104.455C392.312 104.455 392.312 103.24 392.312 102.025C392.312 99.5962 393.526 98.3816 395.955 98.3816C397.17 98.3816 398.385 98.3816 400.814 98.3816C405.672 98.3816 411.745 98.3816 417.818 98.3816C420.247 98.3816 421.462 98.3816 423.891 97.167C426.32 97.167 427.535 94.7379 426.32 92.3087C426.32 82.592 426.32 72.8753 426.32 63.1586C426.32 63.1586 426.32 63.1586 426.32 61.944L449.397 71.6607Z" fill="#EEEEEE" fill-opacity="0.05"/>
</svg>
