<svg width="243" height="27" viewBox="0 0 243 27" fill="none" xmlns="http://www.w3.org/2000/svg">
<g clip-path="url(#clip0_245_117)">
<path d="M1.33981 19.564C1.33981 20.356 3.24781 22.552 4.00381 23.2C6.45181 25.324 9.40381 26.584 12.5718 26.872H14.5878C19.5198 26.872 24.0198 25.18 27.2958 21.328C27.4758 21.04 27.5478 20.896 27.5478 20.572C27.5478 19.6 25.4238 18.34 24.5598 18.34H24.4158L24.5238 18.232C24.3438 17.872 23.7678 17.728 23.3718 17.728C22.5798 17.728 21.8238 18.52 21.3558 19.06L21.4998 19.168C20.5638 19.6 19.6998 20.248 18.7278 20.644C16.9998 21.328 15.0918 21.328 13.2918 21.328V21.22C10.5198 20.716 7.89181 19.564 6.77581 16.756C6.48781 16 6.55981 15.064 5.65981 14.992V14.812L6.16381 14.56V13.012C5.98381 13.012 5.76781 13.12 5.44381 13.12C5.37181 13.12 5.29981 13.084 5.29981 13.048C5.65981 12.58 5.73181 12.688 6.16381 12.4C6.34381 12.328 6.77581 10.96 6.77581 10.708C6.77581 10.636 6.77581 10.564 6.63181 10.492C6.84781 10.24 7.35181 10.168 7.35181 9.66401C7.27981 9.77201 7.17181 9.77201 7.02781 9.77201C6.84781 9.77201 6.55981 9.77201 6.52381 9.66401C6.52381 9.62801 6.73981 9.05201 6.95581 9.05201C7.17181 9.05201 7.17181 9.34001 7.38781 9.34001C8.03581 9.34001 8.75581 8.18801 9.69181 7.61201C11.0958 6.56801 12.8598 6.13601 14.5518 6.13601C16.1358 6.13601 17.6118 6.67601 19.1958 6.74801C19.0518 6.78401 18.9078 6.85601 18.8358 7.03601C20.0598 7.61201 21.1038 8.65601 21.9678 9.66401L22.1838 9.77201C22.2558 9.77201 25.2078 9.30401 26.4678 9.08801C27.0078 8.98001 27.6558 8.62001 27.6558 7.97201C27.6558 7.14401 26.2518 5.23601 25.2798 5.23601C25.2078 5.23601 25.0638 5.27201 24.9918 5.30801L25.4238 5.05601V4.98401C22.6878 1.78001 19.0878 1.06001 15.2358 1.06001C13.1478 1.06001 11.4558 1.16801 9.43981 1.70801C9.15181 1.78001 9.43981 2.17601 9.07981 2.17601C8.82781 2.17601 8.71981 2.06801 8.46781 2.06801C6.52381 2.06801 3.75181 4.62401 2.56381 5.92001C2.52781 5.92001 2.52781 5.92001 2.52781 5.95601C2.52781 5.99201 2.63581 6.17201 2.74381 6.17201C1.51981 6.20801 0.331812 10.168 0.331812 10.888C0.331812 10.996 0.511813 11.104 0.799812 11.104C0.799812 11.104 0.799813 11.104 0.835813 11.068C0.619813 11.536 0.115812 11.248 0.115812 11.896C0.151812 11.968 0.259812 12.148 0.259812 12.184C0.259812 12.112 0.0078125 13.228 0.0078125 13.552H0.691812C0.691812 13.552 0.763812 13.66 0.763812 13.696C0.763812 14.092 0.0078125 13.912 0.0078125 14.416C0.0078125 14.704 0.0438125 14.992 0.115812 15.316C0.439812 15.316 0.835813 15.424 0.835813 15.568C0.691813 16 0.223812 15.424 0.223812 16.18C0.223812 16.864 0.655812 18.988 1.48381 19.276C1.33981 19.348 1.33981 19.456 1.33981 19.564ZM22.5798 10.24C22.5798 10.492 23.0838 10.528 23.2998 10.528C23.9118 10.528 24.6678 10.06 25.2438 9.77201C25.0638 9.77201 23.4078 9.91601 22.5798 10.24ZM22.1838 22.768C22.1838 22.624 22.2558 22.444 22.5438 22.444C22.9038 22.444 23.0118 23.2 23.0118 23.308C22.5798 23.308 22.1838 23.272 22.1838 22.768ZM10.9518 24.928C10.9518 24.46 11.2038 24.388 11.6718 24.388C11.6718 24.676 11.6718 25.252 11.2398 25.252C11.0238 25.252 10.9518 25.108 10.9518 24.928ZM16.1358 24.316C16.1358 24.244 16.2798 24.172 16.4958 24.1C16.7478 24.1 16.8918 24.388 16.8918 24.604C16.8918 24.748 16.8198 24.82 16.7118 24.82C16.6758 24.82 16.1358 24.424 16.1358 24.316ZM18.7278 24.46C19.0518 24.46 19.6278 24.568 19.6278 25C19.6278 25 19.4478 25 19.4478 24.964C19.2318 24.856 18.7278 24.64 18.7278 24.604V24.46ZM19.1958 23.632C19.1958 23.416 19.3758 23.236 19.5198 23.236V23.92C19.3758 23.92 19.1958 23.884 19.1958 23.632ZM3.85981 12.544V12.4C4.03981 12.436 4.03981 12.58 4.03981 12.688C4.03981 12.688 4.03981 12.76 4.00381 12.76C3.85981 12.724 3.85981 12.652 3.85981 12.544ZM18.3318 3.50801C18.4398 3.50801 18.4758 3.58001 18.4758 3.65201C18.4758 3.72401 18.4398 3.76001 18.3318 3.76001C18.2598 3.76001 18.2598 3.72401 18.2598 3.65201C18.2598 3.58001 18.2598 3.50801 18.3318 3.50801ZM23.1558 18.592C23.2278 18.592 23.2638 18.664 23.2638 18.772C23.2638 18.772 23.2278 18.844 23.1558 18.844C23.0838 18.844 23.0838 18.772 23.0838 18.772C23.0838 18.664 23.0838 18.592 23.1558 18.592ZM7.67581 5.81201C7.74781 5.81201 7.81981 5.88401 7.89181 5.92001H7.49581C7.53181 5.88401 7.63981 5.81201 7.67581 5.81201ZM22.6878 18.7C22.7238 18.7 22.7598 18.772 22.7598 18.844C22.7598 18.88 22.7238 18.916 22.6878 18.916C22.6158 18.916 22.5798 18.88 22.5798 18.844C22.5798 18.772 22.6158 18.7 22.6878 18.7ZM0.511813 11.896C0.547813 11.896 0.583812 12.004 0.583812 12.076C0.583812 12.112 0.547813 12.184 0.511813 12.184C0.439813 12.184 0.403812 12.112 0.403812 12.076C0.403812 12.004 0.439813 11.896 0.511813 11.896ZM11.1318 5.92001C11.1678 5.92001 11.2038 5.95601 11.2038 6.06401C11.2038 6.10001 11.1678 6.17201 11.1318 6.17201C11.0598 6.17201 11.0238 6.10001 11.0238 6.06401C11.0238 5.95601 11.0598 5.92001 11.1318 5.92001ZM5.22781 23.38C5.22781 23.38 5.26381 23.488 5.26381 23.56C5.26381 23.596 5.22781 23.632 5.22781 23.632C5.15581 23.632 5.11981 23.596 5.11981 23.56C5.11981 23.488 5.15581 23.38 5.22781 23.38ZM18.2238 6.42401C18.2598 6.42401 18.2958 6.49601 18.2958 6.53201C18.2958 6.60401 18.2598 6.64001 18.2238 6.64001C18.1518 6.64001 18.1158 6.60401 18.1158 6.53201C18.1158 6.49601 18.1518 6.42401 18.2238 6.42401ZM22.3638 18.844C22.3998 18.844 22.3998 18.88 22.3998 18.916C22.3998 18.988 22.3998 19.06 22.3638 19.06C22.2918 19.06 22.2558 18.988 22.2558 18.916C22.2558 18.88 22.2918 18.844 22.3638 18.844ZM21.8238 18.916C21.8598 18.916 21.8958 18.988 21.8958 19.096C21.8958 19.132 21.8598 19.168 21.8238 19.168C21.7518 19.168 21.7518 19.132 21.7518 19.096C21.7518 18.988 21.7518 18.916 21.8238 18.916ZM11.7078 5.99201C11.6718 6.06401 11.6718 6.10001 11.5998 6.10001C11.5638 6.10001 11.4918 6.06401 11.4918 5.99201C11.4918 5.95601 11.5638 5.95601 11.5998 5.95601C11.6718 5.95601 11.7078 5.95601 11.7078 5.99201ZM24.1638 18.448C24.1278 18.484 24.1278 18.52 24.0918 18.52C24.0558 18.52 24.0198 18.484 24.0198 18.448C24.0198 18.376 24.0558 18.376 24.0918 18.376C24.1278 18.376 24.1638 18.376 24.1638 18.448ZM23.6598 18.592C23.6598 18.628 23.6238 18.664 23.5878 18.664C23.5878 18.664 23.5518 18.628 23.5518 18.592C23.5518 18.556 23.5878 18.556 23.5878 18.556C23.6238 18.556 23.6598 18.556 23.6598 18.592ZM13.0398 21.508C13.0398 21.544 13.0038 21.58 12.9678 21.58C12.9678 21.58 12.9318 21.544 12.9318 21.508C12.9318 21.472 12.9678 21.472 12.9678 21.472C13.0038 21.472 13.0398 21.472 13.0398 21.508ZM29.6161 23.056C29.6161 24.172 29.7961 25.216 31.1641 25.216C33.7561 25.108 35.4121 25.36 35.4121 24.1V22.048C35.3761 22.048 34.9081 22.012 34.8361 21.796L35.4121 21.58V17.8H34.9441C34.9801 17.584 35.2321 17.44 35.4121 17.368C35.5201 16.72 35.7721 15.46 36.7081 15.46H49.8841C50.2801 15.46 50.1721 15.964 50.4241 15.964C50.5321 15.964 50.7481 15.676 51.0001 15.676C51.1801 15.676 51.7921 15.676 51.9361 16.036L51.8641 16.216H50.6041C50.6041 16.252 50.6401 16.36 50.6401 16.396C50.6401 17.08 50.7121 20.212 50.7481 20.86C50.8201 20.86 51.2881 20.932 51.3601 21.112C51.2881 21.328 50.8201 21.364 50.7481 21.364V23.992C50.7481 24.604 51.2521 25.108 51.8641 25.108H55.5361C55.9321 25.108 56.5801 24.64 56.5801 24.244V20.932H56.0401V20.788L56.5801 20.5C56.6521 19.672 56.7241 15.82 56.7241 14.884H56.0401V14.704C56.2201 14.596 56.7241 14.452 56.6881 14.344V2.35601L56.4001 2.14001C56.3281 2.14001 52.6561 1.63601 52.0801 1.63601C51.6121 1.63601 50.8201 1.96001 50.8201 2.64401V8.44001C50.8201 9.88001 49.2721 10.096 47.6161 10.096C43.0801 10.096 40.4161 10.096 36.7081 9.73601C36.3481 9.62801 35.5921 9.34001 35.5921 8.80001V2.28401C35.5921 1.96001 34.8361 1.52801 34.5481 1.52801H30.7321C30.1561 1.52801 29.9041 2.24801 29.8681 2.64401C29.5081 7.28801 29.5441 12.616 29.5441 18.268C29.7601 18.268 30.1921 18.304 30.1921 18.448C30.1201 18.7 29.6161 18.592 29.6161 18.808V21.76H30.1201C30.1201 21.76 30.1921 21.832 30.1921 21.94C30.1921 22.012 29.6881 22.12 29.6161 22.228V23.056ZM59.2801 23.632V24.496C59.2801 24.604 59.6401 24.856 59.7841 24.856H63.6361C63.8881 24.856 64.7161 24.244 64.8241 23.884L66.3001 21.004L66.8761 20.284L66.8401 20.176C66.8401 19.636 75.1201 19.528 75.1201 19.528C75.4081 19.528 76.6681 19.564 76.9201 19.564L70.4401 20.068H78.2521C78.7201 20.068 79.5121 20.572 79.7281 21.004L81.1681 23.884C81.7441 25.036 83.9761 24.928 85.2361 24.928C86.2081 24.928 86.9641 24.784 86.9641 23.992C86.9641 23.704 86.9641 23.596 86.8561 23.236L84.9121 19.168C84.5881 19.168 84.1561 19.06 84.1561 18.916L84.6961 18.7L81.7441 12.328C81.6001 11.932 81.0961 12.004 80.8801 11.86C80.8801 11.788 81.4201 11.644 81.3841 11.608L77.0281 2.28401C76.9201 2.03201 76.5241 1.67201 76.2001 1.67201H70.2961C69.8641 1.67201 69.2161 2.32001 69.0721 2.64401L64.0321 13.444H64.7521C64.7161 13.876 63.9601 13.624 63.7801 13.984L61.0081 19.996V20.176L61.5121 20.356C61.3321 20.716 60.7561 20.464 60.6481 20.788L59.2801 23.632ZM74.4001 15.136H70.1521C69.7921 15.136 69.4681 14.632 69.4681 14.308C69.4681 13.912 69.5401 13.696 69.6841 13.228C69.5401 13.228 69.4681 13.12 69.4681 13.012C69.6481 12.868 69.9361 12.724 70.0441 12.544L72.3481 7.86401C72.4561 7.57601 72.8161 7.36001 73.0681 7.36001C73.3201 7.36001 73.6801 7.57601 73.7881 7.86401L75.8401 12.256H76.5241C76.5241 12.472 76.0921 12.472 76.0921 12.688C76.0921 13.228 76.4521 13.732 76.4521 14.272C76.4521 15.244 75.5881 14.92 74.9761 15.208C74.8681 15.208 74.8321 15.568 74.6161 15.568C74.4721 15.568 74.4001 15.46 74.4001 15.28V15.136ZM62.7721 17.944C63.0241 17.8 63.0241 17.08 63.7801 17.08V17.26L62.9521 18.124L62.7721 17.944ZM76.4161 16.504H77.2801C77.4241 16.504 77.4241 16.72 77.4241 16.72C77.4241 16.972 77.2801 17.008 77.1721 17.008C77.0281 16.972 76.4161 16.792 76.4161 16.504ZM30.4801 4.19201C30.4801 4.08401 30.8041 4.04801 30.9841 4.04801C30.9841 4.30001 30.9481 4.58801 30.7321 4.66001C30.5521 4.62401 30.4801 4.33601 30.4801 4.19201ZM76.2001 10.78C76.1641 10.78 76.1641 10.78 76.1641 10.744C76.1641 10.672 76.5601 10.528 76.5241 10.492C76.7401 10.528 76.7761 10.924 76.7761 11.032C76.6681 11.032 76.2001 11.068 76.2001 10.78ZM66.6961 18.448C66.6961 18.304 67.1281 18.268 67.3801 18.268C67.3801 18.52 67.2001 18.736 66.9481 18.736C66.9481 18.736 66.6961 18.592 66.6961 18.448ZM68.8561 18.016C68.8561 17.98 68.8561 17.872 69.0001 17.872C69.2161 17.872 69.3961 17.98 69.3961 18.232C69.1801 18.232 68.8561 18.268 68.8561 18.016ZM77.1721 13.84C77.1721 13.732 77.2801 13.624 77.3161 13.588C77.5681 13.588 77.6401 13.948 77.6401 14.128C77.6041 14.128 77.1721 13.876 77.1721 13.84ZM81.2401 22.552C81.3841 22.552 81.4201 22.768 81.4201 22.912H80.9881C80.9881 22.768 81.0241 22.552 81.2401 22.552ZM78.6121 19.204V19.168C78.6841 19.168 78.7201 19.06 78.7561 19.06C79.0081 19.06 79.0441 19.312 79.0441 19.456C78.9001 19.456 78.6121 19.456 78.6121 19.204ZM76.8481 12.328L77.0281 12.04C77.2081 12.076 77.2081 12.292 77.2081 12.364C77.2081 12.364 77.1721 12.508 77.1721 12.544C77.0281 12.508 76.8841 12.4 76.8481 12.328ZM35.2681 9.73601H35.5201V10.024C35.3761 10.024 35.2681 9.91601 35.2681 9.73601ZM84.5521 21.364C84.6241 21.4 84.6961 21.508 84.6961 21.58H84.4081L84.5521 21.364ZM53.7721 13.516C53.8441 13.516 53.8801 13.552 53.8801 13.624C53.8801 13.696 53.8441 13.768 53.7721 13.768C53.7001 13.768 53.7001 13.696 53.7001 13.624C53.7001 13.552 53.7001 13.516 53.7721 13.516ZM74.2561 16.504C74.3281 16.504 74.3641 16.576 74.3641 16.684C74.3641 16.72 74.3281 16.72 74.2561 16.72C74.1841 16.72 74.1841 16.72 74.1841 16.684C74.1841 16.576 74.1841 16.504 74.2561 16.504ZM66.8761 17.26H67.0201V17.512H66.8761V17.26ZM54.5281 15.532C54.5641 15.532 54.6001 15.604 54.6001 15.676C54.6001 15.748 54.5641 15.82 54.5281 15.82C54.4201 15.82 54.3841 15.748 54.3841 15.676C54.3841 15.604 54.4201 15.532 54.5281 15.532ZM64.9681 20.608C65.0401 20.608 65.0761 20.68 65.0761 20.788C65.0761 20.788 65.0401 20.86 64.9681 20.86C64.8961 20.86 64.8601 20.788 64.8601 20.788C64.8601 20.68 64.8961 20.608 64.9681 20.608ZM54.2761 8.54801C54.3121 8.58401 54.3121 8.69201 54.3121 8.76401C54.3121 8.80001 54.3121 8.87201 54.2761 8.94401C54.2401 8.94401 54.1681 8.80001 54.1681 8.76401C54.1681 8.69201 54.2401 8.54801 54.2761 8.54801ZM54.3481 22.048H54.5281C54.5281 22.156 54.4561 22.3 54.3481 22.336V22.048ZM52.6921 11.608H52.9081C52.8721 11.68 52.7641 11.716 52.6921 11.716V11.608ZM74.2561 19.06L74.4001 19.168H74.1481L74.2561 19.06ZM30.8401 6.64001L30.9481 6.71201H30.8401V6.64001ZM89.8942 24.352C89.8942 25.756 91.9102 25.684 93.8542 25.684C94.8262 25.684 95.7262 25.612 95.7262 24.604H94.5022L94.3942 24.388C94.4302 24.172 94.6822 24.136 94.9342 24.136C95.1502 24.136 95.2942 24.172 95.4742 24.172C95.9782 24.172 96.0142 22.192 96.0142 20.356V18.736C96.0142 18.052 96.0142 17.548 96.0502 17.44H95.6182C95.6182 17.44 95.5822 17.332 95.5822 17.224C95.5822 16.54 97.2382 16.54 98.2102 16.54C98.1382 16.468 98.1382 16.36 98.1382 16.288C98.1382 16.144 98.1742 16 98.1742 15.856C98.4622 15.856 98.4262 16.36 98.5702 16.54C99.5782 16.504 104.042 16.432 104.978 16.432V16.288C104.978 15.892 105.158 15.1 105.446 15.1C106.058 15.1 106.49 15.928 106.49 16.432H111.026C111.098 16.432 111.494 16.324 111.638 16.288C114.77 15.388 117.038 12.544 117.038 9.08801H116.354C116.354 9.08801 116.318 9.01601 116.318 8.94401C116.39 8.76401 116.498 8.72801 116.57 8.72801C116.642 8.72801 116.714 8.76401 116.786 8.76401C116.93 8.76401 117.038 8.69201 117.038 8.15201C117.038 5.16401 114.986 1.81601 111.71 1.81601C111.35 1.81601 111.494 2.03201 111.242 2.21201C111.134 2.10401 111.062 1.96001 111.026 1.81601C110.234 1.81601 106.49 1.78001 105.698 1.78001C100.622 1.78001 95.6902 1.92401 90.2542 2.32001C89.7142 2.32001 89.7862 5.56001 89.7862 5.81201C89.7862 5.99201 89.9302 5.92001 89.9302 6.13601C89.9302 6.17201 89.8582 6.28001 89.7862 6.28001V9.08801C89.7862 9.48401 90.3982 9.41201 90.3982 9.59201C90.3982 9.88001 89.8942 9.88001 89.7862 9.91601V10.96C90.1822 11.248 90.3982 12.004 90.3982 12.472C90.3982 12.616 90.2902 12.688 90.1462 12.688C90.1102 12.688 89.8222 12.58 89.6422 12.58V13.156C89.7142 13.156 90.1102 13.048 90.2542 13.048C90.3622 13.048 90.5062 14.308 90.5062 14.632C90.5062 14.776 90.3622 14.848 90.2182 14.848C89.7862 14.848 90.1102 14.092 89.6062 14.092C89.6062 17.224 89.6782 20.608 89.7862 23.632C89.8582 23.92 90.9022 23.704 91.1902 24.352H89.8942ZM95.6902 9.48401C95.6902 8.76401 96.0142 6.74801 97.1662 6.74801H108.974C110.162 6.74801 111.026 7.97201 111.026 9.08801C111.026 9.95201 109.406 10.744 108.578 10.744H96.8782C96.5182 10.744 95.6902 9.73601 95.6902 9.48401ZM93.9622 2.64401C93.9622 2.64401 93.9622 2.32001 94.1062 2.32001H95.3662C95.3662 2.60801 94.6822 3.14801 94.3942 3.14801C94.0702 3.14801 93.9622 2.93201 93.9622 2.64401ZM102.818 13.984H104.402C104.474 13.984 104.654 14.128 104.654 14.2C104.654 14.38 104.366 14.38 104.114 14.38C103.934 14.38 102.818 14.38 102.818 14.272V13.984ZM112.574 3.72401C112.574 3.40001 113.114 3.25601 113.294 3.25601C113.618 3.25601 113.798 3.47201 113.798 3.76001C113.402 3.83201 113.186 3.83201 112.826 3.83201C112.646 3.83201 112.574 3.83201 112.574 3.72401ZM112.826 8.22401C112.826 8.22401 113.546 7.79201 113.906 7.46801L114.05 7.64801C114.05 8.08001 113.438 8.36801 113.15 8.36801C113.006 8.36801 112.862 8.36801 112.826 8.22401ZM90.3262 19.96C90.6142 19.96 91.1182 19.996 91.1182 20.356C91.1182 20.644 90.9742 20.644 90.7582 20.644C90.2902 20.644 90.3262 20.428 90.3262 19.96ZM105.698 11.212C105.842 11.104 105.914 11.068 106.094 11.068C106.238 11.068 106.598 11.14 106.706 11.356C106.634 11.5 106.418 11.608 106.382 11.608C106.094 11.608 105.842 11.464 105.698 11.212ZM107.606 4.69601C107.606 4.62401 107.606 4.37201 107.822 4.37201C108.11 4.37201 108.146 4.62401 108.146 4.73201C108.146 4.98401 108.11 5.12801 107.894 5.12801C107.606 5.12801 107.606 4.94801 107.606 4.69601ZM94.2502 17.224C94.2502 17.008 94.6102 16.936 94.7182 16.9C94.7542 16.9 95.1502 16.936 95.1502 17.08C95.1502 17.332 94.7182 17.404 94.5742 17.404C94.3942 17.404 94.2502 17.404 94.2502 17.224ZM92.5582 20.788C92.5942 20.536 92.7742 20.5 92.9182 20.5C93.1342 20.5 93.1702 20.608 93.1702 20.788C93.1702 20.932 93.0982 21.148 92.8462 21.148C92.8102 21.112 92.5582 20.932 92.5582 20.788ZM113.69 11.068C113.69 10.924 113.69 10.744 113.834 10.744C114.122 10.744 114.122 11.068 114.122 11.248C114.122 11.392 114.122 11.5 114.014 11.5C113.798 11.5 113.69 11.212 113.69 11.068ZM110.666 4.19201C110.666 4.62401 110.486 4.62401 110.018 4.62401C110.018 4.19201 110.234 4.19201 110.666 4.19201ZM91.4422 23.524C91.6942 23.524 91.9822 23.488 92.2342 23.632C92.0902 23.92 91.9462 23.92 91.7662 23.92C91.5142 23.92 91.4422 23.812 91.4422 23.524ZM90.8662 17.152C90.9022 17.008 91.0822 17.008 91.1542 17.008C91.2982 17.008 91.4782 17.044 91.4782 17.224C91.4782 17.368 91.3702 17.404 91.1902 17.404C91.0462 17.404 90.9742 17.368 90.8662 17.152ZM94.1062 20.68C94.1062 20.644 94.3222 20.572 94.3942 20.5C94.5022 20.68 94.5382 20.86 94.5382 21.04C94.3582 21.04 94.1062 20.86 94.1062 20.68ZM94.3942 18.916H94.6102C94.6102 18.916 94.7182 19.384 94.7182 19.492V19.564C94.5022 19.456 94.3942 19.168 94.3942 18.916ZM98.3542 13.408C98.5702 13.408 98.9662 13.516 98.9662 13.804C98.9662 13.84 98.9302 13.84 98.8942 13.84C98.7862 13.84 98.3902 13.516 98.3542 13.516V13.408ZM97.2742 14.38C97.3102 14.416 97.3822 14.452 97.3822 14.56C97.3822 14.704 97.2382 14.74 97.0942 14.74C97.0942 14.632 97.0942 14.416 97.2742 14.38ZM94.9702 19.924C95.0422 19.96 95.2582 20.104 95.2582 20.32H94.9702V19.924ZM92.0542 17.26C92.0902 17.152 92.2342 17.116 92.3422 17.116V17.44C92.2342 17.44 92.0902 17.368 92.0542 17.26ZM109.406 13.516C109.622 13.516 109.694 13.588 109.694 13.804C109.55 13.804 109.406 13.696 109.406 13.516ZM97.8862 13.264C97.9222 13.264 97.9582 13.372 97.9582 13.444C97.9582 13.48 97.9222 13.516 97.8862 13.516C97.8142 13.516 97.7782 13.48 97.7782 13.444C97.7782 13.372 97.8142 13.264 97.8862 13.264ZM113.906 5.45201H114.014L113.906 5.56001V5.45201ZM125.925 18.772V24.46C125.925 25.54 127.401 25.468 128.445 25.468C129.993 25.468 131.973 25.432 131.973 24.46V19.168C131.793 19.096 131.541 19.024 131.361 18.88C131.613 18.88 131.973 18.88 131.973 18.556C131.973 18.448 131.865 17.368 131.865 17.368L131.361 17.044H131.865V15.64C131.757 15.604 131.469 15.568 131.361 15.388L131.865 15.136C131.865 15.136 131.973 9.08801 131.973 8.26001C131.829 8.26001 131.685 8.15201 131.613 8.00801H131.973C132.153 7.18001 132.585 6.28001 133.557 6.28001H139.929C140.793 6.28001 141.513 5.66801 141.513 4.87601C141.513 4.44401 141.081 4.44401 140.649 4.37201H141.549C141.477 4.26401 141.441 4.04801 141.441 3.83201C141.441 3.65201 141.477 3.40001 141.477 3.14801C141.477 2.57201 141.333 1.96001 140.649 1.67201C133.053 1.67201 125.637 1.63601 117.393 1.78001C117.105 1.81601 116.529 1.92401 116.529 2.28401L117.717 2.42801H116.169V5.52401L116.277 5.63201C116.637 5.95601 122.325 6.49601 122.145 6.49601C122.289 6.49601 122.433 6.46001 122.577 6.46001H123.261C124.593 6.46001 125.673 6.56801 125.673 7.68401C125.673 8.80001 125.853 13.912 125.853 15.064C125.925 15.064 126.321 15.1 126.429 15.28H126.393C125.961 15.28 125.817 15.532 125.817 15.856C125.817 16.252 125.853 16.54 125.925 16.972C126.105 17.008 126.393 17.08 126.429 17.296H125.925V18.412L126.429 18.772H125.925ZM116.493 5.95601C116.493 6.46001 117.609 6.49601 118.257 6.49601H119.553C119.481 6.46001 118.077 6.24401 116.673 5.95601H116.493ZM118.473 2.53601C118.437 2.57201 118.329 2.60801 118.257 2.60801C118.149 2.60801 117.969 2.57201 117.969 2.53601C117.969 2.50001 118.113 2.50001 118.257 2.50001C118.329 2.50001 118.473 2.50001 118.473 2.53601ZM173.036 24.244C173.036 24.532 173.504 24.748 173.756 24.748H176.024C176.096 24.712 176.348 24.64 176.384 24.64C176.636 24.64 176.708 24.748 176.996 24.748C177.896 24.748 178.472 24.244 178.472 23.344C178.472 22.876 178.184 22.912 177.968 22.912C177.608 22.912 177.716 23.164 177.356 23.2C176.708 23.272 176.384 23.272 175.772 23.272C175.268 23.272 174.656 23.236 174.656 22.696C174.656 22.012 175.52 22.048 176.024 22.048C176.924 22.048 177.572 22.66 178.508 22.66C178.508 21.58 177.14 22.048 177.14 21.364C177.14 21.148 177.32 21.004 177.464 21.004C177.86 21.004 178.112 21.364 178.436 21.508L178.688 17.512C178.796 15.892 180.524 15.928 181.712 15.928C185.276 15.928 185.204 16.072 187.4 18.736C187.544 18.88 188.048 18.88 188.12 19.06C188.156 19.168 188.336 19.78 188.336 19.924C189.632 21.544 191.072 23.812 191.972 23.92L197.768 24.64H198.236C198.596 24.64 199.244 24.64 199.244 24.064C199.244 22.732 195.716 20.068 195.716 19.564C195.032 18.628 193.196 17.044 193.196 15.892C193.196 15.532 193.196 15.316 193.556 15.208C197.264 13.876 199.316 12.292 199.352 7.79201H198.74C198.74 7.79201 198.56 7.68401 198.56 7.61201C198.56 7.39601 199.208 7.61201 199.208 7.00001C199.208 5.48801 198.452 6.38801 198.128 5.52401C198.128 5.48801 198.164 5.34401 198.164 5.34401H198.812C198.236 3.43601 196.472 1.92401 194.528 1.67201C189.128 1.67201 180.956 1.81601 173.504 1.92401C172.784 2.14001 172.64 3.40001 172.64 4.62401V7.18001H173.18C173.18 7.18001 173.288 7.28801 173.288 7.36001C173.288 7.36001 173.036 7.57601 172.928 7.57601L173.288 7.90001H172.64V9.88001C172.748 9.88001 173.18 9.95201 173.288 10.168L172.64 10.348V11.356C172.64 11.464 173.036 11.608 173.288 11.608L172.64 12.22V14.344H173.504C173.54 14.38 173.648 14.488 173.648 14.524C173.648 15.028 173.036 15.172 172.64 15.208V16.684C173.396 16.72 173.396 17.044 173.504 17.62C173.54 17.908 173.972 18.484 173.972 18.736C173.972 18.772 173.9 18.808 173.864 18.844C173.468 18.592 173.036 18.448 172.64 18.448C172.64 19.6 172.64 20.932 172.784 22.084C172.928 22.408 173.468 22.12 173.504 22.516H172.748C172.748 22.516 172.748 22.876 172.784 23.056C172.82 23.236 173.144 23.344 173.144 23.632C173.144 23.884 173.036 24.028 173.036 24.244ZM142.94 23.992C143.264 25.144 143.804 25.108 146.036 25.108C148.664 25.108 161.084 24.748 163.748 24.748C164.504 24.64 165.836 24.784 166.052 24.244L166.412 24.64C166.736 24.64 167.024 24.64 167.312 24.64C168.464 24.64 169.328 24.532 169.328 23.128C169.328 22.66 169.292 22.048 168.608 22.048C168.104 22.048 168.572 22.696 168.14 22.696C167.96 22.696 167.42 21.58 167.42 21.436C167.42 21.076 167.636 21.112 167.96 21.112C168.464 21.112 168.68 21.148 168.68 21.724H169.148V20.032C169.148 19.276 168.14 19.168 167.636 19.168C161.696 19.168 155.864 19.456 149.996 19.456C149.6 19.42 149.132 18.988 149.132 18.592V15.676C149.132 15.208 149.996 14.992 150.32 14.956L164.972 14.596C165.764 14.596 165.836 14.056 165.836 13.3V12.688C165.836 12.4 165.836 12.184 165.944 12.004H165.044C165.044 11.536 165.872 11.968 165.872 11.5C165.872 11.392 165.8 11.14 165.8 11.14H164.432L164.576 10.96L165.8 10.744C165.8 9.88001 165.08 9.73601 164.036 9.73601C159.356 9.73601 154.568 9.88001 149.888 9.88001C149.528 9.84401 149.06 9.62801 148.844 9.30401V9.05201C148.844 8.87201 148.664 8.76401 148.664 8.69201C148.664 8.47601 148.772 8.62001 148.772 7.86401L148.52 7.72001C149.456 6.92801 148.376 5.74001 150.716 5.66801L161.192 5.30801L161.372 5.20001C161.12 5.05601 160.544 4.62401 160.544 4.51601C160.544 4.48001 160.868 4.33601 160.94 4.33601H162.704C162.704 4.37201 162.812 4.55201 162.812 4.58801C162.74 4.62401 162.56 4.91201 162.56 4.94801C162.56 5.45201 163.136 5.38001 164 5.38001C165.692 5.38001 168.32 5.34401 168.32 4.33601V1.20401C168.32 0.484004 167.42 0.304004 166.484 0.304004C160.796 0.304004 155.144 0.448005 149.456 1.06001H149.312C149.096 1.06001 148.844 1.13201 148.664 1.20401C148.772 1.42001 149.276 1.34801 149.276 1.63601C149.276 1.88801 148.916 1.92401 148.556 1.92401C148.052 1.92401 147.98 1.85201 147.98 1.42001V1.16801C146.9 1.16801 143.012 1.67201 142.94 1.67201L142.76 1.81601C142.652 2.57201 142.616 5.16401 142.616 7.57601C142.616 7.93601 142.76 8.76401 142.76 8.76401H143.228C143.156 9.26801 142.616 8.62001 142.616 9.55601C143.084 9.55601 143.264 9.44801 143.66 9.44801C143.66 9.48401 143.696 9.48401 143.696 9.52001L143.552 9.77201C143.48 9.95201 142.76 9.88001 142.76 10.024V12.976H143.264L143.336 13.12C143.336 13.408 142.832 13.3 142.76 13.516C142.76 14.272 142.796 19.42 142.832 19.78L143.48 20.032V20.248H142.832V20.644C142.832 21.148 142.94 23.524 142.94 23.992ZM178.436 9.52001L178.616 9.44801V7.00001C178.616 6.74801 179.408 6.42401 179.66 6.38801L185.852 6.13601C185.96 6.13601 186.824 4.48001 187.76 4.48001C187.796 4.51601 187.976 4.66001 187.976 4.73201C187.976 5.45201 186.896 5.20001 186.896 5.81201C186.896 5.88401 186.896 6.02801 187.04 6.02801H191.504L191.756 6.13601C191.648 6.28001 191.504 6.35201 191.36 6.38801C192.116 6.64001 193.196 7.28801 193.196 8.18801C193.196 10.024 190.712 10.564 189.308 10.564H181.352L182.216 11.068C182.18 11.068 182.036 11.104 182 11.104C181.964 11.104 181.856 11.068 181.856 11.068C180.596 10.744 179.336 10.528 178.436 9.52001ZM192.584 22.552L192.476 21.508C192.332 21.472 192.332 21.256 192.332 21.148C192.332 20.896 192.548 20.788 192.548 20.356C191.972 20.356 191.432 20.536 190.82 20.536C190.604 20.536 190.1 20.536 190.028 20.5L189.956 20.356L189.812 19.06C189.812 18.88 190.136 18.592 190.316 18.592C190.46 18.592 190.64 18.88 190.64 18.916C190.316 19.42 190.172 19.204 190.172 19.6C190.172 19.924 190.352 20.32 190.748 20.32C191.396 20.32 191.612 18.736 191.612 18.34C191.612 18.304 191.504 18.016 191.504 17.98C191.504 17.872 191.684 17.872 191.756 17.872C191.9 17.872 192.08 17.908 192.08 18.124V19.636C192.08 19.96 192.404 19.996 192.764 19.996H193.124C193.34 19.996 193.52 19.996 193.556 20.176C193.196 20.5 192.908 20.788 192.908 21.22C192.908 21.652 193.196 21.868 193.196 22.264C193.196 22.876 192.512 23.452 191.9 23.452C191.9 23.02 192.584 23.02 192.584 22.552ZM149.888 0.736005H144.308C144.056 0.736005 142.904 0.844006 142.904 1.34801H143.48L149.888 0.736005ZM188.336 17.116C188.804 17.116 190.64 17.152 190.64 17.728C190.64 18.052 190.28 18.232 190.028 18.232C189.92 18.196 189.2 18.196 188.948 17.98L188.336 17.404V17.116ZM175.916 8.08001H176.456C176.744 8.08001 177.608 8.08001 177.608 8.58401C177.608 8.98001 176.132 9.19601 175.664 9.19601V8.90801C175.664 8.62001 175.7 8.15201 175.916 8.08001ZM191.972 24.244C192.116 24.532 192.8 24.748 193.088 24.748H195.86C194.636 24.352 193.196 24.244 191.972 24.244ZM176.384 18.412C176.384 18.16 176.708 18.196 176.96 18.196C177.5 18.196 177.716 18.232 177.716 18.88C177.464 18.88 176.384 18.844 176.384 18.412ZM185.204 13.3C185.204 13.264 185.276 13.12 185.312 13.12L186.572 13.264C186.572 13.66 186.392 13.624 186.104 13.624C185.78 13.624 185.204 13.588 185.204 13.3ZM163.244 21.508L164.108 21.22C164.324 21.22 164.396 21.364 164.576 21.508C164.432 21.688 164.252 21.76 164.072 21.76C163.784 21.76 163.352 21.76 163.244 21.508ZM165.548 23.416V23.236C165.548 23.164 165.584 22.948 165.8 22.948C165.836 22.948 165.872 23.02 165.872 23.056V23.92C165.512 23.92 165.548 23.776 165.548 23.416ZM165.908 3.79601C165.908 4.08401 165.692 4.51601 165.368 4.51601C165.368 3.97601 165.368 3.79601 165.908 3.79601ZM189.992 21.436C190.532 21.436 190.712 21.472 190.712 21.976C190.388 21.976 189.992 21.76 189.992 21.436ZM147.08 2.28401C147.08 2.14001 147.476 2.14001 147.692 2.14001C147.692 2.32001 147.656 2.53601 147.44 2.53601C147.224 2.53601 147.188 2.50001 147.08 2.28401ZM163.136 12.796C163.316 12.652 163.568 12.652 163.748 12.652C163.748 12.868 163.64 12.94 163.424 12.94C163.316 12.94 163.172 12.94 163.136 12.796ZM195.968 22.768V23.056H195.428C195.428 22.84 195.824 22.768 195.968 22.768ZM162.56 24.388H163.244C163.208 24.496 163.1 24.532 162.956 24.532C162.704 24.532 162.56 24.532 162.56 24.388ZM195.896 5.20001C196.04 5.20001 196.148 5.16401 196.184 5.30801H195.608C195.608 5.16401 195.788 5.20001 195.896 5.20001ZM143.804 8.69201H144.092C144.092 8.80001 143.984 8.98001 143.804 8.98001V8.69201ZM193.988 18.592H194.528C194.384 18.736 194.168 18.772 193.988 18.772V18.592ZM179.3 5.92001H179.552C179.552 6.06401 179.444 6.17201 179.3 6.17201V5.92001ZM187.508 3.83201C187.616 3.76001 187.688 3.76001 187.76 3.76001L187.904 3.83201C187.832 3.83201 187.796 3.97601 187.652 3.97601C187.58 3.97601 187.544 3.83201 187.508 3.83201ZM176.564 3.47201H176.744C176.708 3.58001 176.636 3.79601 176.564 3.79601V3.47201ZM175.304 18.592V18.772C175.196 18.772 175.088 18.628 174.908 18.592H175.304ZM214.713 22.912H214.065V23.38C214.065 25.648 215.253 25.9 216.801 25.9H219.573C222.201 25.9 234.621 25.432 237.429 25.36C237.285 25.324 235.845 25.18 235.017 25.036C236.781 25.036 238.401 25.288 240.129 25.288C240.957 25.288 241.893 25.216 241.893 24.136C241.893 23.92 241.749 23.848 241.461 23.848H241.389L241.497 23.704L240.921 23.452C240.921 23.452 240.885 23.416 240.885 23.38C240.885 23.38 240.957 23.2 241.029 23.2H241.893V21.184L236.565 20.068H228.321L228.141 20.212L229.689 20.68C229.653 20.716 229.401 20.716 229.365 20.716C228.033 20.716 226.629 20.176 225.261 20.068C224.757 20.032 223.749 20.176 223.749 19.492C223.749 18.736 225.909 18.304 226.161 17.8L225.837 17.548H226.773L236.817 14.56C237.573 14.344 236.853 13.66 238.437 13.66C238.725 13.66 239.013 13.696 239.085 13.696C239.517 13.516 240.021 13.228 240.309 12.832L239.337 12.616C239.409 12.508 240.273 12.364 240.777 12.364C241.209 12.004 241.965 11.068 241.965 10.42C241.965 10.276 241.425 10.168 241.245 10.06C241.281 9.88001 241.461 9.84401 241.569 9.84401H241.893C242.325 9.84401 242.361 9.73601 242.361 8.11601C242.361 1.74401 235.665 0.268005 230.517 0.268005C226.089 0.268005 221.841 1.31201 217.701 2.71601C216.657 3.07601 214.929 3.68801 214.929 5.05601C214.929 7.32401 216.045 6.24401 216.873 7.10801H215.793C215.973 7.72001 216.441 8.76401 217.269 8.76401C217.665 8.76401 219.141 8.22401 220.149 7.64801C219.861 7.50401 219.501 7.46801 219.177 7.39601L219.321 7.32401H219.609C220.185 7.32401 221.229 7.25201 221.481 7.18001C221.733 7.10801 223.965 6.28001 224.253 6.20801C226.197 5.59601 228.177 5.23601 230.265 5.23601C231.957 5.23601 235.953 5.27201 235.953 7.90001C235.953 9.52001 234.657 9.77201 233.289 10.204L227.889 11.896C228.213 12.076 229.041 12.112 229.329 12.112L229.077 12.256C228.033 12.256 226.125 12.4 225.945 12.472C223.713 13.3 221.409 14.38 219.429 15.748C219.573 15.964 219.969 16.036 220.041 16.072C219.897 16.252 219.753 16.252 219.465 16.252C219.177 16.252 218.781 16.216 218.745 16.216C218.133 16.36 217.197 17.188 216.765 17.656C216.981 17.692 217.305 17.764 217.485 17.944L216.045 18.16L215.433 18.628V18.772C215.685 18.808 215.973 18.88 216.153 18.988L216.045 19.132H214.965C214.641 19.132 214.137 20.14 214.101 20.428C214.065 20.716 214.065 21.328 214.065 21.328H214.605V21.544H214.101V22.624L214.713 22.912ZM237.753 19.96C238.149 20.14 241.461 20.788 241.497 20.788H241.785C241.785 20.392 241.461 19.96 241.029 19.96H237.753ZM234.729 13.732C234.729 13.588 234.981 13.552 235.197 13.552C235.593 13.552 235.593 13.804 235.593 14.056C235.593 14.488 235.485 14.56 235.233 14.56C234.945 14.56 234.729 13.948 234.729 13.732ZM234.513 24.892C234.477 24.928 234.405 25 234.333 25C234.189 25 234.153 24.928 234.153 24.892C234.153 24.856 234.189 24.856 234.333 24.856C234.405 24.856 234.513 24.856 234.513 24.892Z" fill="#EEEEEE"/>
</g>
<defs>
<clipPath id="clip0_245_117">
<rect width="243" height="27" fill="white"/>
</clipPath>
</defs>
</svg>
