<svg width="627" height="123" viewBox="0 0 627 123" fill="none" xmlns="http://www.w3.org/2000/svg">
<g clip-path="url(#clip0_245_106)">
<path d="M306.291 65.2318C305.478 63.2666 305.888 61.2095 305.881 59.202C305.838 46.6478 305.86 34.0863 305.86 21.5321C305.86 17.3473 305.875 13.1626 305.832 8.97778C305.825 8.31332 305.55 7.65591 305.36 6.84299C303.778 6.84299 302.352 6.88542 300.934 6.82886C300.107 6.79351 299.105 6.87834 298.513 6.44715C296.953 5.31613 295.421 5.52113 293.749 5.94527C292.837 6.17853 291.842 6.26334 290.911 6.17851C290.331 6.12198 289.803 5.61301 289.211 5.28079C288.554 6.34819 287.912 7.25299 286.38 6.51076C285.201 5.93819 284.113 6.84299 283.006 7.19643C282.407 8.94951 280.832 8.75864 279.463 8.99899C279.308 9.02726 279.181 9.27468 278.933 9.54332C279.808 9.74124 280.592 9.91087 281.247 10.0593C282.497 11.6781 283.09 13.2333 282.124 15.1277C281.579 16.1951 281.51 17.4039 281.792 18.6268C281.976 19.4326 282.025 20.288 282.01 21.1221C281.926 27.0954 281.833 33.0755 281.693 39.0488C281.622 42.1801 281.325 45.3048 281.883 48.4363C282.019 47.3051 282.152 46.1742 282.286 45.0432C282.413 45.0501 282.54 45.0573 282.667 45.0644C282.667 46.4923 282.667 47.9201 282.667 49.348C282.667 54.2538 282.631 59.1526 282.68 64.0584C282.71 66.9424 282.702 69.7913 281.489 72.4916C281.262 73.0005 281.297 73.6366 281.219 74.1314C280.543 74.4709 280.019 74.7395 279.483 74.9939C278.912 75.2626 278.235 75.4111 278.099 76.2311C279.526 76.3795 280.45 75.0716 282.038 75.1424C281.926 75.7645 281.939 76.238 281.749 76.6128C279.2 81.773 274.855 84.7278 269.561 86.4455C266.363 87.4847 262.982 87.4633 259.671 87.8168C258.225 87.9724 256.833 87.527 255.303 86.9191C256.073 86.6222 256.594 86.4172 257.943 85.8941C255.465 85.8587 253.84 85.8236 252.211 85.8164C250.891 85.8093 249.572 85.8447 248.372 85.1801C245.392 83.5403 242.858 81.4903 241.652 78.1395C241.326 77.2418 241.109 76.0543 240.439 75.5947C239.21 74.7678 239.288 73.6297 239.027 72.4986C238.51 70.2649 238.454 68.0028 238.482 65.7266C238.519 62.6165 238.538 59.5061 238.538 56.4028C238.538 50.9032 238.504 45.4036 238.504 39.904C238.504 37.4442 238.519 37.4442 239.682 35.493C239.682 36.4969 239.893 37.5007 239.648 38.3773C238.743 41.5511 239.068 44.7886 239.006 47.998C238.984 49.1644 239.598 50.3307 239.605 51.4971C239.611 52.6492 239.075 53.8086 239.047 54.9678C238.963 57.8378 239.019 60.7078 239.055 63.5776C239.062 63.9242 239.26 64.2705 239.365 64.6168C239.809 63.6201 239.824 62.6799 239.852 61.7468C239.88 60.9128 239.689 59.9655 240.014 59.2657C240.755 57.6468 240.473 55.9857 240.566 54.3388C240.684 52.3099 240.876 50.2882 240.947 48.2596C241.016 45.9903 241.208 43.693 240.938 41.4592C240.65 39.0628 240.635 36.7019 240.833 34.2207C241.025 35.4579 241.158 36.5959 241.404 37.7126C241.462 37.9602 241.912 38.2571 242.203 38.2782C242.399 38.2925 242.817 37.8611 242.809 37.6421C242.74 36.2142 242.681 34.7792 242.427 33.3725C242.048 31.2517 241.617 29.1523 241.912 26.9752C241.977 26.5086 241.962 26.0067 241.871 25.5473C241.087 21.7583 241.122 17.927 241.503 14.1169C241.729 11.8831 240.981 10.1512 239.682 8.5254C239.161 7.88213 238.504 7.34488 237.924 6.75109C236.959 5.76146 236.004 4.76475 235.011 3.73975C234.199 5.02628 232.999 5.58475 231.411 5.47871C229.984 5.38682 228.545 5.46455 227.112 5.44336C223.033 5.37972 219.045 6.15024 215.071 6.89953C214.442 7.0197 213.878 7.50745 213.108 7.91745C213.842 8.66676 214.393 9.2252 214.993 9.84018C214.322 12.59 214.922 15.3044 214.93 18.026C214.944 25.4411 214.936 32.8565 214.93 40.2717C214.93 41.2259 214.915 42.1944 214.753 43.1275C214.739 43.2194 214.697 43.2971 214.64 43.3819C214.626 43.4032 214.612 43.4173 214.598 43.4386C214.442 43.6365 214.209 43.8201 214.012 44.0111C214.012 44.0111 214.012 44.0111 214.012 44.004C213.998 43.5374 214.005 43.0638 213.991 42.5973C213.977 42.1732 213.955 41.7561 213.871 41.3532C213.031 37.1259 212.523 32.8777 212.685 28.5515C212.77 26.4025 212.72 24.2465 212.678 22.0977C212.671 21.5462 212.473 20.9878 212.367 20.4364C211.866 22.7338 211.739 24.9888 211.753 27.2438C211.767 31.1883 211.88 35.1184 212.614 39.0205C212.946 40.7876 213.08 42.5338 212.021 44.2161C211.619 44.8523 211.542 45.849 211.647 46.6336C211.901 48.5211 212.226 50.4226 212.784 52.2392C213.144 53.4126 213.327 54.5438 213.341 55.7455C213.391 60.7644 213.461 65.7832 213.511 70.802C213.532 72.7107 213.511 74.6193 213.511 76.5278C213.61 76.5278 213.701 76.5278 213.8 76.5278C213.892 72.0038 213.984 67.4797 214.075 62.9628C214.527 63.9807 214.633 64.9986 214.661 66.0236C214.725 68.1724 214.697 70.3286 214.802 72.4774C215.035 77.2561 215.374 82.0205 217.175 86.5374C217.293 86.8414 217.38 87.2937 217.244 87.5484C216.906 88.1916 217.097 88.5945 217.52 89.1105C218.198 89.9305 218.881 90.7858 219.355 91.7329C221.191 95.3876 223.406 98.7595 226.16 101.792C226.873 102.577 227.196 103.962 228.03 104.337C230.021 105.242 230.909 107.539 233.111 108.041C236.054 110.352 239.527 111.695 242.867 113.251C244.687 114.099 246.607 115.018 248.561 115.258C251.97 115.675 255.381 116.368 258.861 116.149C260.406 116.05 261.966 116.064 263.51 116.092C264.329 116.107 265.247 116.078 265.939 116.425C266.891 116.905 267.802 116.87 268.714 116.651C271.881 115.88 275.094 115.831 278.319 115.972C278.729 115.986 279.138 115.831 279.547 115.76C279.547 115.64 279.541 115.52 279.541 115.393C277.789 115.343 276.04 115.301 273.654 115.237C275.326 114.332 276.427 113.802 277.733 113.71C278.298 113.675 278.927 113.548 279.399 113.258C282.342 111.441 285.223 109.532 288.179 107.737C289.288 107.065 290.495 106.245 291.715 106.146C294.425 105.92 297.157 105.517 299.902 105.871C300.305 105.92 300.792 106.083 300.919 105.411C299.747 104.747 298.717 104.372 297.241 104.924C295.647 105.524 293.82 105.143 291.863 105.051C292.245 104.528 292.387 104.167 292.654 103.976C295.591 101.955 297.291 98.9645 299.021 95.9814C299.557 95.0555 300.234 94.2001 300.751 93.2599C301.499 91.9026 302.303 90.5526 302.817 89.1033C304.632 84.0139 305.819 78.8041 305.832 73.3468C305.838 70.8586 305.487 68.3209 306.306 65.8751C306.368 65.7124 306.375 65.4297 306.291 65.2318Z" fill="#EEEEEE"/>
<path d="M114.434 31.3577C115.288 30.1984 114.872 29.1663 114.611 28.0211C114.385 27.0386 114.314 26.0279 114.208 25.2361C113.721 25.9711 113.157 26.8196 112.373 28C112.938 31.4567 113.517 34.9417 114.088 38.4265C114.363 36.7513 114.363 35.0971 114.363 33.443C114.371 32.7361 114.095 31.8173 114.434 31.3577Z" fill="#EEEEEE"/>
<path d="M103.833 5.99435C103.254 5.94487 102.52 5.95902 102.146 5.61972C101.102 4.67249 100.015 4.8492 98.8008 5.04714C96.9162 5.3511 95.0175 5.66212 93.1188 5.69041C90.6414 5.72576 88.0865 5.85298 85.8631 4.34024C85.5877 4.14939 85.1997 4.00803 84.8679 4.02216C82.5316 4.11404 80.1953 4.25543 77.8519 4.3756C77.8519 4.46043 77.8519 4.55231 77.859 4.63714C79.4895 4.67956 81.113 4.72197 83.0328 4.7785C82.5951 5.32281 82.4187 5.76816 82.1858 5.79643C79.3765 6.18521 76.5604 6.8285 73.7583 5.67627C72.9747 5.35818 72.0783 5.08249 71.4007 6.02972C73.0454 6.51041 73.0453 6.51039 74.1959 7.47175C73.2854 7.58485 72.4524 7.60606 71.6761 7.82519C71.2102 7.9595 70.8291 8.41192 70.2786 8.81485C72.2973 9.52881 74.2311 8.68762 76.1722 9.52173C75.2476 10.681 74.0477 11.5788 73.7159 12.7239C73.0807 14.9365 71.302 15.7494 69.7985 17.043C69.4669 16.4916 69.234 16.0887 68.9515 15.6222C68.1328 16.0675 67.5965 16.7956 68.0623 17.6085C68.7046 18.7183 68.1188 19.3828 67.5965 20.1816C67.5047 20.323 67.6247 20.6128 67.6316 20.6622C67.9634 20.9026 68.4364 21.1359 68.4152 21.2419C68.2739 21.8075 68.0763 22.38 67.7658 22.8748C64.6815 27.8442 61.5898 32.8136 58.4419 37.7476C57.8067 38.7375 56.8679 39.529 56.1903 40.4974C55.3928 41.6286 54.4469 41.5013 53.233 40.9923C53.4517 40.335 53.5435 39.2251 53.9106 39.1261C55.4068 38.7161 55.1175 37.6628 55.3222 36.6592C52.5412 36.5461 51.4261 34.1921 49.3721 32.63C49.2803 33.7963 49.8522 34.284 50.1698 34.8565C50.5791 35.5846 50.1769 35.9169 49.5064 36.2278C49.2028 35.8815 48.8498 35.5563 48.5958 35.1605C46.8523 32.4461 45.1232 29.7246 43.401 27.0031C43.1467 26.6002 42.8009 26.169 42.7727 25.7377C42.6387 23.2777 39.8859 21.8923 40.147 19.2839C40.1541 19.1919 40.0341 19.0788 39.9635 18.9869C38.9049 17.552 37.9379 16.0392 36.7591 14.7103C35.2487 13.0208 33.8652 11.2748 32.7853 9.26725C31.9243 7.66262 30.5832 6.48212 28.8117 5.49247C27.1246 6.82848 25.0848 6.75073 23.0661 6.68004C19.3818 6.54573 15.7045 6.02264 11.999 6.42556C11.6813 6.46091 11.3072 6.29833 10.9967 6.14281C8.3569 4.81387 5.73126 3.4637 3.11972 2.12769C2.97855 3.53439 3.26794 4.4392 3.9526 4.29076C5.42071 3.97266 6.14064 4.98353 7.10055 5.61266C7.2135 5.68335 7.18525 5.97316 7.27702 6.43969C6.50061 6.22764 5.86538 6.05093 5.06073 5.83179C4.58783 6.25593 4.00201 6.78608 3.45147 7.28091C4.90545 9.81861 6.25356 12.1726 7.63697 14.5972C6.90997 15.1273 6.33826 15.5444 5.76655 15.9615C6.07712 16.5835 6.38767 17.2056 6.67706 17.7782C6.37355 18.3649 6.11946 18.8597 5.87243 19.3404C6.54295 20.5138 7.10762 21.5671 7.74992 22.5709C8.33574 23.4898 8.70983 24.5996 9.71208 25.3419C10.1709 24.2673 9.98029 23.4615 9.38035 22.8182C7.55227 20.8814 7.70755 18.5699 7.91225 15.2829C9.74033 18.3295 12.3166 19.913 12.366 23.1294C12.373 23.5323 12.733 23.9777 13.0294 24.324C13.3965 24.7552 13.8623 25.1015 14.2717 25.4761C14.0529 26.0557 13.8906 26.4657 13.6859 27.0102C14.4058 27.71 15.161 28.4663 15.9374 29.1944C18.9513 32.0007 21.1464 35.3938 23.0803 38.9919C23.4826 39.734 23.4262 40.335 23.1297 40.8298C24.4496 43.1907 25.72 45.46 27.0259 47.7926C27.6047 47.9623 28.261 48.1461 28.9597 48.3511C29.3622 49.5528 29.6869 50.6978 30.1245 51.8007C30.4208 52.5571 29.6445 52.769 29.5104 53.2851C32.1925 54.3949 32.4606 54.6565 33.5054 57.2861C33.724 57.8374 33.9076 58.4101 34.1123 58.9684C34.4652 59.9157 34.4159 60.8416 33.9923 61.7536C32.5948 64.8003 31.0631 67.7551 28.7057 70.2151C27.3857 71.5865 26.2 73.0991 25.0919 74.6472C21.6828 79.4045 18.2949 84.176 14.9846 89.0041C12.6907 92.3476 10.5379 95.7972 8.34279 99.2116C8.19457 99.4449 8.20164 99.777 8.124 100.109C9.80385 100.01 10.0085 99.9537 10.4391 99.3387C11.3214 98.0664 12.1613 96.7656 13.0718 95.5145C13.2341 95.2955 13.46 94.5672 14.0599 95.2176C11.6672 98.9358 9.27447 102.647 6.88881 106.351C6.69824 106.655 6.52884 107.016 6.25356 107.214C4.72194 108.281 4.01612 109.97 3.02091 111.448C2.44213 112.31 1.81396 113.137 1.19989 113.978C1.05873 114.035 0.924621 114.084 0.818749 114.134C0.790517 114.148 0.776402 114.155 0.748167 114.162C0.663468 114.198 0.585832 114.233 0.515251 114.268C0.501136 114.275 0.487014 114.289 0.472899 114.297C0.409374 114.332 0.345853 114.367 0.303504 114.41L0.296443 114.417C0.0141151 114.664 0.0070582 115.003 0 115.88C0.988149 116.148 1.99041 116.424 3.52911 116.848C2.65387 117.322 2.18804 117.569 1.7222 117.817C5.52656 118.015 9.09096 118.573 12.6271 117.951C16.615 117.244 20.5747 116.41 24.5554 115.696C25.8189 115.47 27.1246 115.449 28.7904 115.3C31.656 113.95 33.3218 111.851 34.8604 108.592C35.2133 107.843 35.6792 107.143 36.131 106.443C37.3591 104.534 38.6084 102.64 39.8437 100.738C43.6126 94.9278 47.3748 89.1101 51.1437 83.2995C51.5955 82.5997 51.9555 81.7726 52.5696 81.2495C53.8611 80.1608 55.1317 78.7472 56.9597 79.6095C57.8985 80.8749 58.689 82.027 59.5713 83.1085C61.9145 85.9928 64.0321 88.9899 65.1473 92.6022C65.8107 94.7722 66.5166 96.9283 67.2929 99.0631C67.5258 99.6922 67.9423 100.569 68.4646 100.731C71.3585 101.636 72.7066 103.877 73.9417 106.542C73.4759 106.542 73.1443 106.577 72.8195 106.535C72.4102 106.485 72.1277 105.849 71.5985 106.28C71.2102 107.228 71.8032 107.857 72.3324 108.493C73.0171 109.313 73.8006 110.062 74.4288 110.925C76.264 113.427 78.0426 115.965 79.8353 118.503C80.16 118.969 80.4282 119.478 80.7669 120.036C80.1035 120.312 79.6024 120.517 78.826 120.842C80.1317 121.387 81.2188 121.853 82.3127 122.277C82.4609 122.334 82.6938 122.164 82.8916 122.093C83.195 121.344 82.9903 120.764 82.4398 120.171C81.7975 119.478 81.1976 118.729 80.7318 117.923C80.5482 117.612 80.6047 116.877 80.8516 116.65C81.4163 116.113 82.0446 115.802 82.4469 114.961C82.8563 114.113 84.1762 114.494 85.1079 114.48C86.7805 114.452 88.4463 114.473 90.1191 114.473C95.0104 114.473 99.909 114.48 104.8 114.459C105.478 114.459 106.275 114.622 106.741 113.547C106.226 112.416 105.654 111.158 105.005 109.73C105.506 109.299 105.944 108.931 106.417 108.521C106.169 107.419 105.88 106.408 104.645 105.736C103.643 105.192 102.831 104.223 102.069 103.319C100.368 101.29 99.1253 98.9783 98.1232 96.5324C97.4527 94.8783 96.7326 93.2383 95.9703 91.6266C95.794 91.2591 95.4058 90.7712 94.8057 91.3862C95.2151 92.9626 96.6268 94.3056 96.281 96.2637C95.9563 96.0093 95.7162 95.8962 95.5893 95.7055C94.9328 94.7087 94.3047 93.6978 93.6625 92.687C93.0835 91.7822 92.4979 90.8774 91.9189 89.9726C91.2697 88.9687 90.6274 87.9649 89.9709 86.9684C89.3146 85.9716 88.5874 85.0172 87.9947 83.9851C87.4653 83.0734 86.6394 82.0341 86.7312 81.1222C86.8934 79.4045 85.0443 79.8639 84.7054 78.7258C84.2962 77.3687 83.5761 76.0965 82.9127 74.8311C82.588 74.2161 82.1998 73.5091 81.6421 73.1768C79.8284 72.0884 79.2354 70.3353 78.6285 68.4689C79.2919 67.3451 80.2729 66.3272 79.8424 64.878C78.2966 64.673 78.4166 66.4472 77.4921 66.9351C75.6568 65.7688 75.3956 63.7259 74.4922 62.0999C74.2875 61.7395 74.5629 60.7357 74.9229 60.5024C76.0733 59.7672 75.8332 58.3394 76.6945 57.4768C77.619 56.5509 78.3884 55.4765 79.2143 54.4515C80.04 53.4336 80.7669 52.3378 82.2493 52.1328C82.6587 52.0763 83.0821 51.6734 83.3715 51.3271C85.5102 48.754 87.6135 46.1667 89.7169 43.5653C89.992 43.219 90.2745 42.8232 89.6391 42.4201C88.3123 43.9471 86.9852 45.4811 85.6584 47.0149C82.7574 50.3586 82.7574 50.3586 80.8801 51.0513C81.127 50.4928 81.2612 50.0688 81.487 49.6871C82.9692 47.2342 84.402 44.7459 85.9689 42.3496C89.9002 36.348 93.9587 30.4527 98.8008 25.1227C99.6547 24.1825 100.184 22.9384 100.826 21.8075C100.904 21.673 100.756 21.3197 100.608 21.1783C100.516 21.0935 100.163 21.1429 100.036 21.256C99.7818 21.4893 99.5771 21.7861 99.4149 22.083C98.7442 23.2919 97.989 24.4371 96.9586 25.4056C96.4503 24.7692 96.8597 24.3946 97.0997 24.02C98.1303 22.4082 99.2313 20.8461 100.198 19.199C100.932 17.9408 101.695 16.8027 103.092 16.1665C104.115 15.6999 104.857 14.8022 105.026 13.7136C105.351 11.6565 106.367 9.89638 107.094 8.00898C107.299 7.47883 107.553 6.88504 106.819 6.18524C105.937 6.10041 104.885 6.07918 103.833 5.99435Z" fill="#EEEEEE"/>
<path d="M59.7046 30.1272C56.7331 32.8416 56.0979 33.7536 55.999 35.4713C57.9119 34.2061 58.9283 32.7428 59.7046 30.1272Z" fill="#EEEEEE"/>
<path d="M573.289 43.9611C574.064 43.3249 574.685 42.7453 574.65 41.7132C572.821 41.4728 572.716 41.6284 573.289 43.9611Z" fill="#EEEEEE"/>
<path d="M423.753 88.5095C423.027 85.9507 422.99 83.3351 422.971 80.7197C422.928 74.287 422.949 67.8543 422.943 61.4217C422.943 59.5626 422.943 57.7034 422.943 55.8444C422.85 55.8444 422.766 55.8444 422.673 55.8444C422.673 56.4382 422.673 57.0318 422.673 57.6186C422.63 66.6738 422.596 75.722 422.553 84.7772C422.546 86.7778 422.85 88.7076 423.634 90.5737C423.781 89.8808 423.936 89.1459 423.753 88.5095Z" fill="#EEEEEE"/>
<path d="M622.655 78.1816C622.159 74.103 621.129 70.3282 619.668 66.6524C619.392 65.9666 619.746 65.0264 618.701 64.7295C618.229 62.9978 616.238 62.5524 615.546 60.9901C615.003 59.7672 614.333 58.6716 612.801 58.4313C612.392 58.3676 612.067 57.8516 611.672 57.5972C609.977 56.4943 608.361 55.222 606.562 54.3455C603.032 52.6418 599.391 51.1574 595.791 49.5951C595.592 49.5103 595.304 49.4609 595.127 49.5457C594.371 49.878 593.694 49.6165 593.086 49.2488C591.188 48.1036 589.135 47.7361 586.946 47.6513C585.407 47.5947 583.884 47.213 582.358 46.9584C581.906 46.8807 581.363 46.5132 581.031 46.6617C579.79 47.213 578.689 46.5344 577.523 46.4424C576.338 46.3505 574.919 46.5272 574.044 45.9336C572.893 45.1488 571.665 46.0113 570.67 45.2761C570.396 45.0711 570.071 44.9369 569.767 44.767C569.956 44.4421 570.288 44.1169 570.247 43.8553C570.211 43.6361 569.745 43.3322 569.463 43.3322C568.758 43.3251 568.052 43.5442 567.354 43.523C566.548 43.5019 565.738 42.3567 566.181 41.7417C567.071 40.5259 566.703 39.4444 566.061 38.4476C565.496 37.5569 565.406 36.6803 565.533 35.719C565.63 34.9273 566.061 34.3617 566.88 34.3123C570.204 34.0861 573.501 33.3792 576.86 33.6901C577.03 33.7044 577.185 33.874 577.396 34.0084C576.974 34.5101 576.584 34.9626 576.119 35.514C576.571 35.5634 576.853 35.6836 577.015 35.5988C579.57 34.2134 582.246 34.1498 585.004 34.8071C585.823 35.0049 586.601 34.9555 587.441 34.6657C590.441 33.6478 593.073 34.2417 595.142 36.7794C595.444 37.1469 595.819 37.4649 596.066 37.8678C596.213 38.1082 596.178 38.4617 596.262 38.9776C593.772 38.7232 591.951 37.2882 589.926 36.4753C589.036 36.8217 588.189 37.1469 587.278 37.5003C590.031 38.2567 592.621 38.8576 595.071 40.2924C597.329 41.6144 599.552 43.2472 602.276 43.6432C602.856 44.6117 603.476 45.5519 603.978 46.5555C604.536 47.6653 604.98 48.8388 605.473 49.9982C606.865 49.263 605.988 47.842 606.745 47.0434C607.189 46.7536 607.958 47.4392 608.212 46.5626C607.861 45.368 606.801 44.4421 606.702 42.8444C607.374 42.9574 607.818 42.9999 608.249 43.1059C609.632 43.4453 610.994 43.9542 612.398 44.1309C613.803 44.3076 615.307 44.3995 616.662 44.0815C617.593 43.8622 618.341 42.8726 619.166 42.2224C619.352 42.0809 619.507 41.9042 619.789 41.6357C617.811 40.9005 616.018 40.3986 613.909 41.0559C612.616 41.459 611.086 41.2043 609.673 41.0842C608.649 40.9924 607.656 40.6247 606.273 40.2855C608.128 40.024 609.518 40.229 610.923 40.5753C611.586 40.7378 612.327 40.5542 613.034 40.5328C613.81 38.7657 615.413 39.4867 616.682 39.3947C619.181 39.2111 621.694 39.2111 624.193 39.0838C624.736 39.0555 625.421 39.1121 625.697 38.1153C624.094 37.9103 622.527 37.7124 621.03 37.5215C620.134 35.514 620.093 33.6124 620.502 31.718C620.946 29.6609 620.784 27.6323 620.593 25.2642C619.894 26.8688 620.868 28.4098 619.817 29.6255C617.841 27.6605 615.553 23.4898 615.165 21.044C615.025 20.1321 614.954 19.2273 614.107 18.7395C613.767 19.1283 613.549 19.3758 613.31 19.6444C611.806 18.1104 610.408 16.6896 608.925 15.191C609.526 15.2263 610.069 15.2617 610.606 15.297C610.979 14.6255 611.353 13.9469 611.756 13.2329C607.296 8.86435 601.916 6.34076 596.525 3.49907C596.383 4.02216 596.144 4.43216 596.256 4.58768C596.637 5.11078 597.146 5.54199 598.027 6.43972C596.2 6.02974 594.901 5.85303 593.688 5.43595C590.469 4.33322 587.159 4.05045 583.806 4.16355C580.708 4.26251 577.616 4.53113 574.518 4.62303C569.987 4.75734 565.447 4.82803 560.916 4.8563C558.989 4.87045 557.141 5.09664 555.339 5.83182C555.981 6.87093 557.287 5.7187 557.845 6.66593C556.496 7.41524 555.184 8.24229 553.788 8.89262C552.482 9.50054 551.373 11.0345 549.586 9.96708C549.412 9.86106 548.925 10.1438 548.649 10.3417C547.88 10.9073 547.025 11.4162 546.419 12.1302C543.017 16.1594 539.007 19.5383 535.09 23.0092C534.913 23.1646 534.73 23.3555 534.653 23.5677C534.603 23.7019 534.73 23.9069 534.786 24.0979C535.443 23.723 536.098 23.3555 537.072 22.7971C536.185 25.1652 535.372 27.1232 534.709 29.1238C533.911 31.5553 532.677 33.5771 530.121 34.7859C530.065 33.8034 530.001 32.8773 529.973 31.9513C529.951 31.1171 530.029 30.2759 529.966 29.4419C529.902 28.629 530.339 27.6817 529.436 27.0524C528.723 27.9221 529.557 29.4984 528.053 30.0638C527.805 28.12 527.588 26.2255 527.327 24.3311C526.98 21.8003 526.965 21.8003 528.928 19.7504C528.837 14.6043 528.751 9.50054 528.661 4.20595C527.827 4.54526 527.122 4.84216 526.571 5.06838C525.123 4.28372 525.872 3.33649 525.864 2.44582C525.857 1.58342 525.349 0.735162 525.103 0C522.229 0 519.618 0 517 0C517.691 0.282755 518.383 0.353429 519.081 0.381704C519.915 0.424117 520.755 0.381721 521.587 0.466548C522.151 0.5231 522.871 0.197919 523.296 0.940149C516.674 2.86288 509.984 3.77476 503.137 3.44253C502.969 3.8384 502.833 4.14942 502.628 4.6089C500.286 4.87043 497.843 4.67959 495.055 4.41097C496.487 5.85301 497.802 6.46093 499.474 6.39024C500.631 6.34076 501.803 6.47506 503.059 6.53162C503.165 7.18903 503.3 7.63437 503.3 8.0868C503.313 13.9469 503.32 19.807 503.307 25.6671C503.307 26.2609 503.356 26.9253 503.115 27.4273C502.77 28.1553 502.268 28.8552 501.676 29.3994C501.034 30.0003 500.187 30.0992 499.291 29.6186C498.224 27.7807 497.548 25.7944 497.511 23.5817C497.498 22.6415 497.272 21.6944 497.054 20.7754C496.841 19.8847 496.559 19.8423 495.035 20.4573C495.339 21.5953 495.507 22.7971 495.973 23.8786C497.054 26.388 496.974 28.9965 496.934 31.6332C496.918 32.6723 496.531 33.4569 495.755 34.1215C493.389 36.1361 491.069 38.193 488.696 40.2007C488.244 40.5824 487.716 40.8934 487.171 41.1267C485.816 41.7205 484.674 41.4519 483.629 40.3349C483.142 39.8119 482.711 39.2394 482.267 38.6738C480.142 35.938 478.018 33.1953 475.9 30.4526C474.439 28.5653 472.985 26.6709 471.552 24.7623C471.459 24.6421 471.537 24.3877 471.537 24.2038C471.961 24.0979 472.547 24.4228 472.659 23.4546C471.002 20.6623 469.251 17.7004 467.486 14.7456C467.443 14.6679 467.275 14.6679 467.161 14.6255C466.068 15.4243 467.697 16.4068 466.999 17.5732C464.345 13.3319 460.69 10.3912 457.499 7.00526C456.327 5.76113 455.049 5.29459 453.39 5.30165C445.515 5.35113 437.638 5.33697 429.754 5.32991C428.666 5.32991 427.664 5.43595 426.725 6.10749C425.412 7.04764 423.868 7.21024 422.286 7.14662C421.403 7.11128 420.521 7.13955 419.638 7.13955C419.638 7.23851 419.638 7.33747 419.638 7.43645C422.603 7.52833 425.568 7.62024 428.427 7.70507C428.808 8.11506 429.069 8.36247 429.28 8.63816C442.055 25.1863 454.832 41.7417 467.6 58.2899C467.747 58.4807 467.867 58.6857 467.995 58.8838C468.051 58.9826 468.1 59.0957 468.122 59.2087C468.15 59.3218 468.143 59.4491 468.156 59.5622C467.154 62.0647 467.154 62.0647 468.023 62.8916C468.481 62.2837 468.94 61.683 469.526 60.9195C470.113 61.6193 470.528 62.1213 470.966 62.6514C470.444 63.1109 470.035 63.3724 469.744 63.733C467.197 66.8857 464.67 70.0595 462.13 73.2122C461.684 73.7707 461.283 74.4918 460.682 74.7745C458.855 75.6439 457.825 77.2768 456.609 78.726C454.082 81.7514 451.703 84.8972 449.135 87.8872C446.177 91.3297 443.115 94.6733 440.029 98.0027C438.907 99.2116 437.793 100.427 436.168 101.12C435.082 101.587 434.307 102.675 434.292 103.955C434.277 105.955 432.676 106.719 431.504 107.828C431.383 107.942 431.032 107.934 430.84 107.843C429.274 107.114 428.039 108.443 426.535 108.288C426.746 108.953 426.888 109.398 427.093 110.027C426.47 110.31 425.871 110.798 425.251 110.833C423.111 110.967 420.959 110.967 418.813 110.974C418.369 110.974 417.916 110.798 417.464 110.698C417.373 107.008 417.289 103.446 417.19 99.8902C416.943 91.4076 417.386 82.932 417.246 74.4493C417.035 61.3013 417.19 48.139 417.197 34.9838C417.197 34.2697 417.035 33.3863 417.38 32.8773C418.332 31.4919 417.966 30.184 417.619 28.7703C417.367 27.7382 417.268 26.6427 417.253 25.5752C417.203 20.3159 417.19 15.0496 417.203 9.79037C417.203 8.87849 417.522 7.9666 417.529 7.05472C417.542 5.59853 417.479 5.64803 418.658 5.81061C420.19 6.02268 421.728 6.14991 423.273 6.2418C423.725 6.27009 424.191 6.07214 424.65 5.98026C421.058 5.29457 417.514 4.91991 413.956 4.82803C409.065 4.70078 404.168 4.91991 399.277 4.73613C396.262 4.62303 393.834 5.73284 391.223 7.33747C391.694 7.73333 391.964 7.98074 392.253 8.17866C393.459 9.01985 393.868 10.1862 393.728 11.6071C393.685 12.0807 393.722 12.5614 393.722 13.0421C393.713 29.5478 393.713 46.0467 393.7 62.5524C393.7 63.5066 393.7 64.4682 393.614 65.4153C393.586 65.7122 393.319 66.1787 393.093 66.221C392.677 66.3058 391.921 66.2847 391.802 66.0514C391.061 64.6235 389.309 63.9166 389.182 61.9939C389.126 61.1528 388.273 60.3611 387.715 59.4351C387.446 60.0995 387.234 60.6155 386.946 61.3153C384.102 57.4628 381.326 53.7305 378.588 49.9697C378.256 49.5103 377.903 48.8247 378.01 48.344C378.278 47.1776 377.592 46.5626 376.959 45.8628C375.589 44.357 374.149 42.922 372.865 41.3528C370.831 38.8576 368.614 36.4824 367.295 33.4782C366.957 32.7148 366.589 31.9513 366.371 31.1524C366.08 30.1134 364.932 30.5021 364.458 29.8873C363.294 28.3744 362.023 26.9042 361.09 25.25C359.687 22.7477 358.078 20.4219 356.227 18.2377C354.781 16.527 354.074 14.5689 354.589 11.9181C355.932 13.6146 355.953 11.2112 356.878 11.4727C357.802 11.7343 358.168 11.6071 357.972 10.5185C357.746 9.26727 358.416 8.64522 359.44 9.16126C360.194 9.53589 360.872 9.99537 361.747 9.84693C362.163 9.77623 362.721 9.81866 362.727 9.14712C362.559 8.9916 362.411 8.72297 362.234 8.70883C359.998 8.45435 357.724 8.66643 355.535 7.81108C354.766 7.5142 353.962 8.03729 353.376 8.74418C352.353 9.97418 352.099 10.0661 351.407 9.30264C350.306 8.09385 349.317 6.7861 348.259 5.48543C348.054 5.48543 347.787 5.40768 347.595 5.49957C345.477 6.4963 343.474 6.47506 341.547 4.99766C340.614 4.28372 339.513 4.19184 338.512 4.76442C337.389 5.40061 336.288 5.37939 335.068 5.19561C333.069 4.8987 331.044 4.70786 329.025 4.58768C328.094 4.53115 327.042 4.54528 326.23 4.91993C325.194 5.39355 324.205 5.45009 323.119 5.42182C322.158 5.40061 321.776 5.87422 321.593 7.01937C321.522 7.44351 321.925 7.95247 321.277 8.36247C320.576 8.83608 319.243 7.97366 318.644 9.17537C319.221 9.90346 319.525 9.1966 319.906 9.16831C320.471 9.12591 321.05 9.15418 321.848 9.15418C321.919 10.3912 321.981 11.5505 322.046 12.7098C321.608 12.8512 321.305 12.9502 321.001 13.0491C320.979 13.2824 320.887 13.5298 320.936 13.7489C322.44 20.5987 322.505 27.4696 321.516 34.3971C321.149 36.9915 321.121 39.6351 320.951 42.2507C320.852 43.7988 320.951 45.3892 320.654 46.8949C319.956 50.4505 320.089 54.0274 320.076 57.6113C320.068 58.9401 320.253 60.1843 320.781 61.4355C321.184 62.3899 321.317 63.5066 321.346 64.5599C321.494 69.4587 321.382 74.3716 321.714 79.256C322.319 88.2195 322.151 97.1827 322.095 106.153C322.087 107.454 322.278 108.776 321.572 110.013C321.374 110.359 321.451 110.946 321.565 111.377C321.804 112.282 322.145 113.165 322.44 114.028C322.66 114.176 322.836 114.36 323.048 114.424C323.739 114.629 324.48 114.798 324.72 115.59C324.961 116.368 324.509 116.94 324.006 117.485C323.922 117.577 324.05 117.859 324.099 118.184C327.241 118.107 330.501 118.771 333.106 116.24C332.076 115.746 331.072 116.297 330.029 116.453C328.99 116.608 327.924 116.983 326.881 116.41C326.823 115.244 327.417 114.565 328.503 114.502C330.289 114.395 332.082 114.452 333.868 114.381C336.034 114.297 338.145 114.445 340.115 115.505C340.614 115.774 341.306 116.064 341.787 115.922C343.706 115.357 345.824 115.47 347.757 114.226C347.018 113.646 346.395 113.151 345.654 112.565C345.626 112.063 345.564 111.469 345.564 110.882C345.555 102.513 345.542 94.1431 345.57 85.7666C345.577 84.3387 345.613 82.8683 345.936 81.4899C346.665 78.3866 346.501 75.3187 346.023 72.2297C345.803 70.8158 345.613 69.388 345.428 67.9672C345.027 64.8639 345.161 61.7678 345.613 58.6857C345.641 58.4878 345.887 58.3253 346.072 58.0989C347.744 58.9189 348.401 60.4316 348.625 62.1213C348.944 64.4893 349.177 66.8714 349.332 69.2537C349.494 71.7137 349.515 74.1806 349.599 76.6478C349.968 75.5803 349.94 74.513 349.974 73.4526C350.017 72.0176 349.797 70.4837 350.235 69.1758C350.842 67.3522 350.694 65.698 350.2 63.9449C349.657 61.9939 349.155 60.0359 348.718 58.0566C348.584 57.4345 348.724 56.7559 348.74 55.8653C349.255 56.2824 349.58 56.4589 349.785 56.7276C352.573 60.4601 355.38 64.1782 358.099 67.9672C360.116 70.7807 361.784 73.8768 364.02 76.4993C366.421 79.3128 367.379 82.7835 369.11 85.8868C369.286 86.1977 369.469 86.5018 369.653 86.8127C369.999 86.6149 370.338 86.4168 370.669 86.2331C374.671 90.9833 377.133 94.5248 378.426 97.3523C378.278 97.7906 378.137 98.2077 377.982 98.6743C380.635 100.632 382.421 103.149 383.987 105.856C384.948 107.51 386.056 109.073 387.094 110.677C388.292 112.536 390.007 113.816 391.908 114.869C392.19 115.025 392.761 115.18 392.854 115.06C393.636 114.077 394.61 114.94 395.487 114.756C398.167 114.205 400.899 113.985 403.588 114.94C403.87 115.039 404.323 115.081 404.527 114.926C405.594 114.092 406.801 114.388 407.979 114.388C410.83 114.395 413.689 114.714 416.456 114.261C418.933 111.398 419.504 111.186 422.243 112.197C422.497 112.289 422.659 112.642 423.034 113.059C422.032 113.448 421.219 113.766 420.543 114.028C420.853 115.046 421.107 115.873 421.403 116.834C422.807 115.873 424.255 115.993 425.688 115.993C431.178 115.986 436.67 115.986 442.163 115.972C444.421 115.965 446.694 116.113 448.874 115.279C449.29 115.117 449.82 115.194 450.286 115.237C450.475 115.251 450.652 115.47 450.829 115.597C451.188 116.177 449.637 116.763 450.962 117.414C452.22 115.972 453.716 114.848 455.183 114.975C456.935 115.689 458.107 116.516 459.32 116.594C462.291 116.785 465.284 116.658 468.262 116.566C468.671 116.552 469.068 116.057 469.462 115.781C468.376 115.541 467.473 115.746 466.555 115.838C465.489 115.943 464.409 115.979 463.336 115.972C462.489 115.972 461.578 116.156 460.52 115.505C462.058 114.36 463.364 113.731 465.023 114.304C466.407 114.777 467.783 115.046 469.052 114.007C469.223 114.007 469.406 113.985 469.583 113.978C469.759 113.971 469.929 113.978 470.076 114.042C471.39 114.586 471.629 114.537 471.481 113.505C471.39 112.869 471.496 112.063 470.621 111.575C470.373 111.61 470.113 111.617 469.852 111.617C469.052 111.624 468.206 111.61 467.557 112.437C466.922 112.303 466.286 112.169 465.334 111.964C466.187 111.087 466.751 110.31 467.501 109.779C468.305 109.207 469.279 108.868 470.261 108.387C469.539 107.694 469.35 106.98 469.985 106.408C470.768 105.708 471.664 105.121 472.569 104.591C473.217 104.209 474.043 104.117 474.566 103.446C474.178 103.142 473.903 102.93 473.536 102.64C474.002 102.124 474.433 101.58 474.932 101.113C476.852 99.3389 478.843 97.6493 480.698 95.8256C481.793 94.7441 482.959 94.1362 484.652 94.5177C483.65 93.3374 484.044 92.072 483.769 90.955C485.133 89.3647 486.333 87.6187 488.132 86.0989C488.349 86.9187 488.414 87.5126 488.662 88.0285C489.295 89.3647 488.985 90.531 488.259 91.7185C487.707 92.6162 487.307 93.5989 486.839 94.546C486.578 95.0479 486.318 95.5427 486.057 96.0447C485.514 95.8962 484.969 95.7408 484.525 95.6206C483.973 96.8718 483.508 97.9673 483.008 99.042C482.407 100.335 481.666 101.58 481.2 102.923C480.425 105.128 479.253 107.001 477.361 108.408C477.77 108.648 478.152 108.882 478.427 109.044C478.61 110.585 477.6 111.837 477.755 113.427C478.272 113.229 478.701 113.201 478.865 112.975C481.129 109.907 483.706 107.072 485.492 103.651C486.761 101.226 488.231 98.8935 489.655 96.5466C489.924 96.1012 490.25 95.5216 491.088 95.8114C491.019 96.9777 490.969 98.1654 490.855 99.3389C490.799 99.9254 490.474 100.512 490.517 101.078C490.56 101.629 490.941 102.138 491.125 102.689C491.265 103.107 491.336 103.552 491.633 104.789C492.346 100.894 492.769 97.8331 492.48 94.737C492.366 93.4858 492.536 92.3829 493.262 91.3439C494.772 89.1951 496.227 87.0106 497.746 84.8618C497.985 84.5154 498.416 84.3105 498.952 83.8862C499.108 84.9395 499.226 85.7383 499.347 86.5372C499.579 83.8579 499.474 81.0728 502.46 79.5318C503.363 80.9174 503.272 82.4866 503.272 84.0207C503.292 91.0752 503.3 98.1229 503.292 105.178C503.292 105.878 503.158 106.577 503.087 107.298C501.797 107.793 500.618 108.295 499.396 108.691C497.985 109.143 497.306 108.691 496.567 106.888C496.326 107.44 496.143 107.956 495.873 108.422C495.789 108.571 495.458 108.656 495.253 108.627C495.055 108.599 494.744 108.415 494.716 108.26C494.568 107.313 494.484 106.358 494.385 105.482C494.223 106.471 494.322 107.687 493.807 108.514C493.107 109.631 494.18 110.239 494.124 111.13C494.068 112.063 493.792 113.081 494.731 114.692C494.731 112.671 494.731 111.398 494.731 110.048C495.529 110.083 496.214 110.324 496.63 110.098C498.457 109.087 500.329 109.539 502.199 109.737C502.404 109.758 502.587 109.984 502.854 110.161C503.158 111.066 503.49 112.034 503.843 113.088C507.696 113.088 511.389 113.081 515.086 113.088C517.226 113.095 519.35 113.095 521.46 113.71C522.681 114.063 524.065 113.95 525.37 113.936C526.713 113.915 527.941 113.505 528.934 112.324C528.837 111.674 528.652 110.981 528.645 110.288C528.596 105.39 528.611 100.491 528.533 95.5924C528.518 94.5177 529.111 93.8462 529.606 93.1606C529.436 92.0366 528.984 90.9197 529.188 89.9443C529.563 88.177 529.591 86.4028 529.818 84.6357C529.874 84.1691 530.382 83.752 530.863 83.0522C531.455 85.7524 531.893 88.0922 532.507 90.3897C532.782 91.4147 532.345 92.2062 532.091 93.1818C533.819 95.2458 535.683 97.2675 537.314 99.466C539.925 102.972 543.122 105.772 546.813 108.055C547.598 108.535 548.281 109.172 549.39 110.027C547.908 110.189 546.913 110.303 545.374 110.472C546.298 111.031 546.751 111.419 547.272 111.589C548.966 112.148 550.687 112.621 552.403 113.13C557.182 114.565 562.159 115.336 566.78 117.329C567.537 117.654 568.39 117.88 569.209 117.916C573.134 118.064 577.065 118.411 580.975 117.718C584.257 117.138 587.532 116.53 590.807 115.908C592.451 115.597 594.019 115.06 595.508 114.254C601.261 111.144 607.027 108.069 612.681 105.043C612.715 104.45 612.597 103.919 612.801 103.601C613.252 102.908 613.874 102.329 614.424 101.7C619.392 96.0093 622.131 89.4212 622.372 81.8291C622.392 81.1506 622.627 80.472 622.767 79.7651C624.066 79.5743 625.201 79.4116 626.339 79.2491C626.339 79.1218 626.345 79.0016 626.345 78.8745C625.201 78.6835 623.988 78.4431 622.655 78.1816ZM596.243 85.816C595.288 86.5087 594.166 86.9612 593.102 87.4843C592.128 87.9651 591.287 87.8803 590.658 86.8481C590.074 85.8868 589.46 86.7279 588.788 86.9047C588.788 87.3501 588.788 87.8024 588.788 88.29C588.661 88.4033 588.506 88.6506 588.323 88.6789C582.761 89.5131 577.151 89.5979 571.553 89.3858C567.726 89.2374 564.057 88.1275 560.506 86.6785C559.957 86.4522 559.433 86.1552 558.94 85.8372C557.218 84.7133 556.229 83.2076 556.518 81.0376C556.66 79.9983 556.71 78.9522 556.809 77.7576C556.117 77.588 555.559 77.4395 554.995 77.3193C553.95 77.0929 552.833 77.0506 551.881 76.6335C548.987 75.3612 546.051 75.7076 543.135 76.3014C540.948 76.7537 538.973 76.8031 536.988 75.4672C535.788 74.6543 534.2 74.5341 533.065 75.7641C532.063 76.8456 531.003 76.6266 529.811 76.4145C529.938 75.9833 530.029 75.6582 530.149 75.241C529.684 75.241 529.247 75.241 528.872 75.241C528.053 76.471 528.617 77.6374 528.617 78.8249C529.464 78.5422 530.184 78.3018 531.186 77.9626C531.186 78.6481 531.186 79.0795 531.186 79.4964C530.699 79.2845 530.249 79.4258 530.156 79.9135C529.718 82.1685 529.359 84.4376 528.943 86.8904C527.954 85.816 528.68 84.6143 528.103 83.7378C527.467 86.2897 528.893 88.8839 528.131 91.4852C527.799 91.4076 527.445 91.4147 527.396 91.2945C527.228 90.8631 527.073 90.3966 527.073 89.9443C527.058 84.9252 527.073 79.9064 527.092 74.8876C527.092 74.6614 527.213 74.4351 527.277 74.216C527.346 74.117 527.411 73.9403 527.488 73.9334C529.26 73.7635 529.88 72.6397 529.938 71.0208C530.065 67.2037 530.205 63.3864 530.354 59.5693C530.41 58.1626 530.093 56.6922 531.067 55.4199C531.244 55.1866 531.294 54.6776 531.166 54.4092C530.143 52.2744 530.925 49.9768 530.503 47.7644C530.221 46.3082 530.649 44.7105 530.757 43.2472C531.703 42.9928 532.041 43.4947 532.379 43.9824C533.149 45.0853 533.565 46.3365 533.623 47.6653C533.657 48.457 533.282 49.3336 533.508 50.0476C533.862 51.1645 534.441 52.2601 535.14 53.2003C536.536 55.0947 537.85 57.0739 539.671 58.6291C540.757 59.5551 541.718 60.6297 542.791 61.5839C545.932 64.3903 549.502 66.5039 553.314 68.271C555.029 69.0628 556.906 69.5224 558.431 70.7664C558.933 71.1764 559.771 71.1976 560.463 71.332C562.208 71.6784 563.958 72.0389 565.716 72.3074C569.004 72.8236 572.316 73.2405 575.604 73.7637C580.184 74.4918 584.821 74.937 589.283 76.2943C590.609 76.6972 592.149 76.6618 593.114 77.9766C593.25 78.1533 593.778 77.9908 594.082 78.0968C594.845 78.3726 595.691 78.5847 596.321 79.0581C599.05 81.1293 599.031 83.7874 596.243 85.816Z" fill="#EEEEEE"/>
<path d="M574.955 36.3482C573.212 37.0977 571.454 37.7903 569.562 38.0661C569.428 38.0873 569.342 38.4619 569.181 38.78C569.829 39.0063 570.458 39.2253 571.094 39.4446C571.243 39.9959 571.376 40.519 571.516 41.0421C572.512 40.9007 572.598 40.1513 572.766 39.4515C572.958 38.688 573.486 38.2146 574.186 37.96C574.828 37.7267 575.492 37.5713 576.119 37.3946C576.069 36.4261 575.632 36.0584 574.955 36.3482Z" fill="#EEEEEE"/>
<path d="M204.01 26.9536C204.024 26.7346 203.904 26.5013 203.827 26.2184C203.46 26.77 203.121 27.2859 202.599 28.0776C201.879 26.9678 201.321 26.0984 200.756 25.2288C200.107 24.2321 199.479 23.2142 198.78 22.2457C198.152 21.3763 197.474 20.5351 196.754 19.7434C195.957 18.8598 195.124 18.0045 194.249 17.1915C193.465 16.4634 192.59 15.8272 191.785 15.1133C190.974 14.3993 189.887 13.9964 189.188 13.0421C190.416 12.413 191.327 14.053 192.498 12.9573C191.56 12.5685 190.706 12.1585 189.816 11.8687C187.438 11.0982 185.038 10.4054 182.666 9.63491C182.116 9.45818 181.41 9.35921 181.113 8.44733C183.09 8.44733 184.875 8.44733 186.661 8.44733C188.454 8.44733 190.24 8.44733 192.033 8.44733C193.938 8.44733 195.851 8.4827 197.757 8.44028C199.5 8.40495 201.265 8.70181 203.276 8.18579C202.034 7.05478 200.756 6.46807 199.528 7.06186C198.131 7.74045 196.754 7.64149 195.343 7.64854C189.851 7.66976 184.367 7.6627 178.876 7.63443C177.443 7.62735 175.982 7.69805 174.599 7.40822C171.768 6.82857 168.917 6.8003 166.058 6.75789C164.872 6.73668 163.63 6.82151 162.508 6.51755C161.301 6.18532 160.179 6.17116 158.993 6.39737C158.174 6.55289 157.341 6.70134 156.516 6.70134C151.391 6.71547 146.253 6.96287 141.164 6.14995C138.574 5.73289 136.004 5.26636 133.407 6.09341C133.188 6.16411 132.934 6.12168 132.694 6.13582C128.05 6.34789 123.406 6.53876 118.761 6.77911C118.091 6.81443 117.434 7.09012 116.771 7.2527C116.446 9.89644 116.227 12.3918 115.804 14.8517C115.338 17.5803 115.331 20.2524 115.797 22.988C116.192 25.335 116.277 27.7382 116.481 30.1205C116.51 30.474 116.503 30.8415 116.432 31.1809C116.319 31.7251 115.218 31.4353 115.458 32.3401C115.613 32.9126 115.747 33.5065 115.804 34.0932C115.987 36.009 115.938 37.9034 115.126 39.713C114.435 41.268 114.286 42.9222 114.449 44.6116C114.632 46.5132 114.78 48.4218 114.936 50.3234C115.239 54.1334 115.599 57.9364 115.818 61.7537C116.072 66.1647 116.241 70.5828 116.369 75.0008C116.439 77.5031 116.369 80.0197 116.312 82.522C116.22 86.6997 115.966 90.8773 116.016 95.055C116.079 100.788 116.355 106.514 116.566 112.247C116.587 112.805 116.792 113.363 116.954 114.127C118.726 114.127 120.392 114.078 122.043 114.155C122.566 114.183 123.37 114.445 123.533 114.82C123.942 115.788 124.605 115.958 125.502 115.951C130.986 115.923 136.47 115.901 141.962 115.908C142.893 115.908 143.521 115.442 144.086 114.806C144.128 114.699 144.234 114.579 144.213 114.488C144.171 114.289 144.065 114.106 143.987 113.915C143.274 113.505 142.569 113.102 141.856 112.692C143.401 109.787 143.423 109.787 143.656 106.005C143.733 104.697 143.698 103.375 143.691 102.06C143.691 101.933 143.521 101.799 143.415 101.65C143.19 102.039 142.992 102.371 142.583 103.078C141.757 98.7944 141.009 94.9562 140.289 91.1177C140.254 90.927 140.43 90.7006 140.529 90.4322C140.846 90.9199 141.143 91.3793 141.524 91.9731C142.018 90.3048 141.227 89.0112 140.733 87.7247C140.296 86.5795 139.978 85.4697 140.155 84.2468C140.275 83.4339 140.966 82.8331 141.637 83.1935C142.554 83.6812 143.31 83.5258 144.27 83.3774C146.232 83.0804 148.25 83.137 150.248 83.1229C156.692 83.0804 163.129 83.0804 169.573 83.0522C172.333 83.0379 175.008 82.4654 177.669 81.815C180.824 81.0447 183.718 79.6379 186.562 78.1322C197.319 72.4347 203.608 63.4997 205.514 51.4968C205.958 48.6763 205.782 45.7497 206.339 42.9647C206.721 41.0843 206.488 39.4584 205.867 37.7903C204.561 34.2982 203.714 30.7284 204.01 26.9536ZM179.017 50.9241C176.25 52.2178 173.695 54.0768 170.547 54.4728C169.256 54.6353 167.964 54.9039 166.672 54.9605C161.675 55.1726 156.678 55.2714 151.681 55.4978C150.156 55.5684 148.871 55.1866 147.756 54.1687C147.615 54.388 147.53 54.6353 147.361 54.7626C146.528 55.3847 145.568 55.1443 145.427 54.3032C145.406 54.183 145.378 54.0628 145.385 53.9497C145.618 50.4364 145.484 46.8878 146.472 43.318C148.363 42.6607 150.241 42.8163 152.09 43.2332C153.043 43.4453 153.862 43.4595 154.843 43.1909C155.923 42.894 157.172 43.0707 158.329 43.2049C159.374 43.3251 160.398 43.8059 161.605 43.1484C159.071 42.3566 156.614 42.1234 154.116 42.1163C151.603 42.1093 149.168 41.7488 146.811 40.8157C146.387 39.4655 146.288 38.2143 146.909 36.8784C149.253 36.0655 151.808 36.9986 154.511 36.0584C151.85 35.2172 149.422 35.9876 146.295 35.2738C147.742 35.0474 148.371 34.8707 148.999 34.8707C155.189 34.8567 161.386 34.8707 167.576 34.8778C168.762 34.8778 169.94 34.8355 170.935 35.7472C171.183 35.9736 171.782 35.818 172.22 35.8463C175.333 36.0724 177.951 37.359 179.984 39.7059C180.909 40.7734 181.713 41.9395 181.233 43.5655C181.099 44.0249 181.579 44.6399 181.671 45.2055C182.08 47.6724 181.248 49.8851 179.017 50.9241Z" fill="#EEEEEE"/>
<path d="M172.058 38.3132C172.389 40.3136 173.356 40.9217 176.511 41.1124C175.686 40.5965 175.022 40.1157 174.309 39.7411C173.533 39.3311 173.173 38.2424 172.058 38.3132Z" fill="#EEEEEE"/>
</g>
<defs>
<clipPath id="clip0_245_106">
<rect width="627" height="123" fill="white"/>
</clipPath>
</defs>
</svg>
